<ttFont>
    <TTGlyph name="A" xMin="-17" yMin="-87" xMax="573" yMax="720">
      <contour>
        <pt x="-17" y="-35" on="1"/>
        <pt x="-17" y="40" on="0"/>
        <pt x="135" y="278" on="1"/>
        <pt x="74" y="283" on="0"/>
        <pt x="27" y="283" on="1"/>
        <pt x="-8" y="283" on="1"/>
        <pt x="11" y="335" on="0"/>
        <pt x="96" y="335" on="1"/>
        <pt x="122" y="335" on="0"/>
        <pt x="168" y="328" on="1"/>
        <pt x="245" y="444" on="0"/>
        <pt x="404" y="649" on="0"/>
        <pt x="450" y="692" on="1"/>
        <pt x="479" y="720" on="0"/>
        <pt x="498" y="720" on="1"/>
        <pt x="519" y="720" on="0"/>
        <pt x="551" y="688" on="1"/>
        <pt x="518" y="662" on="0"/>
        <pt x="395" y="217" on="0"/>
        <pt x="395" y="94" on="1"/>
        <pt x="395" y="14" on="0"/>
        <pt x="432" y="14" on="1"/>
        <pt x="487" y="14" on="0"/>
        <pt x="563" y="162" on="1"/>
        <pt x="573" y="152" on="1"/>
        <pt x="542" y="70" on="0"/>
        <pt x="449" y="-30" on="0"/>
        <pt x="400" y="-30" on="1"/>
        <pt x="322" y="-30" on="0"/>
        <pt x="322" y="104" on="1"/>
        <pt x="322" y="168" on="0"/>
        <pt x="339" y="253" on="1"/>
        <pt x="275" y="263" on="0"/>
        <pt x="191" y="273" on="1"/>
        <pt x="93" y="93" on="0"/>
        <pt x="17" y="-87" on="1"/>
        <pt x="-17" y="-68" on="0"/>
      </contour>
      <contour>
        <pt x="217" y="319" on="1"/>
        <pt x="290" y="302" on="1"/>
        <pt x="337" y="291" on="0"/>
        <pt x="346" y="288" on="1"/>
        <pt x="388" y="485" on="0"/>
        <pt x="466" y="657" on="1"/>
        <pt x="375" y="601" on="0"/>
      </contour>
    </TTGlyph>
    <TTGlyph name="AE" xMin="-17" yMin="-87" xMax="807" yMax="720">
      <contour>
        <pt x="-17" y="-35" on="1"/>
        <pt x="-17" y="40" on="0"/>
        <pt x="135" y="278" on="1"/>
        <pt x="74" y="283" on="0"/>
        <pt x="27" y="283" on="1"/>
        <pt x="-8" y="283" on="1"/>
        <pt x="11" y="335" on="0"/>
        <pt x="96" y="335" on="1"/>
        <pt x="122" y="335" on="0"/>
        <pt x="168" y="328" on="1"/>
        <pt x="276" y="490" on="0"/>
        <pt x="466" y="720" on="0"/>
        <pt x="498" y="720" on="1"/>
        <pt x="646" y="720" on="0"/>
        <pt x="807" y="697" on="1"/>
        <pt x="794" y="661" on="0"/>
        <pt x="637" y="661" on="1"/>
        <pt x="596" y="661" on="0"/>
        <pt x="534" y="663" on="1"/>
        <pt x="496" y="588" on="0"/>
        <pt x="450" y="415" on="1"/>
        <pt x="491" y="414" on="0"/>
        <pt x="567" y="406" on="0"/>
        <pt x="654" y="393" on="0"/>
        <pt x="658" y="392" on="1"/>
        <pt x="645" y="356" on="0"/>
        <pt x="488" y="356" on="1"/>
        <pt x="449" y="356" on="0"/>
        <pt x="435" y="357" on="1"/>
        <pt x="395" y="187" on="0"/>
        <pt x="395" y="94" on="1"/>
        <pt x="395" y="70" on="0"/>
        <pt x="398" y="53" on="1"/>
        <pt x="437" y="47" on="0"/>
        <pt x="646" y="29" on="0"/>
        <pt x="670" y="23" on="1"/>
        <pt x="657" y="-13" on="0"/>
        <pt x="500" y="-13" on="1"/>
        <pt x="389" y="-13" on="0"/>
        <pt x="351" y="-9" on="1"/>
        <pt x="322" y="20" on="0"/>
        <pt x="322" y="104" on="1"/>
        <pt x="322" y="168" on="0"/>
        <pt x="339" y="253" on="1"/>
        <pt x="275" y="263" on="0"/>
        <pt x="191" y="273" on="1"/>
        <pt x="93" y="93" on="0"/>
        <pt x="17" y="-87" on="1"/>
        <pt x="-17" y="-68" on="0"/>
      </contour>
      <contour>
        <pt x="217" y="319" on="1"/>
        <pt x="290" y="302" on="1"/>
        <pt x="337" y="291" on="0"/>
        <pt x="346" y="288" on="1"/>
        <pt x="388" y="485" on="0"/>
        <pt x="466" y="657" on="1"/>
        <pt x="375" y="601" on="0"/>
      </contour>
    </TTGlyph>
    <TTGlyph name="Aacute" xMin="-17" yMin="-87" xMax="642" yMax="895">
      <contour>
        <pt x="-17" y="-35" on="1"/>
        <pt x="-17" y="40" on="0"/>
        <pt x="135" y="278" on="1"/>
        <pt x="74" y="283" on="0"/>
        <pt x="27" y="283" on="1"/>
        <pt x="-8" y="283" on="1"/>
        <pt x="11" y="335" on="0"/>
        <pt x="96" y="335" on="1"/>
        <pt x="122" y="335" on="0"/>
        <pt x="168" y="328" on="1"/>
        <pt x="245" y="444" on="0"/>
        <pt x="404" y="649" on="0"/>
        <pt x="450" y="692" on="1"/>
        <pt x="479" y="720" on="0"/>
        <pt x="498" y="720" on="1"/>
        <pt x="519" y="720" on="0"/>
        <pt x="551" y="688" on="1"/>
        <pt x="518" y="662" on="0"/>
        <pt x="395" y="217" on="0"/>
        <pt x="395" y="94" on="1"/>
        <pt x="395" y="14" on="0"/>
        <pt x="432" y="14" on="1"/>
        <pt x="487" y="14" on="0"/>
        <pt x="563" y="162" on="1"/>
        <pt x="573" y="152" on="1"/>
        <pt x="542" y="70" on="0"/>
        <pt x="449" y="-30" on="0"/>
        <pt x="400" y="-30" on="1"/>
        <pt x="322" y="-30" on="0"/>
        <pt x="322" y="104" on="1"/>
        <pt x="322" y="168" on="0"/>
        <pt x="339" y="253" on="1"/>
        <pt x="275" y="263" on="0"/>
        <pt x="191" y="273" on="1"/>
        <pt x="93" y="93" on="0"/>
        <pt x="17" y="-87" on="1"/>
        <pt x="-17" y="-68" on="0"/>
      </contour>
      <contour>
        <pt x="217" y="319" on="1"/>
        <pt x="290" y="302" on="1"/>
        <pt x="337" y="291" on="0"/>
        <pt x="346" y="288" on="1"/>
        <pt x="388" y="485" on="0"/>
        <pt x="466" y="657" on="1"/>
        <pt x="375" y="601" on="0"/>
      </contour>
      <contour>
        <pt x="516" y="774" on="1"/>
        <pt x="516" y="795" on="0"/>
        <pt x="593" y="895" on="0"/>
        <pt x="620" y="895" on="1"/>
        <pt x="639" y="895" on="0"/>
        <pt x="642" y="864" on="1"/>
        <pt x="568" y="800" on="0"/>
        <pt x="530" y="748" on="1"/>
        <pt x="516" y="755" on="0"/>
      </contour>
    </TTGlyph>
    <TTGlyph name="Acircumflex" xMin="-17" yMin="-87" xMax="622" yMax="886">
      <contour>
        <pt x="-17" y="-35" on="1"/>
        <pt x="-17" y="40" on="0"/>
        <pt x="135" y="278" on="1"/>
        <pt x="74" y="283" on="0"/>
        <pt x="27" y="283" on="1"/>
        <pt x="-8" y="283" on="1"/>
        <pt x="11" y="335" on="0"/>
        <pt x="96" y="335" on="1"/>
        <pt x="122" y="335" on="0"/>
        <pt x="168" y="328" on="1"/>
        <pt x="245" y="444" on="0"/>
        <pt x="404" y="649" on="0"/>
        <pt x="450" y="692" on="1"/>
        <pt x="479" y="720" on="0"/>
        <pt x="498" y="720" on="1"/>
        <pt x="519" y="720" on="0"/>
        <pt x="551" y="688" on="1"/>
        <pt x="518" y="662" on="0"/>
        <pt x="395" y="217" on="0"/>
        <pt x="395" y="94" on="1"/>
        <pt x="395" y="14" on="0"/>
        <pt x="432" y="14" on="1"/>
        <pt x="487" y="14" on="0"/>
        <pt x="563" y="162" on="1"/>
        <pt x="573" y="152" on="1"/>
        <pt x="542" y="70" on="0"/>
        <pt x="449" y="-30" on="0"/>
        <pt x="400" y="-30" on="1"/>
        <pt x="322" y="-30" on="0"/>
        <pt x="322" y="104" on="1"/>
        <pt x="322" y="168" on="0"/>
        <pt x="339" y="253" on="1"/>
        <pt x="275" y="263" on="0"/>
        <pt x="191" y="273" on="1"/>
        <pt x="93" y="93" on="0"/>
        <pt x="17" y="-87" on="1"/>
        <pt x="-17" y="-68" on="0"/>
      </contour>
      <contour>
        <pt x="217" y="319" on="1"/>
        <pt x="290" y="302" on="1"/>
        <pt x="337" y="291" on="0"/>
        <pt x="346" y="288" on="1"/>
        <pt x="388" y="485" on="0"/>
        <pt x="466" y="657" on="1"/>
        <pt x="375" y="601" on="0"/>
      </contour>
      <contour>
        <pt x="418" y="798" on="1"/>
        <pt x="418" y="825" on="0"/>
        <pt x="508" y="886" on="0"/>
        <pt x="556" y="886" on="0"/>
        <pt x="622" y="807" on="0"/>
        <pt x="622" y="775" on="1"/>
        <pt x="622" y="752" on="0"/>
        <pt x="605" y="744" on="1"/>
        <pt x="584" y="787" on="0"/>
        <pt x="531" y="836" on="1"/>
        <pt x="465" y="812" on="0"/>
        <pt x="428" y="779" on="1"/>
        <pt x="418" y="785" on="0"/>
      </contour>
    </TTGlyph>
    <TTGlyph name="Adieresis" xMin="-17" yMin="-87" xMax="651" yMax="851">
      <contour>
        <pt x="-17" y="-35" on="1"/>
        <pt x="-17" y="40" on="0"/>
        <pt x="135" y="278" on="1"/>
        <pt x="74" y="283" on="0"/>
        <pt x="27" y="283" on="1"/>
        <pt x="-8" y="283" on="1"/>
        <pt x="11" y="335" on="0"/>
        <pt x="96" y="335" on="1"/>
        <pt x="122" y="335" on="0"/>
        <pt x="168" y="328" on="1"/>
        <pt x="245" y="444" on="0"/>
        <pt x="404" y="649" on="0"/>
        <pt x="450" y="692" on="1"/>
        <pt x="479" y="720" on="0"/>
        <pt x="498" y="720" on="1"/>
        <pt x="519" y="720" on="0"/>
        <pt x="551" y="688" on="1"/>
        <pt x="518" y="662" on="0"/>
        <pt x="395" y="217" on="0"/>
        <pt x="395" y="94" on="1"/>
        <pt x="395" y="14" on="0"/>
        <pt x="432" y="14" on="1"/>
        <pt x="487" y="14" on="0"/>
        <pt x="563" y="162" on="1"/>
        <pt x="573" y="152" on="1"/>
        <pt x="542" y="70" on="0"/>
        <pt x="449" y="-30" on="0"/>
        <pt x="400" y="-30" on="1"/>
        <pt x="322" y="-30" on="0"/>
        <pt x="322" y="104" on="1"/>
        <pt x="322" y="168" on="0"/>
        <pt x="339" y="253" on="1"/>
        <pt x="275" y="263" on="0"/>
        <pt x="191" y="273" on="1"/>
        <pt x="93" y="93" on="0"/>
        <pt x="17" y="-87" on="1"/>
        <pt x="-17" y="-68" on="0"/>
      </contour>
      <contour>
        <pt x="217" y="319" on="1"/>
        <pt x="290" y="302" on="1"/>
        <pt x="337" y="291" on="0"/>
        <pt x="346" y="288" on="1"/>
        <pt x="388" y="485" on="0"/>
        <pt x="466" y="657" on="1"/>
        <pt x="375" y="601" on="0"/>
      </contour>
      <contour>
        <pt x="411" y="804" on="1"/>
        <pt x="411" y="822" on="0"/>
        <pt x="454" y="851" on="0"/>
        <pt x="477" y="851" on="1"/>
        <pt x="507" y="851" on="0"/>
        <pt x="507" y="823" on="1"/>
        <pt x="507" y="806" on="0"/>
        <pt x="470" y="774" on="0"/>
        <pt x="448" y="774" on="1"/>
        <pt x="411" y="774" on="0"/>
      </contour>
      <contour>
        <pt x="555" y="783" on="1"/>
        <pt x="555" y="801" on="0"/>
        <pt x="598" y="830" on="0"/>
        <pt x="621" y="830" on="1"/>
        <pt x="651" y="830" on="0"/>
        <pt x="651" y="802" on="1"/>
        <pt x="651" y="785" on="0"/>
        <pt x="614" y="753" on="0"/>
        <pt x="592" y="753" on="1"/>
        <pt x="555" y="753" on="0"/>
      </contour>
    </TTGlyph>
    <TTGlyph name="Agrave" xMin="-17" yMin="-87" xMax="573" yMax="895">
      <contour>
        <pt x="-17" y="-35" on="1"/>
        <pt x="-17" y="40" on="0"/>
        <pt x="135" y="278" on="1"/>
        <pt x="74" y="283" on="0"/>
        <pt x="27" y="283" on="1"/>
        <pt x="-8" y="283" on="1"/>
        <pt x="11" y="335" on="0"/>
        <pt x="96" y="335" on="1"/>
        <pt x="122" y="335" on="0"/>
        <pt x="168" y="328" on="1"/>
        <pt x="245" y="444" on="0"/>
        <pt x="404" y="649" on="0"/>
        <pt x="450" y="692" on="1"/>
        <pt x="479" y="720" on="0"/>
        <pt x="498" y="720" on="1"/>
        <pt x="519" y="720" on="0"/>
        <pt x="551" y="688" on="1"/>
        <pt x="518" y="662" on="0"/>
        <pt x="395" y="217" on="0"/>
        <pt x="395" y="94" on="1"/>
        <pt x="395" y="14" on="0"/>
        <pt x="432" y="14" on="1"/>
        <pt x="487" y="14" on="0"/>
        <pt x="563" y="162" on="1"/>
        <pt x="573" y="152" on="1"/>
        <pt x="542" y="70" on="0"/>
        <pt x="449" y="-30" on="0"/>
        <pt x="400" y="-30" on="1"/>
        <pt x="322" y="-30" on="0"/>
        <pt x="322" y="104" on="1"/>
        <pt x="322" y="168" on="0"/>
        <pt x="339" y="253" on="1"/>
        <pt x="275" y="263" on="0"/>
        <pt x="191" y="273" on="1"/>
        <pt x="93" y="93" on="0"/>
        <pt x="17" y="-87" on="1"/>
        <pt x="-17" y="-68" on="0"/>
      </contour>
      <contour>
        <pt x="217" y="319" on="1"/>
        <pt x="290" y="302" on="1"/>
        <pt x="337" y="291" on="0"/>
        <pt x="346" y="288" on="1"/>
        <pt x="388" y="485" on="0"/>
        <pt x="466" y="657" on="1"/>
        <pt x="375" y="601" on="0"/>
      </contour>
      <contour>
        <pt x="435" y="864" on="1"/>
        <pt x="438" y="895" on="0"/>
        <pt x="457" y="895" on="1"/>
        <pt x="484" y="895" on="0"/>
        <pt x="561" y="795" on="0"/>
        <pt x="561" y="774" on="1"/>
        <pt x="561" y="755" on="0"/>
        <pt x="547" y="748" on="1"/>
        <pt x="509" y="800" on="0"/>
      </contour>
    </TTGlyph>
    <TTGlyph name="Aring" xMin="-17" yMin="-87" xMax="650" yMax="920">
      <contour>
        <pt x="-17" y="-35" on="1"/>
        <pt x="-17" y="40" on="0"/>
        <pt x="135" y="278" on="1"/>
        <pt x="74" y="283" on="0"/>
        <pt x="27" y="283" on="1"/>
        <pt x="-8" y="283" on="1"/>
        <pt x="11" y="335" on="0"/>
        <pt x="96" y="335" on="1"/>
        <pt x="122" y="335" on="0"/>
        <pt x="168" y="328" on="1"/>
        <pt x="245" y="444" on="0"/>
        <pt x="404" y="649" on="0"/>
        <pt x="450" y="692" on="1"/>
        <pt x="479" y="720" on="0"/>
        <pt x="498" y="720" on="1"/>
        <pt x="519" y="720" on="0"/>
        <pt x="551" y="688" on="1"/>
        <pt x="518" y="662" on="0"/>
        <pt x="395" y="217" on="0"/>
        <pt x="395" y="94" on="1"/>
        <pt x="395" y="14" on="0"/>
        <pt x="432" y="14" on="1"/>
        <pt x="487" y="14" on="0"/>
        <pt x="563" y="162" on="1"/>
        <pt x="573" y="152" on="1"/>
        <pt x="542" y="70" on="0"/>
        <pt x="449" y="-30" on="0"/>
        <pt x="400" y="-30" on="1"/>
        <pt x="322" y="-30" on="0"/>
        <pt x="322" y="104" on="1"/>
        <pt x="322" y="168" on="0"/>
        <pt x="339" y="253" on="1"/>
        <pt x="275" y="263" on="0"/>
        <pt x="191" y="273" on="1"/>
        <pt x="93" y="93" on="0"/>
        <pt x="17" y="-87" on="1"/>
        <pt x="-17" y="-68" on="0"/>
      </contour>
      <contour>
        <pt x="217" y="319" on="1"/>
        <pt x="290" y="302" on="1"/>
        <pt x="337" y="291" on="0"/>
        <pt x="346" y="288" on="1"/>
        <pt x="388" y="485" on="0"/>
        <pt x="466" y="657" on="1"/>
        <pt x="375" y="601" on="0"/>
      </contour>
      <contour>
        <pt x="452" y="808" on="1"/>
        <pt x="452" y="846" on="0"/>
        <pt x="526" y="920" on="0"/>
        <pt x="574" y="920" on="1"/>
        <pt x="650" y="920" on="0"/>
        <pt x="650" y="866" on="1"/>
        <pt x="650" y="828" on="0"/>
        <pt x="573" y="754" on="0"/>
        <pt x="524" y="754" on="1"/>
        <pt x="452" y="754" on="0"/>
      </contour>
      <contour>
        <pt x="491" y="815" on="1"/>
        <pt x="491" y="800" on="0"/>
        <pt x="513" y="774" on="0"/>
        <pt x="533" y="774" on="1"/>
        <pt x="561" y="774" on="0"/>
        <pt x="613" y="833" on="0"/>
        <pt x="613" y="860" on="1"/>
        <pt x="613" y="875" on="0"/>
        <pt x="590" y="897" on="0"/>
        <pt x="569" y="897" on="1"/>
        <pt x="540" y="897" on="0"/>
        <pt x="491" y="843" on="0"/>
      </contour>
    </TTGlyph>
    <TTGlyph name="Atilde" xMin="-17" yMin="-87" xMax="680" yMax="805">
      <contour>
        <pt x="-17" y="-35" on="1"/>
        <pt x="-17" y="40" on="0"/>
        <pt x="135" y="278" on="1"/>
        <pt x="74" y="283" on="0"/>
        <pt x="27" y="283" on="1"/>
        <pt x="-8" y="283" on="1"/>
        <pt x="11" y="335" on="0"/>
        <pt x="96" y="335" on="1"/>
        <pt x="122" y="335" on="0"/>
        <pt x="168" y="328" on="1"/>
        <pt x="245" y="444" on="0"/>
        <pt x="404" y="649" on="0"/>
        <pt x="450" y="692" on="1"/>
        <pt x="479" y="720" on="0"/>
        <pt x="498" y="720" on="1"/>
        <pt x="519" y="720" on="0"/>
        <pt x="551" y="688" on="1"/>
        <pt x="518" y="662" on="0"/>
        <pt x="395" y="217" on="0"/>
        <pt x="395" y="94" on="1"/>
        <pt x="395" y="14" on="0"/>
        <pt x="432" y="14" on="1"/>
        <pt x="487" y="14" on="0"/>
        <pt x="563" y="162" on="1"/>
        <pt x="573" y="152" on="1"/>
        <pt x="542" y="70" on="0"/>
        <pt x="449" y="-30" on="0"/>
        <pt x="400" y="-30" on="1"/>
        <pt x="322" y="-30" on="0"/>
        <pt x="322" y="104" on="1"/>
        <pt x="322" y="168" on="0"/>
        <pt x="339" y="253" on="1"/>
        <pt x="275" y="263" on="0"/>
        <pt x="191" y="273" on="1"/>
        <pt x="93" y="93" on="0"/>
        <pt x="17" y="-87" on="1"/>
        <pt x="-17" y="-68" on="0"/>
      </contour>
      <contour>
        <pt x="217" y="319" on="1"/>
        <pt x="290" y="302" on="1"/>
        <pt x="337" y="291" on="0"/>
        <pt x="346" y="288" on="1"/>
        <pt x="388" y="485" on="0"/>
        <pt x="466" y="657" on="1"/>
        <pt x="375" y="601" on="0"/>
      </contour>
      <contour>
        <pt x="373" y="759" on="1"/>
        <pt x="408" y="805" on="0"/>
        <pt x="456" y="805" on="1"/>
        <pt x="482" y="805" on="0"/>
        <pt x="611" y="761" on="0"/>
        <pt x="650" y="761" on="1"/>
        <pt x="665" y="761" on="0"/>
        <pt x="680" y="764" on="1"/>
        <pt x="648" y="728" on="0"/>
        <pt x="602" y="728" on="1"/>
        <pt x="574" y="728" on="0"/>
        <pt x="451" y="767" on="0"/>
        <pt x="419" y="767" on="1"/>
        <pt x="393" y="767" on="0"/>
      </contour>
    </TTGlyph>
    <TTGlyph name="B" xMin="19" yMin="-87" xMax="564" yMax="720">
      <contour>
        <pt x="19" y="-7" on="1"/>
        <pt x="19" y="-4" on="0"/>
        <pt x="24" y="-4" on="1"/>
        <pt x="26" y="-4" on="0"/>
        <pt x="46" y="-9" on="0"/>
        <pt x="88" y="-14" on="0"/>
        <pt x="118" y="-14" on="1"/>
        <pt x="286" y="-14" on="0"/>
        <pt x="516" y="129" on="0"/>
        <pt x="516" y="223" on="1"/>
        <pt x="516" y="349" on="0"/>
        <pt x="264" y="349" on="1"/>
        <pt x="250" y="349" on="0"/>
        <pt x="200" y="348" on="0"/>
        <pt x="189" y="348" on="1"/>
        <pt x="99" y="26" on="1"/>
        <pt x="74" y="26" on="0"/>
        <pt x="40" y="54" on="0"/>
        <pt x="40" y="74" on="1"/>
        <pt x="40" y="83" on="0"/>
        <pt x="54" y="131" on="1"/>
        <pt x="70" y="185" on="0"/>
        <pt x="126" y="353" on="0"/>
        <pt x="226" y="615" on="0"/>
        <pt x="266" y="692" on="1"/>
        <pt x="229" y="685" on="0"/>
        <pt x="166" y="658" on="0"/>
        <pt x="132" y="638" on="0"/>
        <pt x="128" y="638" on="1"/>
        <pt x="120" y="638" on="0"/>
        <pt x="96" y="658" on="0"/>
        <pt x="96" y="665" on="1"/>
        <pt x="140" y="683" on="0"/>
        <pt x="192" y="702" on="0"/>
        <pt x="284" y="720" on="0"/>
        <pt x="333" y="720" on="1"/>
        <pt x="373" y="720" on="0"/>
        <pt x="443" y="708" on="0"/>
        <pt x="519" y="678" on="0"/>
        <pt x="564" y="610" on="0"/>
        <pt x="564" y="561" on="1"/>
        <pt x="564" y="404" on="0"/>
        <pt x="335" y="366" on="1"/>
        <pt x="563" y="352" on="0"/>
        <pt x="563" y="205" on="1"/>
        <pt x="563" y="136" on="0"/>
        <pt x="471" y="20" on="0"/>
        <pt x="333" y="-49" on="0"/>
        <pt x="189" y="-87" on="0"/>
        <pt x="130" y="-87" on="1"/>
        <pt x="19" y="-87" on="0"/>
      </contour>
      <contour>
        <pt x="195" y="371" on="1"/>
        <pt x="254" y="373" on="0"/>
        <pt x="357" y="395" on="0"/>
        <pt x="450" y="439" on="0"/>
        <pt x="504" y="517" on="0"/>
        <pt x="504" y="569" on="1"/>
        <pt x="504" y="699" on="0"/>
        <pt x="335" y="699" on="1"/>
        <pt x="322" y="699" on="0"/>
        <pt x="316" y="698" on="1"/>
        <pt x="257" y="583" on="0"/>
      </contour>
    </TTGlyph>
    <TTGlyph name="C" xMin="22" yMin="-87" xMax="529" yMax="719">
      <contour>
        <pt x="22" y="157" on="1"/>
        <pt x="22" y="253" on="0"/>
        <pt x="98" y="458" on="0"/>
        <pt x="214" y="617" on="0"/>
        <pt x="364" y="719" on="0"/>
        <pt x="433" y="719" on="1"/>
        <pt x="525" y="719" on="0"/>
        <pt x="525" y="633" on="1"/>
        <pt x="525" y="571" on="0"/>
        <pt x="448" y="420" on="0"/>
        <pt x="409" y="420" on="1"/>
        <pt x="389" y="420" on="0"/>
        <pt x="378" y="443" on="1"/>
        <pt x="415" y="485" on="0"/>
        <pt x="485" y="605" on="0"/>
        <pt x="485" y="644" on="1"/>
        <pt x="485" y="689" on="0"/>
        <pt x="436" y="689" on="1"/>
        <pt x="367" y="689" on="0"/>
        <pt x="208" y="510" on="0"/>
        <pt x="102" y="250" on="0"/>
        <pt x="102" y="140" on="1"/>
        <pt x="102" y="58" on="0"/>
        <pt x="172" y="-53" on="0"/>
        <pt x="243" y="-53" on="1"/>
        <pt x="320" y="-53" on="0"/>
        <pt x="474" y="73" on="0"/>
        <pt x="515" y="162" on="1"/>
        <pt x="529" y="152" on="1"/>
        <pt x="475" y="46" on="0"/>
        <pt x="314" y="-87" on="0"/>
        <pt x="219" y="-87" on="1"/>
        <pt x="120" y="-87" on="0"/>
        <pt x="22" y="55" on="0"/>
      </contour>
    </TTGlyph>
    <TTGlyph name="Ccedilla" xMin="22" yMin="-173" xMax="529" yMax="719">
      <contour>
        <pt x="22" y="157" on="1"/>
        <pt x="22" y="253" on="0"/>
        <pt x="98" y="458" on="0"/>
        <pt x="214" y="617" on="0"/>
        <pt x="364" y="719" on="0"/>
        <pt x="433" y="719" on="1"/>
        <pt x="525" y="719" on="0"/>
        <pt x="525" y="633" on="1"/>
        <pt x="525" y="571" on="0"/>
        <pt x="448" y="420" on="0"/>
        <pt x="409" y="420" on="1"/>
        <pt x="389" y="420" on="0"/>
        <pt x="378" y="443" on="1"/>
        <pt x="415" y="485" on="0"/>
        <pt x="485" y="605" on="0"/>
        <pt x="485" y="644" on="1"/>
        <pt x="485" y="689" on="0"/>
        <pt x="436" y="689" on="1"/>
        <pt x="367" y="689" on="0"/>
        <pt x="208" y="510" on="0"/>
        <pt x="102" y="250" on="0"/>
        <pt x="102" y="140" on="1"/>
        <pt x="102" y="58" on="0"/>
        <pt x="172" y="-53" on="0"/>
        <pt x="243" y="-53" on="1"/>
        <pt x="320" y="-53" on="0"/>
        <pt x="474" y="73" on="0"/>
        <pt x="515" y="162" on="1"/>
        <pt x="529" y="152" on="1"/>
        <pt x="488" y="73" on="0"/>
        <pt x="435" y="17" on="1"/>
        <pt x="396" y="-43" on="1"/>
        <pt x="430" y="-19" on="0"/>
        <pt x="463" y="-19" on="1"/>
        <pt x="508" y="-19" on="0"/>
        <pt x="508" y="-61" on="1"/>
        <pt x="508" y="-104" on="0"/>
        <pt x="437" y="-173" on="0"/>
        <pt x="391" y="-173" on="1"/>
        <pt x="363" y="-173" on="0"/>
        <pt x="330" y="-152" on="0"/>
        <pt x="330" y="-137" on="1"/>
        <pt x="330" y="-120" on="0"/>
        <pt x="352" y="-104" on="1"/>
        <pt x="362" y="-149" on="0"/>
        <pt x="394" y="-149" on="1"/>
        <pt x="422" y="-149" on="0"/>
        <pt x="477" y="-89" on="0"/>
        <pt x="477" y="-62" on="1"/>
        <pt x="477" y="-37" on="0"/>
        <pt x="460" y="-37" on="1"/>
        <pt x="445" y="-37" on="0"/>
        <pt x="379" y="-78" on="0"/>
        <pt x="375" y="-78" on="1"/>
        <pt x="369" y="-78" on="0"/>
        <pt x="361" y="-66" on="0"/>
        <pt x="361" y="-60" on="1"/>
        <pt x="361" y="-57" on="0"/>
        <pt x="379" y="-32" on="1"/>
        <pt x="301" y="-87" on="0"/>
        <pt x="219" y="-87" on="1"/>
        <pt x="120" y="-87" on="0"/>
        <pt x="22" y="55" on="0"/>
      </contour>
    </TTGlyph>
    <TTGlyph name="D" xMin="56" yMin="-87" xMax="643" yMax="720">
      <contour>
        <pt x="56" y="-42" on="1"/>
        <pt x="82" y="83" on="0"/>
        <pt x="197" y="454" on="0"/>
        <pt x="229" y="538" on="1"/>
        <pt x="265" y="632" on="0"/>
        <pt x="307" y="632" on="1"/>
        <pt x="321" y="632" on="0"/>
        <pt x="335" y="622" on="1"/>
        <pt x="275" y="483" on="0"/>
        <pt x="152" y="93" on="0"/>
        <pt x="119" y="-57" on="1"/>
        <pt x="143" y="-61" on="0"/>
        <pt x="162" y="-61" on="1"/>
        <pt x="265" y="-61" on="0"/>
        <pt x="455" y="94" on="0"/>
        <pt x="569" y="334" on="0"/>
        <pt x="569" y="457" on="1"/>
        <pt x="569" y="574" on="0"/>
        <pt x="459" y="693" on="0"/>
        <pt x="364" y="693" on="1"/>
        <pt x="266" y="693" on="0"/>
        <pt x="135" y="581" on="0"/>
        <pt x="135" y="498" on="1"/>
        <pt x="135" y="476" on="0"/>
        <pt x="140" y="461" on="1"/>
        <pt x="80" y="461" on="0"/>
        <pt x="80" y="517" on="1"/>
        <pt x="80" y="590" on="0"/>
        <pt x="270" y="720" on="0"/>
        <pt x="394" y="720" on="1"/>
        <pt x="521" y="720" on="0"/>
        <pt x="643" y="570" on="0"/>
        <pt x="643" y="446" on="1"/>
        <pt x="643" y="341" on="0"/>
        <pt x="558" y="142" on="0"/>
        <pt x="423" y="-1" on="0"/>
        <pt x="250" y="-87" on="0"/>
        <pt x="163" y="-87" on="1"/>
        <pt x="88" y="-87" on="0"/>
      </contour>
    </TTGlyph>
    <TTGlyph name="E" xMin="-15" yMin="-87" xMax="492" yMax="719">
      <contour>
        <pt x="-15" y="95" on="1"/>
        <pt x="-15" y="188" on="0"/>
        <pt x="137" y="344" on="0"/>
        <pt x="244" y="354" on="1"/>
        <pt x="168" y="417" on="0"/>
        <pt x="168" y="512" on="1"/>
        <pt x="168" y="594" on="0"/>
        <pt x="287" y="719" on="0"/>
        <pt x="374" y="719" on="1"/>
        <pt x="429" y="719" on="0"/>
        <pt x="488" y="663" on="0"/>
        <pt x="488" y="611" on="1"/>
        <pt x="488" y="557" on="0"/>
        <pt x="434" y="460" on="0"/>
        <pt x="408" y="460" on="1"/>
        <pt x="386" y="460" on="0"/>
        <pt x="371" y="492" on="1"/>
        <pt x="455" y="565" on="0"/>
        <pt x="455" y="631" on="1"/>
        <pt x="455" y="696" on="0"/>
        <pt x="384" y="696" on="1"/>
        <pt x="317" y="696" on="0"/>
        <pt x="241" y="581" on="0"/>
        <pt x="241" y="495" on="1"/>
        <pt x="241" y="394" on="0"/>
        <pt x="299" y="344" on="1"/>
        <pt x="203" y="328" on="0"/>
        <pt x="78" y="176" on="0"/>
        <pt x="78" y="92" on="1"/>
        <pt x="78" y="35" on="0"/>
        <pt x="141" y="-53" on="0"/>
        <pt x="206" y="-53" on="1"/>
        <pt x="283" y="-53" on="0"/>
        <pt x="437" y="73" on="0"/>
        <pt x="478" y="162" on="1"/>
        <pt x="492" y="152" on="1"/>
        <pt x="436" y="44" on="0"/>
        <pt x="276" y="-87" on="0"/>
        <pt x="180" y="-87" on="1"/>
        <pt x="92" y="-87" on="0"/>
        <pt x="-15" y="18" on="0"/>
      </contour>
    </TTGlyph>
    <TTGlyph name="Eacute" xMin="-15" yMin="-87" xMax="541" yMax="895">
      <contour>
        <pt x="-15" y="95" on="1"/>
        <pt x="-15" y="188" on="0"/>
        <pt x="137" y="344" on="0"/>
        <pt x="244" y="354" on="1"/>
        <pt x="168" y="417" on="0"/>
        <pt x="168" y="512" on="1"/>
        <pt x="168" y="594" on="0"/>
        <pt x="287" y="719" on="0"/>
        <pt x="374" y="719" on="1"/>
        <pt x="429" y="719" on="0"/>
        <pt x="488" y="663" on="0"/>
        <pt x="488" y="611" on="1"/>
        <pt x="488" y="557" on="0"/>
        <pt x="434" y="460" on="0"/>
        <pt x="408" y="460" on="1"/>
        <pt x="386" y="460" on="0"/>
        <pt x="371" y="492" on="1"/>
        <pt x="455" y="565" on="0"/>
        <pt x="455" y="631" on="1"/>
        <pt x="455" y="696" on="0"/>
        <pt x="384" y="696" on="1"/>
        <pt x="317" y="696" on="0"/>
        <pt x="241" y="581" on="0"/>
        <pt x="241" y="495" on="1"/>
        <pt x="241" y="394" on="0"/>
        <pt x="299" y="344" on="1"/>
        <pt x="203" y="328" on="0"/>
        <pt x="78" y="176" on="0"/>
        <pt x="78" y="92" on="1"/>
        <pt x="78" y="35" on="0"/>
        <pt x="141" y="-53" on="0"/>
        <pt x="206" y="-53" on="1"/>
        <pt x="283" y="-53" on="0"/>
        <pt x="437" y="73" on="0"/>
        <pt x="478" y="162" on="1"/>
        <pt x="492" y="152" on="1"/>
        <pt x="436" y="44" on="0"/>
        <pt x="276" y="-87" on="0"/>
        <pt x="180" y="-87" on="1"/>
        <pt x="92" y="-87" on="0"/>
        <pt x="-15" y="18" on="0"/>
      </contour>
      <contour>
        <pt x="415" y="774" on="1"/>
        <pt x="415" y="795" on="0"/>
        <pt x="492" y="895" on="0"/>
        <pt x="519" y="895" on="1"/>
        <pt x="538" y="895" on="0"/>
        <pt x="541" y="864" on="1"/>
        <pt x="467" y="800" on="0"/>
        <pt x="429" y="748" on="1"/>
        <pt x="415" y="755" on="0"/>
      </contour>
    </TTGlyph>
    <TTGlyph name="Ecircumflex" xMin="-15" yMin="-87" xMax="539" yMax="886">
      <contour>
        <pt x="-15" y="95" on="1"/>
        <pt x="-15" y="188" on="0"/>
        <pt x="137" y="344" on="0"/>
        <pt x="244" y="354" on="1"/>
        <pt x="168" y="417" on="0"/>
        <pt x="168" y="512" on="1"/>
        <pt x="168" y="594" on="0"/>
        <pt x="287" y="719" on="0"/>
        <pt x="374" y="719" on="1"/>
        <pt x="429" y="719" on="0"/>
        <pt x="488" y="663" on="0"/>
        <pt x="488" y="611" on="1"/>
        <pt x="488" y="557" on="0"/>
        <pt x="434" y="460" on="0"/>
        <pt x="408" y="460" on="1"/>
        <pt x="386" y="460" on="0"/>
        <pt x="371" y="492" on="1"/>
        <pt x="455" y="565" on="0"/>
        <pt x="455" y="631" on="1"/>
        <pt x="455" y="696" on="0"/>
        <pt x="384" y="696" on="1"/>
        <pt x="317" y="696" on="0"/>
        <pt x="241" y="581" on="0"/>
        <pt x="241" y="495" on="1"/>
        <pt x="241" y="394" on="0"/>
        <pt x="299" y="344" on="1"/>
        <pt x="203" y="328" on="0"/>
        <pt x="78" y="176" on="0"/>
        <pt x="78" y="92" on="1"/>
        <pt x="78" y="35" on="0"/>
        <pt x="141" y="-53" on="0"/>
        <pt x="206" y="-53" on="1"/>
        <pt x="283" y="-53" on="0"/>
        <pt x="437" y="73" on="0"/>
        <pt x="478" y="162" on="1"/>
        <pt x="492" y="152" on="1"/>
        <pt x="436" y="44" on="0"/>
        <pt x="276" y="-87" on="0"/>
        <pt x="180" y="-87" on="1"/>
        <pt x="92" y="-87" on="0"/>
        <pt x="-15" y="18" on="0"/>
      </contour>
      <contour>
        <pt x="335" y="798" on="1"/>
        <pt x="335" y="825" on="0"/>
        <pt x="425" y="886" on="0"/>
        <pt x="473" y="886" on="0"/>
        <pt x="539" y="807" on="0"/>
        <pt x="539" y="775" on="1"/>
        <pt x="539" y="752" on="0"/>
        <pt x="522" y="744" on="1"/>
        <pt x="501" y="787" on="0"/>
        <pt x="448" y="836" on="1"/>
        <pt x="381" y="812" on="0"/>
        <pt x="345" y="779" on="1"/>
        <pt x="335" y="785" on="0"/>
      </contour>
    </TTGlyph>
    <TTGlyph name="Edieresis" xMin="-15" yMin="-87" xMax="553" yMax="851">
      <contour>
        <pt x="-15" y="95" on="1"/>
        <pt x="-15" y="188" on="0"/>
        <pt x="137" y="344" on="0"/>
        <pt x="244" y="354" on="1"/>
        <pt x="168" y="417" on="0"/>
        <pt x="168" y="512" on="1"/>
        <pt x="168" y="594" on="0"/>
        <pt x="287" y="719" on="0"/>
        <pt x="374" y="719" on="1"/>
        <pt x="429" y="719" on="0"/>
        <pt x="488" y="663" on="0"/>
        <pt x="488" y="611" on="1"/>
        <pt x="488" y="557" on="0"/>
        <pt x="434" y="460" on="0"/>
        <pt x="408" y="460" on="1"/>
        <pt x="386" y="460" on="0"/>
        <pt x="371" y="492" on="1"/>
        <pt x="455" y="565" on="0"/>
        <pt x="455" y="631" on="1"/>
        <pt x="455" y="696" on="0"/>
        <pt x="384" y="696" on="1"/>
        <pt x="317" y="696" on="0"/>
        <pt x="241" y="581" on="0"/>
        <pt x="241" y="495" on="1"/>
        <pt x="241" y="394" on="0"/>
        <pt x="299" y="344" on="1"/>
        <pt x="203" y="328" on="0"/>
        <pt x="78" y="176" on="0"/>
        <pt x="78" y="92" on="1"/>
        <pt x="78" y="35" on="0"/>
        <pt x="141" y="-53" on="0"/>
        <pt x="206" y="-53" on="1"/>
        <pt x="283" y="-53" on="0"/>
        <pt x="437" y="73" on="0"/>
        <pt x="478" y="162" on="1"/>
        <pt x="492" y="152" on="1"/>
        <pt x="436" y="44" on="0"/>
        <pt x="276" y="-87" on="0"/>
        <pt x="180" y="-87" on="1"/>
        <pt x="92" y="-87" on="0"/>
        <pt x="-15" y="18" on="0"/>
      </contour>
      <contour>
        <pt x="313" y="804" on="1"/>
        <pt x="313" y="822" on="0"/>
        <pt x="356" y="851" on="0"/>
        <pt x="379" y="851" on="1"/>
        <pt x="409" y="851" on="0"/>
        <pt x="409" y="823" on="1"/>
        <pt x="409" y="806" on="0"/>
        <pt x="372" y="774" on="0"/>
        <pt x="350" y="774" on="1"/>
        <pt x="313" y="774" on="0"/>
      </contour>
      <contour>
        <pt x="457" y="783" on="1"/>
        <pt x="457" y="801" on="0"/>
        <pt x="500" y="830" on="0"/>
        <pt x="523" y="830" on="1"/>
        <pt x="553" y="830" on="0"/>
        <pt x="553" y="802" on="1"/>
        <pt x="553" y="785" on="0"/>
        <pt x="516" y="753" on="0"/>
        <pt x="494" y="753" on="1"/>
        <pt x="457" y="753" on="0"/>
      </contour>
    </TTGlyph>
    <TTGlyph name="Egrave" xMin="-15" yMin="-87" xMax="492" yMax="895">
      <contour>
        <pt x="-15" y="95" on="1"/>
        <pt x="-15" y="188" on="0"/>
        <pt x="137" y="344" on="0"/>
        <pt x="244" y="354" on="1"/>
        <pt x="168" y="417" on="0"/>
        <pt x="168" y="512" on="1"/>
        <pt x="168" y="594" on="0"/>
        <pt x="287" y="719" on="0"/>
        <pt x="374" y="719" on="1"/>
        <pt x="429" y="719" on="0"/>
        <pt x="488" y="663" on="0"/>
        <pt x="488" y="611" on="1"/>
        <pt x="488" y="557" on="0"/>
        <pt x="434" y="460" on="0"/>
        <pt x="408" y="460" on="1"/>
        <pt x="386" y="460" on="0"/>
        <pt x="371" y="492" on="1"/>
        <pt x="455" y="565" on="0"/>
        <pt x="455" y="631" on="1"/>
        <pt x="455" y="696" on="0"/>
        <pt x="384" y="696" on="1"/>
        <pt x="317" y="696" on="0"/>
        <pt x="241" y="581" on="0"/>
        <pt x="241" y="495" on="1"/>
        <pt x="241" y="394" on="0"/>
        <pt x="299" y="344" on="1"/>
        <pt x="203" y="328" on="0"/>
        <pt x="78" y="176" on="0"/>
        <pt x="78" y="92" on="1"/>
        <pt x="78" y="35" on="0"/>
        <pt x="141" y="-53" on="0"/>
        <pt x="206" y="-53" on="1"/>
        <pt x="283" y="-53" on="0"/>
        <pt x="437" y="73" on="0"/>
        <pt x="478" y="162" on="1"/>
        <pt x="492" y="152" on="1"/>
        <pt x="436" y="44" on="0"/>
        <pt x="276" y="-87" on="0"/>
        <pt x="180" y="-87" on="1"/>
        <pt x="92" y="-87" on="0"/>
        <pt x="-15" y="18" on="0"/>
      </contour>
      <contour>
        <pt x="307" y="864" on="1"/>
        <pt x="310" y="895" on="0"/>
        <pt x="329" y="895" on="1"/>
        <pt x="356" y="895" on="0"/>
        <pt x="433" y="795" on="0"/>
        <pt x="433" y="774" on="1"/>
        <pt x="433" y="755" on="0"/>
        <pt x="419" y="748" on="1"/>
        <pt x="381" y="800" on="0"/>
      </contour>
    </TTGlyph>
    <TTGlyph name="Eth" xMin="32" yMin="-87" xMax="644" yMax="720">
      <contour>
        <pt x="32" y="274" on="1"/>
        <pt x="47" y="314" on="0"/>
        <pt x="157" y="321" on="1"/>
        <pt x="198" y="451" on="0"/>
        <pt x="230" y="538" on="1"/>
        <pt x="266" y="632" on="0"/>
        <pt x="308" y="632" on="1"/>
        <pt x="322" y="632" on="0"/>
        <pt x="336" y="622" on="1"/>
        <pt x="281" y="495" on="0"/>
        <pt x="225" y="323" on="1"/>
        <pt x="302" y="323" on="0"/>
        <pt x="389" y="314" on="1"/>
        <pt x="349" y="285" on="0"/>
        <pt x="286" y="285" on="1"/>
        <pt x="213" y="285" on="1"/>
        <pt x="153" y="97" on="0"/>
        <pt x="120" y="-57" on="1"/>
        <pt x="144" y="-61" on="0"/>
        <pt x="163" y="-61" on="1"/>
        <pt x="266" y="-61" on="0"/>
        <pt x="456" y="94" on="0"/>
        <pt x="570" y="334" on="0"/>
        <pt x="570" y="457" on="1"/>
        <pt x="570" y="574" on="0"/>
        <pt x="460" y="693" on="0"/>
        <pt x="365" y="693" on="1"/>
        <pt x="267" y="693" on="0"/>
        <pt x="136" y="581" on="0"/>
        <pt x="136" y="498" on="1"/>
        <pt x="136" y="476" on="0"/>
        <pt x="141" y="461" on="1"/>
        <pt x="81" y="461" on="0"/>
        <pt x="81" y="517" on="1"/>
        <pt x="81" y="590" on="0"/>
        <pt x="271" y="720" on="0"/>
        <pt x="395" y="720" on="1"/>
        <pt x="522" y="720" on="0"/>
        <pt x="644" y="570" on="0"/>
        <pt x="644" y="446" on="1"/>
        <pt x="644" y="341" on="0"/>
        <pt x="559" y="142" on="0"/>
        <pt x="424" y="-1" on="0"/>
        <pt x="251" y="-87" on="0"/>
        <pt x="164" y="-87" on="1"/>
        <pt x="89" y="-87" on="0"/>
        <pt x="57" y="-42" on="1"/>
        <pt x="82" y="80" on="0"/>
        <pt x="145" y="284" on="1"/>
        <pt x="98" y="284" on="0"/>
      </contour>
    </TTGlyph>
    <TTGlyph name="Euro" xMin="18" yMin="-87" xMax="631" yMax="719">
      <contour>
        <pt x="18" y="155" on="1"/>
        <pt x="21" y="216" on="0"/>
        <pt x="128" y="223" on="1"/>
        <pt x="130" y="238" on="0"/>
        <pt x="136" y="268" on="1"/>
        <pt x="72" y="260" on="1"/>
        <pt x="38" y="255" on="1"/>
        <pt x="41" y="315" on="0"/>
        <pt x="150" y="324" on="1"/>
        <pt x="200" y="484" on="0"/>
        <pt x="424" y="719" on="0"/>
        <pt x="535" y="719" on="1"/>
        <pt x="627" y="719" on="0"/>
        <pt x="627" y="633" on="1"/>
        <pt x="627" y="571" on="0"/>
        <pt x="550" y="420" on="0"/>
        <pt x="511" y="420" on="1"/>
        <pt x="491" y="420" on="0"/>
        <pt x="480" y="443" on="1"/>
        <pt x="517" y="485" on="0"/>
        <pt x="587" y="605" on="0"/>
        <pt x="587" y="644" on="1"/>
        <pt x="587" y="689" on="0"/>
        <pt x="538" y="689" on="1"/>
        <pt x="460" y="689" on="0"/>
        <pt x="284" y="467" on="0"/>
        <pt x="237" y="323" on="1"/>
        <pt x="266" y="321" on="0"/>
        <pt x="380" y="309" on="0"/>
        <pt x="405" y="308" on="1"/>
        <pt x="389" y="285" on="0"/>
        <pt x="332" y="275" on="0"/>
        <pt x="222" y="273" on="1"/>
        <pt x="219" y="260" on="0"/>
        <pt x="212" y="224" on="1"/>
        <pt x="243" y="222" on="0"/>
        <pt x="360" y="209" on="0"/>
        <pt x="385" y="208" on="1"/>
        <pt x="369" y="185" on="0"/>
        <pt x="312" y="176" on="0"/>
        <pt x="205" y="174" on="1"/>
        <pt x="204" y="162" on="0"/>
        <pt x="204" y="140" on="1"/>
        <pt x="204" y="58" on="0"/>
        <pt x="274" y="-53" on="0"/>
        <pt x="345" y="-53" on="1"/>
        <pt x="422" y="-53" on="0"/>
        <pt x="576" y="73" on="0"/>
        <pt x="617" y="162" on="1"/>
        <pt x="631" y="152" on="1"/>
        <pt x="577" y="46" on="0"/>
        <pt x="416" y="-87" on="0"/>
        <pt x="321" y="-87" on="1"/>
        <pt x="222" y="-87" on="0"/>
        <pt x="124" y="55" on="0"/>
        <pt x="124" y="157" on="1"/>
        <pt x="124" y="169" on="1"/>
        <pt x="99" y="167" on="0"/>
        <pt x="52" y="160" on="1"/>
      </contour>
    </TTGlyph>
    <TTGlyph name="F" xMin="66" yMin="-87" xMax="614" yMax="715">
      <contour>
        <pt x="66" y="539" on="1"/>
        <pt x="66" y="616" on="0"/>
        <pt x="225" y="715" on="0"/>
        <pt x="341" y="715" on="1"/>
        <pt x="377" y="715" on="0"/>
        <pt x="509" y="700" on="0"/>
        <pt x="540" y="700" on="1"/>
        <pt x="580" y="700" on="0"/>
        <pt x="614" y="710" on="1"/>
        <pt x="579" y="670" on="0"/>
        <pt x="529" y="640" on="0"/>
        <pt x="501" y="640" on="1"/>
        <pt x="484" y="640" on="0"/>
        <pt x="434" y="647" on="1"/>
        <pt x="359" y="657" on="1"/>
        <pt x="331" y="589" on="0"/>
        <pt x="263" y="374" on="1"/>
        <pt x="295" y="372" on="0"/>
        <pt x="413" y="359" on="0"/>
        <pt x="438" y="358" on="1"/>
        <pt x="422" y="335" on="0"/>
        <pt x="363" y="325" on="0"/>
        <pt x="248" y="323" on="1"/>
        <pt x="204" y="174" on="1"/>
        <pt x="154" y="6" on="0"/>
        <pt x="152" y="-87" on="1"/>
        <pt x="110" y="-84" on="0"/>
        <pt x="84" y="-46" on="0"/>
        <pt x="84" y="-8" on="1"/>
        <pt x="84" y="7" on="0"/>
        <pt x="89" y="42" on="0"/>
        <pt x="96" y="67" on="1"/>
        <pt x="108" y="109" on="1"/>
        <pt x="113" y="127" on="0"/>
        <pt x="125" y="161" on="1"/>
        <pt x="142" y="210" on="1"/>
        <pt x="147" y="225" on="0"/>
        <pt x="163" y="267" on="1"/>
        <pt x="182" y="319" on="1"/>
        <pt x="157" y="317" on="0"/>
        <pt x="105" y="310" on="1"/>
        <pt x="71" y="305" on="1"/>
        <pt x="75" y="371" on="0"/>
        <pt x="202" y="375" on="1"/>
        <pt x="267" y="554" on="0"/>
        <pt x="318" y="660" on="1"/>
        <pt x="292" y="662" on="0"/>
        <pt x="279" y="662" on="1"/>
        <pt x="186" y="662" on="0"/>
        <pt x="119" y="605" on="0"/>
        <pt x="119" y="540" on="1"/>
        <pt x="119" y="499" on="0"/>
        <pt x="132" y="461" on="1"/>
        <pt x="66" y="472" on="0"/>
      </contour>
    </TTGlyph>
    <TTGlyph name="F.salt" xMin="40" yMin="-87" xMax="582" yMax="720">
      <contour>
        <pt x="40" y="305" on="1"/>
        <pt x="43" y="370" on="0"/>
        <pt x="167" y="375" on="1"/>
        <pt x="235" y="554" on="0"/>
        <pt x="286" y="659" on="1"/>
        <pt x="199" y="656" on="0"/>
        <pt x="116" y="641" on="1"/>
        <pt x="130" y="720" on="0"/>
        <pt x="320" y="720" on="1"/>
        <pt x="428" y="720" on="0"/>
        <pt x="582" y="697" on="1"/>
        <pt x="547" y="662" on="0"/>
        <pt x="485" y="662" on="1"/>
        <pt x="480" y="662" on="0"/>
        <pt x="337" y="661" on="0"/>
        <pt x="333" y="661" on="1"/>
        <pt x="295" y="565" on="0"/>
        <pt x="236" y="373" on="1"/>
        <pt x="266" y="371" on="0"/>
        <pt x="382" y="359" on="0"/>
        <pt x="407" y="358" on="1"/>
        <pt x="391" y="335" on="0"/>
        <pt x="333" y="325" on="0"/>
        <pt x="221" y="323" on="1"/>
        <pt x="125" y="-8" on="0"/>
        <pt x="125" y="-87" on="1"/>
        <pt x="44" y="-80" on="0"/>
        <pt x="44" y="-8" on="1"/>
        <pt x="44" y="12" on="0"/>
        <pt x="54" y="64" on="0"/>
        <pt x="81" y="146" on="0"/>
        <pt x="89" y="167" on="1"/>
        <pt x="119" y="247" on="1"/>
        <pt x="146" y="319" on="1"/>
        <pt x="120" y="317" on="0"/>
      </contour>
    </TTGlyph>
    <TTGlyph name="G" xMin="22" yMin="-87" xMax="537" yMax="719">
      <contour>
        <pt x="22" y="161" on="1"/>
        <pt x="22" y="286" on="0"/>
        <pt x="147" y="549" on="0"/>
        <pt x="341" y="719" on="0"/>
        <pt x="433" y="719" on="1"/>
        <pt x="486" y="719" on="0"/>
        <pt x="537" y="655" on="0"/>
        <pt x="537" y="606" on="1"/>
        <pt x="537" y="552" on="0"/>
        <pt x="484" y="460" on="0"/>
        <pt x="449" y="460" on="1"/>
        <pt x="429" y="460" on="0"/>
        <pt x="418" y="483" on="1"/>
        <pt x="442" y="500" on="0"/>
        <pt x="496" y="598" on="0"/>
        <pt x="496" y="636" on="1"/>
        <pt x="496" y="689" on="0"/>
        <pt x="437" y="689" on="1"/>
        <pt x="436" y="689" on="1"/>
        <pt x="367" y="689" on="0"/>
        <pt x="208" y="509" on="0"/>
        <pt x="102" y="249" on="0"/>
        <pt x="102" y="141" on="1"/>
        <pt x="102" y="52" on="0"/>
        <pt x="177" y="-53" on="0"/>
        <pt x="236" y="-53" on="1"/>
        <pt x="310" y="-53" on="0"/>
        <pt x="428" y="143" on="0"/>
        <pt x="436" y="250" on="1"/>
        <pt x="378" y="263" on="0"/>
        <pt x="333" y="263" on="1"/>
        <pt x="325" y="263" on="0"/>
        <pt x="285" y="262" on="0"/>
        <pt x="272" y="262" on="1"/>
        <pt x="284" y="314" on="0"/>
        <pt x="340" y="314" on="1"/>
        <pt x="373" y="314" on="0"/>
        <pt x="504" y="268" on="0"/>
        <pt x="509" y="267" on="1"/>
        <pt x="502" y="235" on="1"/>
        <pt x="441" y="76" on="0"/>
        <pt x="441" y="-9" on="1"/>
        <pt x="441" y="-24" on="0"/>
        <pt x="445" y="-77" on="0"/>
        <pt x="445" y="-87" on="1"/>
        <pt x="391" y="-66" on="0"/>
        <pt x="391" y="-16" on="1"/>
        <pt x="391" y="7" on="0"/>
        <pt x="398" y="31" on="1"/>
        <pt x="313" y="-87" on="0"/>
        <pt x="210" y="-87" on="1"/>
        <pt x="209" y="-87" on="1"/>
        <pt x="128" y="-87" on="0"/>
        <pt x="22" y="46" on="0"/>
      </contour>
    </TTGlyph>
    <TTGlyph name="H" xMin="55" yMin="-87" xMax="632" yMax="720">
      <contour>
        <pt x="55" y="-87" on="1"/>
        <pt x="79" y="49" on="0"/>
        <pt x="165" y="314" on="1"/>
        <pt x="99" y="307" on="1"/>
        <pt x="100" y="351" on="0"/>
        <pt x="182" y="368" on="1"/>
        <pt x="267" y="619" on="1"/>
        <pt x="281" y="660" on="0"/>
        <pt x="281" y="677" on="1"/>
        <pt x="281" y="692" on="0"/>
        <pt x="267" y="692" on="1"/>
        <pt x="222" y="692" on="0"/>
        <pt x="143" y="559" on="0"/>
        <pt x="143" y="504" on="1"/>
        <pt x="143" y="485" on="0"/>
        <pt x="148" y="470" on="1"/>
        <pt x="88" y="470" on="0"/>
        <pt x="88" y="527" on="1"/>
        <pt x="88" y="592" on="0"/>
        <pt x="229" y="720" on="0"/>
        <pt x="288" y="720" on="1"/>
        <pt x="334" y="720" on="0"/>
        <pt x="334" y="672" on="1"/>
        <pt x="334" y="655" on="0"/>
        <pt x="326" y="629" on="1"/>
        <pt x="248" y="375" on="1"/>
        <pt x="284" y="377" on="0"/>
        <pt x="306" y="377" on="1"/>
        <pt x="384" y="377" on="0"/>
        <pt x="476" y="368" on="1"/>
        <pt x="550" y="611" on="0"/>
        <pt x="577" y="668" on="1"/>
        <pt x="601" y="720" on="0"/>
        <pt x="632" y="720" on="1"/>
        <pt x="590" y="609" on="0"/>
        <pt x="527" y="364" on="1"/>
        <pt x="537" y="364" on="0"/>
        <pt x="588" y="360" on="0"/>
        <pt x="602" y="360" on="1"/>
        <pt x="572" y="328" on="0"/>
        <pt x="520" y="328" on="1"/>
        <pt x="519" y="328" on="0"/>
        <pt x="518" y="328" on="1"/>
        <pt x="497" y="242" on="0"/>
        <pt x="487" y="191" on="1"/>
        <pt x="454" y="36" on="0"/>
        <pt x="454" y="-48" on="1"/>
        <pt x="454" y="-49" on="0"/>
        <pt x="454" y="-51" on="1"/>
        <pt x="454" y="-69" on="0"/>
        <pt x="456" y="-87" on="1"/>
        <pt x="418" y="-83" on="0"/>
        <pt x="387" y="-48" on="0"/>
        <pt x="387" y="-9" on="1"/>
        <pt x="387" y="49" on="0"/>
        <pt x="411" y="142" on="1"/>
        <pt x="427" y="208" on="0"/>
        <pt x="464" y="327" on="1"/>
        <pt x="297" y="326" on="0"/>
        <pt x="231" y="320" on="1"/>
        <pt x="145" y="49" on="0"/>
        <pt x="124" y="-23" on="1"/>
        <pt x="114" y="-55" on="0"/>
        <pt x="74" y="-87" on="0"/>
      </contour>
    </TTGlyph>
    <TTGlyph name="I" xMin="-38" yMin="-88" xMax="548" yMax="718">
      <contour>
        <pt x="-38" y="-88" on="1"/>
        <pt x="-35" y="-62" on="0"/>
        <pt x="-9" y="-28" on="0"/>
        <pt x="40" y="-13" on="0"/>
        <pt x="88" y="-8" on="0"/>
        <pt x="125" y="-8" on="1"/>
        <pt x="167" y="83" on="0"/>
        <pt x="295" y="627" on="0"/>
        <pt x="307" y="661" on="1"/>
        <pt x="174" y="658" on="0"/>
        <pt x="82" y="641" on="1"/>
        <pt x="96" y="718" on="0"/>
        <pt x="284" y="718" on="1"/>
        <pt x="285" y="718" on="0"/>
        <pt x="286" y="718" on="1"/>
        <pt x="407" y="718" on="0"/>
        <pt x="548" y="697" on="1"/>
        <pt x="513" y="662" on="0"/>
        <pt x="453" y="662" on="1"/>
        <pt x="452" y="662" on="0"/>
        <pt x="451" y="662" on="1"/>
        <pt x="373" y="662" on="0"/>
        <pt x="342" y="661" on="1"/>
        <pt x="268" y="263" on="0"/>
        <pt x="243" y="162" on="1"/>
        <pt x="208" y="24" on="0"/>
        <pt x="159" y="-9" on="1"/>
        <pt x="188" y="-11" on="0"/>
        <pt x="341" y="-27" on="0"/>
        <pt x="376" y="-28" on="1"/>
        <pt x="333" y="-71" on="0"/>
        <pt x="263" y="-71" on="1"/>
        <pt x="202" y="-71" on="1"/>
        <pt x="153" y="-71" on="0"/>
        <pt x="118" y="-73" on="0"/>
        <pt x="45" y="-76" on="0"/>
        <pt x="-10" y="-83" on="0"/>
      </contour>
    </TTGlyph>
    <TTGlyph name="Iacute" xMin="-38" yMin="-88" xMax="548" yMax="895">
      <contour>
        <pt x="-38" y="-88" on="1"/>
        <pt x="-35" y="-62" on="0"/>
        <pt x="-9" y="-28" on="0"/>
        <pt x="40" y="-13" on="0"/>
        <pt x="88" y="-8" on="0"/>
        <pt x="125" y="-8" on="1"/>
        <pt x="167" y="83" on="0"/>
        <pt x="295" y="627" on="0"/>
        <pt x="307" y="661" on="1"/>
        <pt x="174" y="658" on="0"/>
        <pt x="82" y="641" on="1"/>
        <pt x="96" y="718" on="0"/>
        <pt x="286" y="718" on="1"/>
        <pt x="407" y="718" on="0"/>
        <pt x="548" y="697" on="1"/>
        <pt x="513" y="662" on="0"/>
        <pt x="451" y="662" on="1"/>
        <pt x="373" y="662" on="0"/>
        <pt x="342" y="661" on="1"/>
        <pt x="268" y="263" on="0"/>
        <pt x="243" y="162" on="1"/>
        <pt x="208" y="24" on="0"/>
        <pt x="159" y="-9" on="1"/>
        <pt x="188" y="-11" on="0"/>
        <pt x="341" y="-27" on="0"/>
        <pt x="376" y="-28" on="1"/>
        <pt x="333" y="-71" on="0"/>
        <pt x="263" y="-71" on="1"/>
        <pt x="202" y="-71" on="1"/>
        <pt x="153" y="-71" on="0"/>
        <pt x="118" y="-73" on="0"/>
        <pt x="45" y="-76" on="0"/>
        <pt x="-10" y="-83" on="0"/>
      </contour>
      <contour>
        <pt x="342" y="774" on="1"/>
        <pt x="342" y="795" on="0"/>
        <pt x="419" y="895" on="0"/>
        <pt x="446" y="895" on="1"/>
        <pt x="465" y="895" on="0"/>
        <pt x="468" y="864" on="1"/>
        <pt x="394" y="800" on="0"/>
        <pt x="356" y="748" on="1"/>
        <pt x="342" y="755" on="0"/>
      </contour>
    </TTGlyph>
    <TTGlyph name="Icircumflex" xMin="-38" yMin="-88" xMax="548" yMax="886">
      <contour>
        <pt x="-38" y="-88" on="1"/>
        <pt x="-35" y="-62" on="0"/>
        <pt x="-9" y="-28" on="0"/>
        <pt x="40" y="-13" on="0"/>
        <pt x="88" y="-8" on="0"/>
        <pt x="125" y="-8" on="1"/>
        <pt x="167" y="83" on="0"/>
        <pt x="295" y="627" on="0"/>
        <pt x="307" y="661" on="1"/>
        <pt x="174" y="658" on="0"/>
        <pt x="82" y="641" on="1"/>
        <pt x="96" y="718" on="0"/>
        <pt x="286" y="718" on="1"/>
        <pt x="407" y="718" on="0"/>
        <pt x="548" y="697" on="1"/>
        <pt x="513" y="662" on="0"/>
        <pt x="451" y="662" on="1"/>
        <pt x="373" y="662" on="0"/>
        <pt x="342" y="661" on="1"/>
        <pt x="268" y="263" on="0"/>
        <pt x="243" y="162" on="1"/>
        <pt x="208" y="24" on="0"/>
        <pt x="159" y="-9" on="1"/>
        <pt x="188" y="-11" on="0"/>
        <pt x="341" y="-27" on="0"/>
        <pt x="376" y="-28" on="1"/>
        <pt x="333" y="-71" on="0"/>
        <pt x="263" y="-71" on="1"/>
        <pt x="202" y="-71" on="1"/>
        <pt x="153" y="-71" on="0"/>
        <pt x="118" y="-73" on="0"/>
        <pt x="45" y="-76" on="0"/>
        <pt x="-10" y="-83" on="0"/>
      </contour>
      <contour>
        <pt x="264" y="798" on="1"/>
        <pt x="264" y="825" on="0"/>
        <pt x="354" y="886" on="0"/>
        <pt x="402" y="886" on="0"/>
        <pt x="468" y="807" on="0"/>
        <pt x="468" y="775" on="1"/>
        <pt x="468" y="752" on="0"/>
        <pt x="451" y="744" on="1"/>
        <pt x="430" y="787" on="0"/>
        <pt x="377" y="836" on="1"/>
        <pt x="310" y="812" on="0"/>
        <pt x="274" y="779" on="1"/>
        <pt x="264" y="785" on="0"/>
      </contour>
    </TTGlyph>
    <TTGlyph name="Idieresis" xMin="-38" yMin="-88" xMax="548" yMax="851">
      <contour>
        <pt x="-38" y="-88" on="1"/>
        <pt x="-35" y="-62" on="0"/>
        <pt x="-9" y="-28" on="0"/>
        <pt x="40" y="-13" on="0"/>
        <pt x="88" y="-8" on="0"/>
        <pt x="125" y="-8" on="1"/>
        <pt x="167" y="83" on="0"/>
        <pt x="295" y="627" on="0"/>
        <pt x="307" y="661" on="1"/>
        <pt x="174" y="658" on="0"/>
        <pt x="82" y="641" on="1"/>
        <pt x="96" y="718" on="0"/>
        <pt x="286" y="718" on="1"/>
        <pt x="407" y="718" on="0"/>
        <pt x="548" y="697" on="1"/>
        <pt x="513" y="662" on="0"/>
        <pt x="451" y="662" on="1"/>
        <pt x="373" y="662" on="0"/>
        <pt x="342" y="661" on="1"/>
        <pt x="268" y="263" on="0"/>
        <pt x="243" y="162" on="1"/>
        <pt x="208" y="24" on="0"/>
        <pt x="159" y="-9" on="1"/>
        <pt x="188" y="-11" on="0"/>
        <pt x="341" y="-27" on="0"/>
        <pt x="376" y="-28" on="1"/>
        <pt x="333" y="-71" on="0"/>
        <pt x="263" y="-71" on="1"/>
        <pt x="202" y="-71" on="1"/>
        <pt x="153" y="-71" on="0"/>
        <pt x="118" y="-73" on="0"/>
        <pt x="45" y="-76" on="0"/>
        <pt x="-10" y="-83" on="0"/>
      </contour>
      <contour>
        <pt x="241" y="804" on="1"/>
        <pt x="241" y="822" on="0"/>
        <pt x="284" y="851" on="0"/>
        <pt x="307" y="851" on="1"/>
        <pt x="337" y="851" on="0"/>
        <pt x="337" y="823" on="1"/>
        <pt x="337" y="806" on="0"/>
        <pt x="300" y="774" on="0"/>
        <pt x="278" y="774" on="1"/>
        <pt x="241" y="774" on="0"/>
      </contour>
      <contour>
        <pt x="385" y="783" on="1"/>
        <pt x="385" y="801" on="0"/>
        <pt x="428" y="830" on="0"/>
        <pt x="451" y="830" on="1"/>
        <pt x="481" y="830" on="0"/>
        <pt x="481" y="802" on="1"/>
        <pt x="481" y="785" on="0"/>
        <pt x="444" y="753" on="0"/>
        <pt x="422" y="753" on="1"/>
        <pt x="385" y="753" on="0"/>
      </contour>
    </TTGlyph>
    <TTGlyph name="Igrave" xMin="-38" yMin="-88" xMax="548" yMax="895">
      <contour>
        <pt x="-38" y="-88" on="1"/>
        <pt x="-35" y="-62" on="0"/>
        <pt x="-9" y="-28" on="0"/>
        <pt x="40" y="-13" on="0"/>
        <pt x="88" y="-8" on="0"/>
        <pt x="125" y="-8" on="1"/>
        <pt x="167" y="83" on="0"/>
        <pt x="295" y="627" on="0"/>
        <pt x="307" y="661" on="1"/>
        <pt x="174" y="658" on="0"/>
        <pt x="82" y="641" on="1"/>
        <pt x="96" y="718" on="0"/>
        <pt x="286" y="718" on="1"/>
        <pt x="407" y="718" on="0"/>
        <pt x="548" y="697" on="1"/>
        <pt x="513" y="662" on="0"/>
        <pt x="451" y="662" on="1"/>
        <pt x="373" y="662" on="0"/>
        <pt x="342" y="661" on="1"/>
        <pt x="268" y="263" on="0"/>
        <pt x="243" y="162" on="1"/>
        <pt x="208" y="24" on="0"/>
        <pt x="159" y="-9" on="1"/>
        <pt x="188" y="-11" on="0"/>
        <pt x="341" y="-27" on="0"/>
        <pt x="376" y="-28" on="1"/>
        <pt x="333" y="-71" on="0"/>
        <pt x="263" y="-71" on="1"/>
        <pt x="202" y="-71" on="1"/>
        <pt x="153" y="-71" on="0"/>
        <pt x="118" y="-73" on="0"/>
        <pt x="45" y="-76" on="0"/>
        <pt x="-10" y="-83" on="0"/>
      </contour>
      <contour>
        <pt x="234" y="864" on="1"/>
        <pt x="237" y="895" on="0"/>
        <pt x="256" y="895" on="1"/>
        <pt x="283" y="895" on="0"/>
        <pt x="360" y="795" on="0"/>
        <pt x="360" y="774" on="1"/>
        <pt x="360" y="755" on="0"/>
        <pt x="346" y="748" on="1"/>
        <pt x="308" y="800" on="0"/>
      </contour>
    </TTGlyph>
    <TTGlyph name="J" xMin="-31" yMin="-86" xMax="510" yMax="718">
      <contour>
        <pt x="-31" y="44" on="1"/>
        <pt x="-31" y="107" on="0"/>
        <pt x="12" y="212" on="0"/>
        <pt x="45" y="212" on="1"/>
        <pt x="57" y="212" on="0"/>
        <pt x="73" y="204" on="1"/>
        <pt x="37" y="112" on="0"/>
        <pt x="37" y="44" on="1"/>
        <pt x="37" y="-51" on="0"/>
        <pt x="99" y="-51" on="1"/>
        <pt x="100" y="-51" on="1"/>
        <pt x="127" y="-51" on="0"/>
        <pt x="167" y="-5" on="0"/>
        <pt x="189" y="54" on="1"/>
        <pt x="224" y="151" on="0"/>
        <pt x="315" y="535" on="0"/>
        <pt x="340" y="667" on="1"/>
        <pt x="217" y="666" on="0"/>
        <pt x="138" y="647" on="1"/>
        <pt x="149" y="718" on="0"/>
        <pt x="301" y="718" on="1"/>
        <pt x="399" y="718" on="0"/>
        <pt x="510" y="697" on="1"/>
        <pt x="493" y="668" on="0"/>
        <pt x="433" y="668" on="1"/>
        <pt x="419" y="668" on="0"/>
        <pt x="372" y="667" on="0"/>
        <pt x="362" y="667" on="1"/>
        <pt x="383" y="650" on="0"/>
        <pt x="383" y="620" on="1"/>
        <pt x="383" y="571" on="0"/>
        <pt x="293" y="177" on="0"/>
        <pt x="241" y="61" on="1"/>
        <pt x="204" y="-23" on="0"/>
        <pt x="126" y="-86" on="0"/>
        <pt x="77" y="-86" on="1"/>
        <pt x="-31" y="-86" on="0"/>
      </contour>
    </TTGlyph>
    <TTGlyph name="K" xMin="30" yMin="-87" xMax="605" yMax="720">
      <contour>
        <pt x="30" y="-69" on="1"/>
        <pt x="48" y="-27" on="1"/>
        <pt x="57" y="-5" on="0"/>
        <pt x="70" y="30" on="1"/>
        <pt x="94" y="95" on="1"/>
        <pt x="125" y="187" on="1"/>
        <pt x="163" y="297" on="1"/>
        <pt x="213" y="443" on="1"/>
        <pt x="273" y="619" on="1"/>
        <pt x="286" y="655" on="0"/>
        <pt x="286" y="668" on="1"/>
        <pt x="286" y="692" on="0"/>
        <pt x="262" y="692" on="1"/>
        <pt x="217" y="692" on="0"/>
        <pt x="138" y="559" on="0"/>
        <pt x="138" y="504" on="1"/>
        <pt x="138" y="485" on="0"/>
        <pt x="143" y="470" on="1"/>
        <pt x="83" y="470" on="0"/>
        <pt x="83" y="527" on="1"/>
        <pt x="83" y="592" on="0"/>
        <pt x="224" y="720" on="0"/>
        <pt x="283" y="720" on="1"/>
        <pt x="329" y="720" on="0"/>
        <pt x="329" y="672" on="1"/>
        <pt x="329" y="655" on="0"/>
        <pt x="321" y="629" on="1"/>
        <pt x="237" y="357" on="1"/>
        <pt x="244" y="366" on="0"/>
        <pt x="265" y="387" on="0"/>
        <pt x="273" y="394" on="1"/>
        <pt x="298" y="413" on="1"/>
        <pt x="323" y="433" on="1"/>
        <pt x="398" y="493" on="0"/>
        <pt x="553" y="651" on="0"/>
        <pt x="596" y="720" on="1"/>
        <pt x="605" y="708" on="0"/>
        <pt x="605" y="676" on="1"/>
        <pt x="605" y="567" on="0"/>
        <pt x="241" y="322" on="1"/>
        <pt x="289" y="241" on="1"/>
        <pt x="302" y="219" on="0"/>
        <pt x="366" y="126" on="0"/>
        <pt x="417" y="69" on="0"/>
        <pt x="499" y="-13" on="0"/>
        <pt x="549" y="-54" on="1"/>
        <pt x="532" y="-87" on="0"/>
        <pt x="496" y="-87" on="1"/>
        <pt x="495" y="-87" on="1"/>
        <pt x="446" y="-87" on="0"/>
        <pt x="271" y="170" on="0"/>
        <pt x="216" y="291" on="1"/>
        <pt x="119" y="-23" on="1"/>
        <pt x="114" y="-39" on="0"/>
        <pt x="95" y="-60" on="0"/>
        <pt x="66" y="-67" on="0"/>
        <pt x="47" y="-69" on="0"/>
      </contour>
    </TTGlyph>
    <TTGlyph name="L" xMin="-74" yMin="-87" xMax="566" yMax="720">
      <contour>
        <pt x="-74" y="34" on="1"/>
        <pt x="-74" y="78" on="0"/>
        <pt x="-1" y="78" on="1"/>
        <pt x="43" y="78" on="0"/>
        <pt x="122" y="57" on="1"/>
        <pt x="139" y="86" on="0"/>
        <pt x="175" y="178" on="0"/>
        <pt x="196" y="239" on="0"/>
        <pt x="218" y="309" on="1"/>
        <pt x="247" y="400" on="1"/>
        <pt x="201" y="415" on="0"/>
        <pt x="148" y="473" on="0"/>
        <pt x="148" y="507" on="1"/>
        <pt x="148" y="536" on="0"/>
        <pt x="183" y="586" on="0"/>
        <pt x="210" y="586" on="1"/>
        <pt x="197" y="568" on="0"/>
        <pt x="197" y="524" on="1"/>
        <pt x="197" y="452" on="0"/>
        <pt x="254" y="421" on="1"/>
        <pt x="276" y="488" on="0"/>
        <pt x="316" y="584" on="0"/>
        <pt x="369" y="674" on="0"/>
        <pt x="433" y="720" on="0"/>
        <pt x="469" y="720" on="1"/>
        <pt x="506" y="720" on="0"/>
        <pt x="566" y="672" on="0"/>
        <pt x="566" y="618" on="1"/>
        <pt x="566" y="582" on="0"/>
        <pt x="536" y="504" on="0"/>
        <pt x="480" y="433" on="0"/>
        <pt x="385" y="388" on="0"/>
        <pt x="326" y="388" on="1"/>
        <pt x="310" y="388" on="1"/>
        <pt x="225" y="132" on="0"/>
        <pt x="166" y="44" on="1"/>
        <pt x="175" y="41" on="0"/>
        <pt x="211" y="30" on="1"/>
        <pt x="260" y="15" on="1"/>
        <pt x="272" y="11" on="0"/>
        <pt x="334" y="-5" on="0"/>
        <pt x="368" y="-12" on="0"/>
        <pt x="413" y="-18" on="0"/>
        <pt x="431" y="-18" on="1"/>
        <pt x="471" y="-18" on="0"/>
        <pt x="502" y="-2" on="1"/>
        <pt x="472" y="-87" on="0"/>
        <pt x="397" y="-87" on="1"/>
        <pt x="371" y="-87" on="0"/>
        <pt x="298" y="-66" on="0"/>
        <pt x="255" y="-48" on="0"/>
        <pt x="149" y="1" on="0"/>
        <pt x="137" y="6" on="1"/>
        <pt x="84" y="-53" on="0"/>
        <pt x="26" y="-53" on="1"/>
        <pt x="-19" y="-53" on="0"/>
        <pt x="-74" y="5" on="0"/>
      </contour>
      <contour>
        <pt x="-48" y="14" on="0"/>
        <pt x="-6" y="-24" on="0"/>
        <pt x="22" y="-24" on="1"/>
        <pt x="64" y="-24" on="0"/>
        <pt x="99" y="22" on="1"/>
        <pt x="25" y="52" on="0"/>
        <pt x="-15" y="52" on="1"/>
        <pt x="-48" y="52" on="0"/>
      </contour>
      <contour>
        <pt x="316" y="407" on="1"/>
        <pt x="398" y="408" on="0"/>
        <pt x="512" y="574" on="0"/>
        <pt x="512" y="645" on="1"/>
        <pt x="512" y="695" on="0"/>
        <pt x="476" y="695" on="1"/>
        <pt x="454" y="695" on="0"/>
        <pt x="412" y="653" on="0"/>
        <pt x="370" y="560" on="0"/>
        <pt x="340" y="478" on="0"/>
      </contour>
    </TTGlyph>
    <TTGlyph name="M" xMin="-17" yMin="-87" xMax="743" yMax="720">
      <contour>
        <pt x="-17" y="-87" on="1"/>
        <pt x="300" y="616" on="1"/>
        <pt x="310" y="638" on="0"/>
        <pt x="310" y="657" on="1"/>
        <pt x="310" y="683" on="0"/>
        <pt x="276" y="683" on="1"/>
        <pt x="217" y="683" on="0"/>
        <pt x="152" y="570" on="0"/>
        <pt x="152" y="501" on="1"/>
        <pt x="152" y="488" on="0"/>
        <pt x="154" y="470" on="1"/>
        <pt x="128" y="470" on="0"/>
        <pt x="101" y="522" on="0"/>
        <pt x="101" y="552" on="1"/>
        <pt x="101" y="616" on="0"/>
        <pt x="228" y="720" on="0"/>
        <pt x="296" y="720" on="1"/>
        <pt x="348" y="720" on="0"/>
        <pt x="397" y="625" on="0"/>
        <pt x="397" y="496" on="1"/>
        <pt x="397" y="425" on="0"/>
        <pt x="377" y="140" on="0"/>
        <pt x="376" y="102" on="1"/>
        <pt x="400" y="194" on="0"/>
        <pt x="530" y="456" on="0"/>
        <pt x="626" y="614" on="0"/>
        <pt x="661" y="666" on="1"/>
        <pt x="672" y="682" on="0"/>
        <pt x="683" y="696" on="0"/>
        <pt x="700" y="707" on="0"/>
        <pt x="711" y="707" on="1"/>
        <pt x="725" y="707" on="0"/>
        <pt x="743" y="700" on="1"/>
        <pt x="718" y="640" on="0"/>
        <pt x="698" y="560" on="1"/>
        <pt x="664" y="428" on="0"/>
        <pt x="607" y="85" on="0"/>
        <pt x="607" y="-5" on="1"/>
        <pt x="607" y="-21" on="0"/>
        <pt x="610" y="-44" on="0"/>
        <pt x="612" y="-55" on="0"/>
        <pt x="620" y="-79" on="0"/>
        <pt x="622" y="-87" on="1"/>
        <pt x="572" y="-87" on="0"/>
        <pt x="540" y="-39" on="0"/>
        <pt x="540" y="25" on="1"/>
        <pt x="540" y="100" on="0"/>
        <pt x="572" y="296" on="0"/>
        <pt x="589" y="367" on="1"/>
        <pt x="640" y="564" on="1"/>
        <pt x="576" y="482" on="0"/>
        <pt x="412" y="121" on="0"/>
        <pt x="372" y="3" on="1"/>
        <pt x="361" y="-1" on="0"/>
        <pt x="357" y="-1" on="1"/>
        <pt x="332" y="-1" on="0"/>
        <pt x="313" y="58" on="0"/>
        <pt x="313" y="121" on="1"/>
        <pt x="313" y="176" on="0"/>
        <pt x="329" y="494" on="0"/>
        <pt x="329" y="546" on="1"/>
        <pt x="329" y="574" on="0"/>
        <pt x="327" y="602" on="1"/>
        <pt x="261" y="448" on="1"/>
        <pt x="206" y="314" on="1"/>
        <pt x="160" y="203" on="1"/>
        <pt x="120" y="110" on="1"/>
        <pt x="86" y="37" on="1"/>
        <pt x="68" y="1" on="0"/>
        <pt x="45" y="-40" on="0"/>
        <pt x="18" y="-74" on="0"/>
        <pt x="-5" y="-87" on="0"/>
      </contour>
    </TTGlyph>
    <TTGlyph name="M.salt" xMin="-103" yMin="-103" xMax="913" yMax="720">
      <contour>
        <pt x="-103" y="-31" on="1"/>
        <pt x="-103" y="-9" on="0"/>
        <pt x="-92" y="5" on="1"/>
        <pt x="-59" y="-46" on="0"/>
        <pt x="0" y="-46" on="1"/>
        <pt x="52" y="-46" on="0"/>
        <pt x="137" y="24" on="0"/>
        <pt x="179" y="85" on="1"/>
        <pt x="249" y="187" on="0"/>
        <pt x="378" y="481" on="0"/>
        <pt x="378" y="570" on="1"/>
        <pt x="378" y="625" on="0"/>
        <pt x="326" y="698" on="0"/>
        <pt x="289" y="698" on="1"/>
        <pt x="249" y="698" on="0"/>
        <pt x="205" y="611" on="0"/>
        <pt x="205" y="556" on="1"/>
        <pt x="205" y="514" on="0"/>
        <pt x="218" y="491" on="1"/>
        <pt x="152" y="514" on="0"/>
        <pt x="152" y="584" on="1"/>
        <pt x="152" y="636" on="0"/>
        <pt x="229" y="720" on="0"/>
        <pt x="290" y="720" on="1"/>
        <pt x="373" y="720" on="0"/>
        <pt x="461" y="545" on="0"/>
        <pt x="461" y="381" on="1"/>
        <pt x="461" y="233" on="0"/>
        <pt x="446" y="141" on="1"/>
        <pt x="485" y="223" on="0"/>
        <pt x="632" y="462" on="0"/>
        <pt x="802" y="670" on="0"/>
        <pt x="843" y="670" on="1"/>
        <pt x="855" y="670" on="0"/>
        <pt x="871" y="653" on="0"/>
        <pt x="873" y="641" on="1"/>
        <pt x="798" y="572" on="0"/>
        <pt x="642" y="203" on="0"/>
        <pt x="642" y="60" on="1"/>
        <pt x="642" y="-41" on="0"/>
        <pt x="697" y="-41" on="1"/>
        <pt x="744" y="-41" on="0"/>
        <pt x="863" y="72" on="0"/>
        <pt x="902" y="162" on="1"/>
        <pt x="913" y="152" on="1"/>
        <pt x="873" y="55" on="0"/>
        <pt x="745" y="-68" on="0"/>
        <pt x="687" y="-68" on="1"/>
        <pt x="640" y="-68" on="0"/>
        <pt x="574" y="16" on="0"/>
        <pt x="574" y="91" on="1"/>
        <pt x="574" y="170" on="0"/>
        <pt x="644" y="388" on="0"/>
        <pt x="689" y="485" on="1"/>
        <pt x="562" y="301" on="0"/>
        <pt x="479" y="149" on="0"/>
        <pt x="428" y="19" on="1"/>
        <pt x="425" y="10" on="0"/>
        <pt x="410" y="-13" on="0"/>
        <pt x="404" y="-13" on="0"/>
        <pt x="392" y="-5" on="0"/>
        <pt x="379" y="18" on="0"/>
        <pt x="379" y="35" on="1"/>
        <pt x="379" y="37" on="0"/>
        <pt x="403" y="249" on="0"/>
        <pt x="403" y="346" on="1"/>
        <pt x="403" y="425" on="0"/>
        <pt x="395" y="489" on="1"/>
        <pt x="385" y="447" on="0"/>
        <pt x="334" y="312" on="0"/>
        <pt x="250" y="142" on="0"/>
        <pt x="155" y="-3" on="0"/>
        <pt x="36" y="-103" on="0"/>
        <pt x="-19" y="-103" on="1"/>
        <pt x="-57" y="-103" on="0"/>
        <pt x="-103" y="-61" on="0"/>
      </contour>
    </TTGlyph>
    <TTGlyph name="N" xMin="46" yMin="-87" xMax="663" yMax="720">
      <contour>
        <pt x="46" y="-87" on="1"/>
        <pt x="60" y="-33" on="0"/>
        <pt x="86" y="52" on="1"/>
        <pt x="160" y="294" on="1"/>
        <pt x="258" y="619" on="1"/>
        <pt x="265" y="644" on="0"/>
        <pt x="265" y="660" on="1"/>
        <pt x="265" y="683" on="0"/>
        <pt x="250" y="683" on="1"/>
        <pt x="205" y="683" on="0"/>
        <pt x="134" y="560" on="0"/>
        <pt x="134" y="505" on="1"/>
        <pt x="134" y="485" on="0"/>
        <pt x="139" y="470" on="1"/>
        <pt x="79" y="470" on="0"/>
        <pt x="79" y="527" on="1"/>
        <pt x="79" y="593" on="0"/>
        <pt x="218" y="720" on="0"/>
        <pt x="279" y="720" on="1"/>
        <pt x="298" y="720" on="0"/>
        <pt x="329" y="698" on="0"/>
        <pt x="352" y="649" on="0"/>
        <pt x="368" y="602" on="0"/>
        <pt x="382" y="517" on="0"/>
        <pt x="389" y="460" on="0"/>
        <pt x="395" y="408" on="1"/>
        <pt x="416" y="221" on="0"/>
        <pt x="439" y="72" on="1"/>
        <pt x="457" y="194" on="0"/>
        <pt x="581" y="626" on="0"/>
        <pt x="600" y="671" on="1"/>
        <pt x="607" y="687" on="0"/>
        <pt x="643" y="720" on="0"/>
        <pt x="663" y="720" on="1"/>
        <pt x="605" y="566" on="0"/>
        <pt x="465" y="22" on="0"/>
        <pt x="464" y="-87" on="1"/>
        <pt x="432" y="-87" on="0"/>
        <pt x="394" y="-50" on="0"/>
        <pt x="386" y="-6" on="1"/>
        <pt x="359" y="136" on="0"/>
        <pt x="295" y="589" on="1"/>
        <pt x="161" y="108" on="0"/>
        <pt x="126" y="17" on="1"/>
        <pt x="93" y="-74" on="0"/>
        <pt x="61" y="-85" on="1"/>
        <pt x="54" y="-87" on="0"/>
      </contour>
    </TTGlyph>
    <TTGlyph name="Ntilde" xMin="46" yMin="-87" xMax="663" yMax="805">
      <contour>
        <pt x="46" y="-87" on="1"/>
        <pt x="60" y="-33" on="0"/>
        <pt x="86" y="52" on="1"/>
        <pt x="160" y="294" on="1"/>
        <pt x="258" y="619" on="1"/>
        <pt x="265" y="644" on="0"/>
        <pt x="265" y="660" on="1"/>
        <pt x="265" y="683" on="0"/>
        <pt x="250" y="683" on="1"/>
        <pt x="205" y="683" on="0"/>
        <pt x="134" y="560" on="0"/>
        <pt x="134" y="505" on="1"/>
        <pt x="134" y="485" on="0"/>
        <pt x="139" y="470" on="1"/>
        <pt x="79" y="470" on="0"/>
        <pt x="79" y="527" on="1"/>
        <pt x="79" y="593" on="0"/>
        <pt x="218" y="720" on="0"/>
        <pt x="279" y="720" on="1"/>
        <pt x="298" y="720" on="0"/>
        <pt x="329" y="698" on="0"/>
        <pt x="352" y="649" on="0"/>
        <pt x="368" y="602" on="0"/>
        <pt x="382" y="517" on="0"/>
        <pt x="389" y="460" on="0"/>
        <pt x="395" y="408" on="1"/>
        <pt x="416" y="221" on="0"/>
        <pt x="439" y="72" on="1"/>
        <pt x="457" y="194" on="0"/>
        <pt x="581" y="626" on="0"/>
        <pt x="600" y="671" on="1"/>
        <pt x="607" y="687" on="0"/>
        <pt x="643" y="720" on="0"/>
        <pt x="663" y="720" on="1"/>
        <pt x="605" y="566" on="0"/>
        <pt x="465" y="22" on="0"/>
        <pt x="464" y="-87" on="1"/>
        <pt x="432" y="-87" on="0"/>
        <pt x="394" y="-50" on="0"/>
        <pt x="386" y="-6" on="1"/>
        <pt x="359" y="136" on="0"/>
        <pt x="295" y="589" on="1"/>
        <pt x="161" y="108" on="0"/>
        <pt x="126" y="17" on="1"/>
        <pt x="93" y="-74" on="0"/>
        <pt x="61" y="-85" on="1"/>
        <pt x="54" y="-87" on="0"/>
      </contour>
      <contour>
        <pt x="310" y="759" on="1"/>
        <pt x="345" y="805" on="0"/>
        <pt x="393" y="805" on="1"/>
        <pt x="419" y="805" on="0"/>
        <pt x="548" y="761" on="0"/>
        <pt x="587" y="761" on="1"/>
        <pt x="602" y="761" on="0"/>
        <pt x="617" y="764" on="1"/>
        <pt x="585" y="728" on="0"/>
        <pt x="539" y="728" on="1"/>
        <pt x="511" y="728" on="0"/>
        <pt x="388" y="767" on="0"/>
        <pt x="356" y="767" on="1"/>
        <pt x="330" y="767" on="0"/>
      </contour>
    </TTGlyph>
    <TTGlyph name="O" xMin="21" yMin="-87" xMax="602" yMax="719">
      <contour>
        <pt x="21" y="161" on="1"/>
        <pt x="21" y="255" on="0"/>
        <pt x="97" y="458" on="0"/>
        <pt x="215" y="616" on="0"/>
        <pt x="365" y="719" on="0"/>
        <pt x="435" y="719" on="1"/>
        <pt x="472" y="719" on="0"/>
        <pt x="495" y="707" on="1"/>
        <pt x="484" y="707" on="1"/>
        <pt x="422" y="707" on="0"/>
        <pt x="285" y="600" on="0"/>
        <pt x="179" y="437" on="0"/>
        <pt x="109" y="236" on="0"/>
        <pt x="109" y="147" on="1"/>
        <pt x="109" y="60" on="0"/>
        <pt x="176" y="-53" on="0"/>
        <pt x="243" y="-53" on="1"/>
        <pt x="332" y="-53" on="0"/>
        <pt x="484" y="129" on="0"/>
        <pt x="564" y="384" on="0"/>
        <pt x="564" y="505" on="1"/>
        <pt x="564" y="556" on="0"/>
        <pt x="542" y="643" on="0"/>
        <pt x="519" y="643" on="1"/>
        <pt x="485" y="643" on="0"/>
        <pt x="398" y="493" on="0"/>
        <pt x="384" y="429" on="1"/>
        <pt x="336" y="440" on="0"/>
        <pt x="336" y="478" on="1"/>
        <pt x="336" y="531" on="0"/>
        <pt x="467" y="670" on="0"/>
        <pt x="517" y="670" on="1"/>
        <pt x="541" y="670" on="0"/>
        <pt x="577" y="633" on="0"/>
        <pt x="594" y="571" on="0"/>
        <pt x="602" y="510" on="0"/>
        <pt x="602" y="477" on="1"/>
        <pt x="602" y="347" on="0"/>
        <pt x="526" y="126" on="0"/>
        <pt x="409" y="-11" on="0"/>
        <pt x="275" y="-87" on="0"/>
        <pt x="213" y="-87" on="1"/>
        <pt x="127" y="-87" on="0"/>
        <pt x="21" y="49" on="0"/>
      </contour>
    </TTGlyph>
    <TTGlyph name="OE" xMin="21" yMin="-88" xMax="827" yMax="719">
      <contour>
        <pt x="21" y="161" on="1"/>
        <pt x="21" y="255" on="0"/>
        <pt x="97" y="458" on="0"/>
        <pt x="215" y="616" on="0"/>
        <pt x="365" y="719" on="0"/>
        <pt x="435" y="719" on="1"/>
        <pt x="472" y="719" on="0"/>
        <pt x="495" y="707" on="1"/>
        <pt x="484" y="707" on="1"/>
        <pt x="422" y="707" on="0"/>
        <pt x="285" y="600" on="0"/>
        <pt x="179" y="437" on="0"/>
        <pt x="109" y="236" on="0"/>
        <pt x="109" y="147" on="1"/>
        <pt x="109" y="60" on="0"/>
        <pt x="176" y="-53" on="0"/>
        <pt x="243" y="-53" on="1"/>
        <pt x="320" y="-53" on="0"/>
        <pt x="457" y="128" on="0"/>
        <pt x="533" y="385" on="0"/>
        <pt x="533" y="505" on="1"/>
        <pt x="533" y="632" on="0"/>
        <pt x="503" y="632" on="1"/>
        <pt x="466" y="632" on="0"/>
        <pt x="384" y="429" on="1"/>
        <pt x="336" y="440" on="0"/>
        <pt x="336" y="478" on="1"/>
        <pt x="336" y="531" on="0"/>
        <pt x="468" y="670" on="0"/>
        <pt x="519" y="670" on="1"/>
        <pt x="585" y="674" on="0"/>
        <pt x="633" y="674" on="1"/>
        <pt x="776" y="674" on="0"/>
        <pt x="827" y="657" on="1"/>
        <pt x="814" y="621" on="0"/>
        <pt x="657" y="621" on="1"/>
        <pt x="640" y="621" on="0"/>
        <pt x="590" y="624" on="0"/>
        <pt x="577" y="624" on="1"/>
        <pt x="588" y="591" on="0"/>
        <pt x="588" y="546" on="1"/>
        <pt x="588" y="448" on="0"/>
        <pt x="575" y="365" on="1"/>
        <pt x="711" y="365" on="0"/>
        <pt x="778" y="355" on="1"/>
        <pt x="760" y="306" on="0"/>
        <pt x="639" y="306" on="1"/>
        <pt x="603" y="306" on="0"/>
        <pt x="565" y="308" on="1"/>
        <pt x="531" y="153" on="0"/>
        <pt x="467" y="-1" on="0"/>
        <pt x="401" y="-42" on="1"/>
        <pt x="453" y="-44" on="0"/>
        <pt x="568" y="-44" on="1"/>
        <pt x="580" y="-44" on="0"/>
        <pt x="670" y="-40" on="0"/>
        <pt x="687" y="-40" on="1"/>
        <pt x="703" y="-40" on="0"/>
        <pt x="707" y="-41" on="1"/>
        <pt x="698" y="-64" on="0"/>
        <pt x="517" y="-88" on="0"/>
        <pt x="409" y="-88" on="1"/>
        <pt x="382" y="-88" on="0"/>
        <pt x="265" y="-87" on="0"/>
        <pt x="236" y="-87" on="1"/>
        <pt x="137" y="-87" on="0"/>
        <pt x="21" y="38" on="0"/>
      </contour>
    </TTGlyph>
    <TTGlyph name="Oacute" xMin="21" yMin="-87" xMax="690" yMax="895">
      <contour>
        <pt x="21" y="161" on="1"/>
        <pt x="21" y="255" on="0"/>
        <pt x="97" y="458" on="0"/>
        <pt x="215" y="616" on="0"/>
        <pt x="365" y="719" on="0"/>
        <pt x="435" y="719" on="1"/>
        <pt x="472" y="719" on="0"/>
        <pt x="495" y="707" on="1"/>
        <pt x="484" y="707" on="1"/>
        <pt x="422" y="707" on="0"/>
        <pt x="285" y="600" on="0"/>
        <pt x="179" y="437" on="0"/>
        <pt x="109" y="236" on="0"/>
        <pt x="109" y="147" on="1"/>
        <pt x="109" y="60" on="0"/>
        <pt x="176" y="-53" on="0"/>
        <pt x="243" y="-53" on="1"/>
        <pt x="332" y="-53" on="0"/>
        <pt x="484" y="129" on="0"/>
        <pt x="564" y="384" on="0"/>
        <pt x="564" y="505" on="1"/>
        <pt x="564" y="556" on="0"/>
        <pt x="542" y="643" on="0"/>
        <pt x="519" y="643" on="1"/>
        <pt x="485" y="643" on="0"/>
        <pt x="398" y="493" on="0"/>
        <pt x="384" y="429" on="1"/>
        <pt x="336" y="440" on="0"/>
        <pt x="336" y="478" on="1"/>
        <pt x="336" y="531" on="0"/>
        <pt x="467" y="670" on="0"/>
        <pt x="517" y="670" on="1"/>
        <pt x="541" y="670" on="0"/>
        <pt x="577" y="633" on="0"/>
        <pt x="594" y="571" on="0"/>
        <pt x="602" y="510" on="0"/>
        <pt x="602" y="477" on="1"/>
        <pt x="602" y="347" on="0"/>
        <pt x="526" y="126" on="0"/>
        <pt x="409" y="-11" on="0"/>
        <pt x="275" y="-87" on="0"/>
        <pt x="213" y="-87" on="1"/>
        <pt x="127" y="-87" on="0"/>
        <pt x="21" y="49" on="0"/>
      </contour>
      <contour>
        <pt x="564" y="774" on="1"/>
        <pt x="564" y="795" on="0"/>
        <pt x="641" y="895" on="0"/>
        <pt x="668" y="895" on="1"/>
        <pt x="687" y="895" on="0"/>
        <pt x="690" y="864" on="1"/>
        <pt x="616" y="800" on="0"/>
        <pt x="578" y="748" on="1"/>
        <pt x="564" y="755" on="0"/>
      </contour>
    </TTGlyph>
    <TTGlyph name="Ocircumflex" xMin="21" yMin="-87" xMax="621" yMax="886">
      <contour>
        <pt x="21" y="161" on="1"/>
        <pt x="21" y="255" on="0"/>
        <pt x="97" y="458" on="0"/>
        <pt x="215" y="616" on="0"/>
        <pt x="365" y="719" on="0"/>
        <pt x="435" y="719" on="1"/>
        <pt x="472" y="719" on="0"/>
        <pt x="495" y="707" on="1"/>
        <pt x="484" y="707" on="1"/>
        <pt x="422" y="707" on="0"/>
        <pt x="285" y="600" on="0"/>
        <pt x="179" y="437" on="0"/>
        <pt x="109" y="236" on="0"/>
        <pt x="109" y="147" on="1"/>
        <pt x="109" y="60" on="0"/>
        <pt x="176" y="-53" on="0"/>
        <pt x="243" y="-53" on="1"/>
        <pt x="332" y="-53" on="0"/>
        <pt x="484" y="129" on="0"/>
        <pt x="564" y="384" on="0"/>
        <pt x="564" y="505" on="1"/>
        <pt x="564" y="556" on="0"/>
        <pt x="542" y="643" on="0"/>
        <pt x="519" y="643" on="1"/>
        <pt x="485" y="643" on="0"/>
        <pt x="398" y="493" on="0"/>
        <pt x="384" y="429" on="1"/>
        <pt x="336" y="440" on="0"/>
        <pt x="336" y="478" on="1"/>
        <pt x="336" y="531" on="0"/>
        <pt x="467" y="670" on="0"/>
        <pt x="517" y="670" on="1"/>
        <pt x="541" y="670" on="0"/>
        <pt x="577" y="633" on="0"/>
        <pt x="594" y="571" on="0"/>
        <pt x="602" y="510" on="0"/>
        <pt x="602" y="477" on="1"/>
        <pt x="602" y="347" on="0"/>
        <pt x="526" y="126" on="0"/>
        <pt x="409" y="-11" on="0"/>
        <pt x="275" y="-87" on="0"/>
        <pt x="213" y="-87" on="1"/>
        <pt x="127" y="-87" on="0"/>
        <pt x="21" y="49" on="0"/>
      </contour>
      <contour>
        <pt x="417" y="798" on="1"/>
        <pt x="417" y="825" on="0"/>
        <pt x="507" y="886" on="0"/>
        <pt x="555" y="886" on="0"/>
        <pt x="621" y="807" on="0"/>
        <pt x="621" y="775" on="1"/>
        <pt x="621" y="752" on="0"/>
        <pt x="604" y="744" on="1"/>
        <pt x="583" y="787" on="0"/>
        <pt x="530" y="836" on="1"/>
        <pt x="463" y="812" on="0"/>
        <pt x="427" y="779" on="1"/>
        <pt x="417" y="785" on="0"/>
      </contour>
    </TTGlyph>
    <TTGlyph name="Odieresis" xMin="21" yMin="-87" xMax="630" yMax="851">
      <contour>
        <pt x="21" y="161" on="1"/>
        <pt x="21" y="255" on="0"/>
        <pt x="97" y="458" on="0"/>
        <pt x="215" y="616" on="0"/>
        <pt x="365" y="719" on="0"/>
        <pt x="435" y="719" on="1"/>
        <pt x="472" y="719" on="0"/>
        <pt x="495" y="707" on="1"/>
        <pt x="484" y="707" on="1"/>
        <pt x="422" y="707" on="0"/>
        <pt x="285" y="600" on="0"/>
        <pt x="179" y="437" on="0"/>
        <pt x="109" y="236" on="0"/>
        <pt x="109" y="147" on="1"/>
        <pt x="109" y="60" on="0"/>
        <pt x="176" y="-53" on="0"/>
        <pt x="243" y="-53" on="1"/>
        <pt x="332" y="-53" on="0"/>
        <pt x="484" y="129" on="0"/>
        <pt x="564" y="384" on="0"/>
        <pt x="564" y="505" on="1"/>
        <pt x="564" y="556" on="0"/>
        <pt x="542" y="643" on="0"/>
        <pt x="519" y="643" on="1"/>
        <pt x="485" y="643" on="0"/>
        <pt x="398" y="493" on="0"/>
        <pt x="384" y="429" on="1"/>
        <pt x="336" y="440" on="0"/>
        <pt x="336" y="478" on="1"/>
        <pt x="336" y="531" on="0"/>
        <pt x="467" y="670" on="0"/>
        <pt x="517" y="670" on="1"/>
        <pt x="541" y="670" on="0"/>
        <pt x="577" y="633" on="0"/>
        <pt x="594" y="571" on="0"/>
        <pt x="602" y="510" on="0"/>
        <pt x="602" y="477" on="1"/>
        <pt x="602" y="347" on="0"/>
        <pt x="526" y="126" on="0"/>
        <pt x="409" y="-11" on="0"/>
        <pt x="275" y="-87" on="0"/>
        <pt x="213" y="-87" on="1"/>
        <pt x="127" y="-87" on="0"/>
        <pt x="21" y="49" on="0"/>
      </contour>
      <contour>
        <pt x="390" y="804" on="1"/>
        <pt x="390" y="822" on="0"/>
        <pt x="433" y="851" on="0"/>
        <pt x="456" y="851" on="1"/>
        <pt x="486" y="851" on="0"/>
        <pt x="486" y="823" on="1"/>
        <pt x="486" y="806" on="0"/>
        <pt x="449" y="774" on="0"/>
        <pt x="427" y="774" on="1"/>
        <pt x="390" y="774" on="0"/>
      </contour>
      <contour>
        <pt x="534" y="783" on="1"/>
        <pt x="534" y="801" on="0"/>
        <pt x="577" y="830" on="0"/>
        <pt x="600" y="830" on="1"/>
        <pt x="630" y="830" on="0"/>
        <pt x="630" y="802" on="1"/>
        <pt x="630" y="785" on="0"/>
        <pt x="593" y="753" on="0"/>
        <pt x="571" y="753" on="1"/>
        <pt x="534" y="753" on="0"/>
      </contour>
    </TTGlyph>
    <TTGlyph name="Ograve" xMin="21" yMin="-87" xMax="602" yMax="895">
      <contour>
        <pt x="21" y="161" on="1"/>
        <pt x="21" y="255" on="0"/>
        <pt x="97" y="458" on="0"/>
        <pt x="215" y="616" on="0"/>
        <pt x="365" y="719" on="0"/>
        <pt x="435" y="719" on="1"/>
        <pt x="472" y="719" on="0"/>
        <pt x="495" y="707" on="1"/>
        <pt x="484" y="707" on="1"/>
        <pt x="422" y="707" on="0"/>
        <pt x="285" y="600" on="0"/>
        <pt x="179" y="437" on="0"/>
        <pt x="109" y="236" on="0"/>
        <pt x="109" y="147" on="1"/>
        <pt x="109" y="60" on="0"/>
        <pt x="176" y="-53" on="0"/>
        <pt x="243" y="-53" on="1"/>
        <pt x="332" y="-53" on="0"/>
        <pt x="484" y="129" on="0"/>
        <pt x="564" y="384" on="0"/>
        <pt x="564" y="505" on="1"/>
        <pt x="564" y="556" on="0"/>
        <pt x="542" y="643" on="0"/>
        <pt x="519" y="643" on="1"/>
        <pt x="485" y="643" on="0"/>
        <pt x="398" y="493" on="0"/>
        <pt x="384" y="429" on="1"/>
        <pt x="336" y="440" on="0"/>
        <pt x="336" y="478" on="1"/>
        <pt x="336" y="531" on="0"/>
        <pt x="467" y="670" on="0"/>
        <pt x="517" y="670" on="1"/>
        <pt x="541" y="670" on="0"/>
        <pt x="577" y="633" on="0"/>
        <pt x="594" y="571" on="0"/>
        <pt x="602" y="510" on="0"/>
        <pt x="602" y="477" on="1"/>
        <pt x="602" y="347" on="0"/>
        <pt x="526" y="126" on="0"/>
        <pt x="409" y="-11" on="0"/>
        <pt x="275" y="-87" on="0"/>
        <pt x="213" y="-87" on="1"/>
        <pt x="127" y="-87" on="0"/>
        <pt x="21" y="49" on="0"/>
      </contour>
      <contour>
        <pt x="437" y="864" on="1"/>
        <pt x="440" y="895" on="0"/>
        <pt x="459" y="895" on="1"/>
        <pt x="486" y="895" on="0"/>
        <pt x="563" y="795" on="0"/>
        <pt x="563" y="774" on="1"/>
        <pt x="563" y="755" on="0"/>
        <pt x="549" y="748" on="1"/>
        <pt x="511" y="800" on="0"/>
      </contour>
    </TTGlyph>
    <TTGlyph name="Oslash" xMin="21" yMin="-101" xMax="664" yMax="719">
      <contour>
        <pt x="21" y="161" on="1"/>
        <pt x="21" y="255" on="0"/>
        <pt x="97" y="458" on="0"/>
        <pt x="215" y="616" on="0"/>
        <pt x="365" y="719" on="0"/>
        <pt x="435" y="719" on="1"/>
        <pt x="472" y="719" on="0"/>
        <pt x="495" y="707" on="1"/>
        <pt x="484" y="707" on="1"/>
        <pt x="422" y="707" on="0"/>
        <pt x="285" y="600" on="0"/>
        <pt x="179" y="437" on="0"/>
        <pt x="109" y="236" on="0"/>
        <pt x="109" y="147" on="1"/>
        <pt x="109" y="62" on="0"/>
        <pt x="137" y="12" on="1"/>
        <pt x="269" y="176" on="0"/>
        <pt x="550" y="608" on="1"/>
        <pt x="538" y="643" on="0"/>
        <pt x="519" y="643" on="1"/>
        <pt x="485" y="643" on="0"/>
        <pt x="398" y="493" on="0"/>
        <pt x="384" y="429" on="1"/>
        <pt x="336" y="440" on="0"/>
        <pt x="336" y="478" on="1"/>
        <pt x="336" y="531" on="0"/>
        <pt x="467" y="670" on="0"/>
        <pt x="517" y="670" on="1"/>
        <pt x="549" y="670" on="0"/>
        <pt x="569" y="638" on="1"/>
        <pt x="573" y="643" on="1"/>
        <pt x="580" y="654" on="0"/>
        <pt x="626" y="671" on="0"/>
        <pt x="648" y="671" on="1"/>
        <pt x="659" y="671" on="0"/>
        <pt x="664" y="670" on="1"/>
        <pt x="594" y="566" on="1"/>
        <pt x="602" y="526" on="0"/>
        <pt x="602" y="477" on="1"/>
        <pt x="602" y="347" on="0"/>
        <pt x="526" y="126" on="0"/>
        <pt x="409" y="-11" on="0"/>
        <pt x="275" y="-87" on="0"/>
        <pt x="213" y="-87" on="1"/>
        <pt x="170" y="-87" on="0"/>
        <pt x="132" y="-68" on="1"/>
        <pt x="86" y="-101" on="0"/>
        <pt x="46" y="-101" on="1"/>
        <pt x="40" y="-101" on="0"/>
        <pt x="30" y="-99" on="1"/>
        <pt x="52" y="-84" on="0"/>
        <pt x="92" y="-39" on="1"/>
        <pt x="21" y="27" on="0"/>
      </contour>
      <contour>
        <pt x="174" y="-32" on="1"/>
        <pt x="205" y="-53" on="0"/>
        <pt x="243" y="-53" on="1"/>
        <pt x="332" y="-53" on="0"/>
        <pt x="484" y="129" on="0"/>
        <pt x="564" y="384" on="0"/>
        <pt x="564" y="505" on="1"/>
        <pt x="564" y="521" on="1"/>
        <pt x="239" y="46" on="1"/>
        <pt x="204" y="-3" on="0"/>
      </contour>
    </TTGlyph>
    <TTGlyph name="Otilde" xMin="21" yMin="-87" xMax="683" yMax="805">
      <contour>
        <pt x="21" y="161" on="1"/>
        <pt x="21" y="255" on="0"/>
        <pt x="97" y="458" on="0"/>
        <pt x="215" y="616" on="0"/>
        <pt x="365" y="719" on="0"/>
        <pt x="435" y="719" on="1"/>
        <pt x="472" y="719" on="0"/>
        <pt x="495" y="707" on="1"/>
        <pt x="484" y="707" on="1"/>
        <pt x="422" y="707" on="0"/>
        <pt x="285" y="600" on="0"/>
        <pt x="179" y="437" on="0"/>
        <pt x="109" y="236" on="0"/>
        <pt x="109" y="147" on="1"/>
        <pt x="109" y="60" on="0"/>
        <pt x="176" y="-53" on="0"/>
        <pt x="243" y="-53" on="1"/>
        <pt x="332" y="-53" on="0"/>
        <pt x="484" y="129" on="0"/>
        <pt x="564" y="384" on="0"/>
        <pt x="564" y="505" on="1"/>
        <pt x="564" y="556" on="0"/>
        <pt x="542" y="643" on="0"/>
        <pt x="519" y="643" on="1"/>
        <pt x="485" y="643" on="0"/>
        <pt x="398" y="493" on="0"/>
        <pt x="384" y="429" on="1"/>
        <pt x="336" y="440" on="0"/>
        <pt x="336" y="478" on="1"/>
        <pt x="336" y="531" on="0"/>
        <pt x="467" y="670" on="0"/>
        <pt x="517" y="670" on="1"/>
        <pt x="541" y="670" on="0"/>
        <pt x="577" y="633" on="0"/>
        <pt x="594" y="571" on="0"/>
        <pt x="602" y="510" on="0"/>
        <pt x="602" y="477" on="1"/>
        <pt x="602" y="347" on="0"/>
        <pt x="526" y="126" on="0"/>
        <pt x="409" y="-11" on="0"/>
        <pt x="275" y="-87" on="0"/>
        <pt x="213" y="-87" on="1"/>
        <pt x="127" y="-87" on="0"/>
        <pt x="21" y="49" on="0"/>
      </contour>
      <contour>
        <pt x="376" y="759" on="1"/>
        <pt x="411" y="805" on="0"/>
        <pt x="459" y="805" on="1"/>
        <pt x="485" y="805" on="0"/>
        <pt x="614" y="761" on="0"/>
        <pt x="653" y="761" on="1"/>
        <pt x="668" y="761" on="0"/>
        <pt x="683" y="764" on="1"/>
        <pt x="651" y="728" on="0"/>
        <pt x="605" y="728" on="1"/>
        <pt x="577" y="728" on="0"/>
        <pt x="454" y="767" on="0"/>
        <pt x="422" y="767" on="1"/>
        <pt x="396" y="767" on="0"/>
      </contour>
    </TTGlyph>
    <TTGlyph name="P" xMin="18" yMin="-87" xMax="586" yMax="720">
      <contour>
        <pt x="18" y="-37" on="1"/>
        <pt x="18" y="-22" on="0"/>
        <pt x="32" y="18" on="1"/>
        <pt x="112" y="264" on="1"/>
        <pt x="141" y="350" on="0"/>
        <pt x="229" y="582" on="0"/>
        <pt x="278" y="693" on="1"/>
        <pt x="244" y="686" on="0"/>
        <pt x="180" y="659" on="0"/>
        <pt x="143" y="638" on="0"/>
        <pt x="139" y="638" on="1"/>
        <pt x="132" y="638" on="0"/>
        <pt x="108" y="658" on="0"/>
        <pt x="108" y="665" on="1"/>
        <pt x="236" y="720" on="0"/>
        <pt x="329" y="720" on="1"/>
        <pt x="391" y="720" on="0"/>
        <pt x="505" y="679" on="0"/>
        <pt x="586" y="588" on="0"/>
        <pt x="586" y="527" on="1"/>
        <pt x="586" y="468" on="0"/>
        <pt x="518" y="378" on="0"/>
        <pt x="425" y="332" on="0"/>
        <pt x="308" y="303" on="0"/>
        <pt x="233" y="296" on="0"/>
        <pt x="205" y="296" on="1"/>
        <pt x="195" y="296" on="1"/>
        <pt x="87" y="-87" on="1"/>
        <pt x="60" y="-87" on="0"/>
        <pt x="18" y="-58" on="0"/>
      </contour>
      <contour>
        <pt x="199" y="312" on="1"/>
        <pt x="257" y="315" on="0"/>
        <pt x="366" y="346" on="0"/>
        <pt x="461" y="400" on="0"/>
        <pt x="519" y="489" on="0"/>
        <pt x="519" y="544" on="1"/>
        <pt x="519" y="620" on="0"/>
        <pt x="415" y="698" on="0"/>
        <pt x="338" y="699" on="1"/>
        <pt x="277" y="578" on="0"/>
      </contour>
    </TTGlyph>
    <TTGlyph name="Q" xMin="35" yMin="-119" xMax="634" yMax="720">
      <contour>
        <pt x="35" y="323" on="0"/>
        <pt x="141" y="563" on="0"/>
        <pt x="326" y="720" on="0"/>
        <pt x="431" y="720" on="1"/>
        <pt x="526" y="720" on="0"/>
        <pt x="634" y="590" on="0"/>
        <pt x="634" y="477" on="1"/>
        <pt x="634" y="350" on="0"/>
        <pt x="505" y="71" on="0"/>
        <pt x="408" y="-4" on="1"/>
        <pt x="491" y="-50" on="0"/>
        <pt x="556" y="-50" on="1"/>
        <pt x="574" y="-50" on="0"/>
        <pt x="614" y="-38" on="1"/>
        <pt x="590" y="-119" on="0"/>
        <pt x="516" y="-119" on="1"/>
        <pt x="487" y="-119" on="0"/>
        <pt x="426" y="-92" on="0"/>
        <pt x="387" y="-63" on="0"/>
        <pt x="356" y="-37" on="1"/>
        <pt x="304" y="-63" on="0"/>
        <pt x="256" y="-63" on="1"/>
        <pt x="224" y="-63" on="0"/>
        <pt x="177" y="-42" on="0"/>
        <pt x="155" y="-11" on="0"/>
        <pt x="146" y="15" on="0"/>
        <pt x="146" y="25" on="1"/>
        <pt x="146" y="45" on="0"/>
        <pt x="183" y="77" on="0"/>
        <pt x="219" y="77" on="1"/>
        <pt x="245" y="77" on="0"/>
        <pt x="304" y="56" on="0"/>
        <pt x="342" y="35" on="0"/>
        <pt x="378" y="13" on="1"/>
        <pt x="461" y="88" on="0"/>
        <pt x="564" y="390" on="0"/>
        <pt x="564" y="509" on="1"/>
        <pt x="564" y="595" on="0"/>
        <pt x="499" y="693" on="0"/>
        <pt x="432" y="693" on="1"/>
        <pt x="363" y="693" on="0"/>
        <pt x="237" y="586" on="0"/>
        <pt x="153" y="423" on="0"/>
        <pt x="104" y="231" on="0"/>
        <pt x="104" y="144" on="1"/>
        <pt x="104" y="97" on="0"/>
        <pt x="112" y="60" on="1"/>
        <pt x="35" y="60" on="0"/>
        <pt x="35" y="197" on="1"/>
      </contour>
      <contour>
        <pt x="172" y="24" on="1"/>
        <pt x="172" y="4" on="0"/>
        <pt x="211" y="-38" on="0"/>
        <pt x="256" y="-38" on="1"/>
        <pt x="295" y="-38" on="0"/>
        <pt x="334" y="-17" on="1"/>
        <pt x="257" y="51" on="0"/>
        <pt x="209" y="51" on="1"/>
        <pt x="172" y="51" on="0"/>
      </contour>
    </TTGlyph>
    <TTGlyph name="R" xMin="16" yMin="-121" xMax="581" yMax="720">
      <contour>
        <pt x="16" y="-37" on="1"/>
        <pt x="16" y="-22" on="0"/>
        <pt x="30" y="18" on="1"/>
        <pt x="156" y="407" on="0"/>
        <pt x="283" y="695" on="1"/>
        <pt x="246" y="689" on="0"/>
        <pt x="177" y="660" on="0"/>
        <pt x="138" y="638" on="0"/>
        <pt x="134" y="638" on="1"/>
        <pt x="127" y="638" on="0"/>
        <pt x="103" y="658" on="0"/>
        <pt x="103" y="665" on="1"/>
        <pt x="230" y="720" on="0"/>
        <pt x="328" y="720" on="1"/>
        <pt x="390" y="720" on="0"/>
        <pt x="500" y="684" on="0"/>
        <pt x="581" y="596" on="0"/>
        <pt x="581" y="533" on="1"/>
        <pt x="581" y="477" on="0"/>
        <pt x="515" y="392" on="0"/>
        <pt x="426" y="349" on="0"/>
        <pt x="311" y="322" on="0"/>
        <pt x="237" y="316" on="0"/>
        <pt x="208" y="316" on="1"/>
        <pt x="247" y="249" on="1"/>
        <pt x="287" y="178" on="1"/>
        <pt x="300" y="156" on="0"/>
        <pt x="355" y="73" on="0"/>
        <pt x="402" y="18" on="0"/>
        <pt x="474" y="-54" on="0"/>
        <pt x="515" y="-88" on="1"/>
        <pt x="509" y="-101" on="0"/>
        <pt x="478" y="-121" on="0"/>
        <pt x="464" y="-121" on="1"/>
        <pt x="429" y="-121" on="0"/>
        <pt x="315" y="23" on="0"/>
        <pt x="218" y="199" on="0"/>
        <pt x="185" y="277" on="1"/>
        <pt x="82" y="-87" on="1"/>
        <pt x="56" y="-87" on="0"/>
        <pt x="16" y="-58" on="0"/>
      </contour>
      <contour>
        <pt x="201" y="332" on="1"/>
        <pt x="280" y="337" on="0"/>
        <pt x="415" y="382" on="0"/>
        <pt x="514" y="483" on="0"/>
        <pt x="514" y="554" on="1"/>
        <pt x="514" y="630" on="0"/>
        <pt x="411" y="699" on="0"/>
        <pt x="335" y="699" on="1"/>
        <pt x="275" y="580" on="0"/>
      </contour>
    </TTGlyph>
    <TTGlyph name="S" xMin="-6" yMin="-87" xMax="492" yMax="720">
      <contour>
        <pt x="-6" y="92" on="1"/>
        <pt x="-6" y="163" on="0"/>
        <pt x="72" y="226" on="0"/>
        <pt x="122" y="226" on="1"/>
        <pt x="67" y="166" on="0"/>
        <pt x="67" y="92" on="1"/>
        <pt x="67" y="32" on="0"/>
        <pt x="146" y="-48" on="0"/>
        <pt x="294" y="-48" on="0"/>
        <pt x="406" y="30" on="0"/>
        <pt x="406" y="98" on="1"/>
        <pt x="406" y="145" on="0"/>
        <pt x="343" y="220" on="0"/>
        <pt x="298" y="247" on="1"/>
        <pt x="209" y="300" on="1"/>
        <pt x="165" y="327" on="0"/>
        <pt x="102" y="404" on="0"/>
        <pt x="102" y="453" on="1"/>
        <pt x="102" y="511" on="0"/>
        <pt x="170" y="632" on="0"/>
        <pt x="305" y="720" on="0"/>
        <pt x="387" y="720" on="1"/>
        <pt x="492" y="720" on="0"/>
        <pt x="492" y="620" on="1"/>
        <pt x="492" y="570" on="0"/>
        <pt x="444" y="446" on="0"/>
        <pt x="415" y="400" on="1"/>
        <pt x="382" y="407" on="0"/>
        <pt x="382" y="443" on="1"/>
        <pt x="382" y="471" on="0"/>
        <pt x="441" y="624" on="0"/>
        <pt x="441" y="653" on="1"/>
        <pt x="441" y="696" on="0"/>
        <pt x="385" y="696" on="1"/>
        <pt x="297" y="696" on="0"/>
        <pt x="165" y="546" on="0"/>
        <pt x="165" y="476" on="1"/>
        <pt x="165" y="435" on="0"/>
        <pt x="227" y="370" on="0"/>
        <pt x="271" y="346" on="1"/>
        <pt x="358" y="295" on="1"/>
        <pt x="402" y="269" on="0"/>
        <pt x="464" y="182" on="0"/>
        <pt x="464" y="126" on="1"/>
        <pt x="464" y="29" on="0"/>
        <pt x="304" y="-87" on="0"/>
        <pt x="203" y="-87" on="1"/>
        <pt x="115" y="-87" on="0"/>
        <pt x="-6" y="6" on="0"/>
      </contour>
    </TTGlyph>
    <TTGlyph name="Scaron" xMin="-6" yMin="-87" xMax="540" yMax="886">
      <contour>
        <pt x="-6" y="92" on="1"/>
        <pt x="-6" y="163" on="0"/>
        <pt x="72" y="226" on="0"/>
        <pt x="122" y="226" on="1"/>
        <pt x="67" y="166" on="0"/>
        <pt x="67" y="92" on="1"/>
        <pt x="67" y="32" on="0"/>
        <pt x="146" y="-48" on="0"/>
        <pt x="294" y="-48" on="0"/>
        <pt x="406" y="30" on="0"/>
        <pt x="406" y="98" on="1"/>
        <pt x="406" y="145" on="0"/>
        <pt x="343" y="220" on="0"/>
        <pt x="298" y="247" on="1"/>
        <pt x="209" y="300" on="1"/>
        <pt x="165" y="327" on="0"/>
        <pt x="102" y="404" on="0"/>
        <pt x="102" y="453" on="1"/>
        <pt x="102" y="511" on="0"/>
        <pt x="170" y="632" on="0"/>
        <pt x="305" y="720" on="0"/>
        <pt x="387" y="720" on="1"/>
        <pt x="492" y="720" on="0"/>
        <pt x="492" y="620" on="1"/>
        <pt x="492" y="570" on="0"/>
        <pt x="444" y="446" on="0"/>
        <pt x="415" y="400" on="1"/>
        <pt x="382" y="407" on="0"/>
        <pt x="382" y="443" on="1"/>
        <pt x="382" y="471" on="0"/>
        <pt x="441" y="624" on="0"/>
        <pt x="441" y="653" on="1"/>
        <pt x="441" y="696" on="0"/>
        <pt x="385" y="696" on="1"/>
        <pt x="297" y="696" on="0"/>
        <pt x="165" y="546" on="0"/>
        <pt x="165" y="476" on="1"/>
        <pt x="165" y="435" on="0"/>
        <pt x="227" y="370" on="0"/>
        <pt x="271" y="346" on="1"/>
        <pt x="358" y="295" on="1"/>
        <pt x="402" y="269" on="0"/>
        <pt x="464" y="182" on="0"/>
        <pt x="464" y="126" on="1"/>
        <pt x="464" y="29" on="0"/>
        <pt x="304" y="-87" on="0"/>
        <pt x="203" y="-87" on="1"/>
        <pt x="115" y="-87" on="0"/>
        <pt x="-6" y="6" on="0"/>
      </contour>
      <contour>
        <pt x="336" y="855" on="1"/>
        <pt x="336" y="878" on="0"/>
        <pt x="353" y="886" on="1"/>
        <pt x="374" y="843" on="0"/>
        <pt x="427" y="794" on="1"/>
        <pt x="494" y="818" on="0"/>
        <pt x="530" y="851" on="1"/>
        <pt x="540" y="845" on="0"/>
        <pt x="540" y="832" on="1"/>
        <pt x="540" y="805" on="0"/>
        <pt x="450" y="744" on="0"/>
        <pt x="402" y="744" on="0"/>
        <pt x="336" y="823" on="0"/>
      </contour>
    </TTGlyph>
    <TTGlyph name="T" xMin="69" yMin="-87" xMax="635" yMax="720">
      <contour>
        <pt x="69" y="632" on="1"/>
        <pt x="76" y="720" on="0"/>
        <pt x="313" y="720" on="1"/>
        <pt x="388" y="720" on="0"/>
        <pt x="593" y="698" on="0"/>
        <pt x="635" y="698" on="1"/>
        <pt x="582" y="651" on="0"/>
        <pt x="464" y="651" on="1"/>
        <pt x="453" y="651" on="0"/>
        <pt x="405" y="652" on="0"/>
        <pt x="393" y="652" on="1"/>
        <pt x="311" y="447" on="0"/>
        <pt x="236" y="175" on="1"/>
        <pt x="233" y="164" on="0"/>
        <pt x="218" y="111" on="0"/>
        <pt x="215" y="101" on="1"/>
        <pt x="208" y="70" on="1"/>
        <pt x="203" y="49" on="0"/>
        <pt x="200" y="39" on="1"/>
        <pt x="195" y="13" on="1"/>
        <pt x="191" y="-4" on="0"/>
        <pt x="188" y="-26" on="0"/>
        <pt x="186" y="-53" on="0"/>
        <pt x="186" y="-65" on="1"/>
        <pt x="186" y="-80" on="0"/>
        <pt x="187" y="-87" on="1"/>
        <pt x="108" y="-87" on="0"/>
        <pt x="108" y="-16" on="1"/>
        <pt x="108" y="23" on="0"/>
        <pt x="145" y="130" on="1"/>
        <pt x="256" y="452" on="0"/>
        <pt x="349" y="652" on="1"/>
        <pt x="170" y="649" on="0"/>
      </contour>
    </TTGlyph>
    <TTGlyph name="Thorn" xMin="31" yMin="-87" xMax="529" yMax="716">
      <contour>
        <pt x="31" y="-37" on="1"/>
        <pt x="31" y="-24" on="0"/>
        <pt x="45" y="18" on="1"/>
        <pt x="155" y="364" on="0"/>
        <pt x="232" y="555" on="1"/>
        <pt x="196" y="549" on="0"/>
        <pt x="126" y="521" on="0"/>
        <pt x="86" y="498" on="0"/>
        <pt x="82" y="498" on="1"/>
        <pt x="75" y="498" on="0"/>
        <pt x="51" y="518" on="0"/>
        <pt x="51" y="525" on="1"/>
        <pt x="161" y="572" on="0"/>
        <pt x="241" y="578" on="1"/>
        <pt x="245" y="587" on="0"/>
        <pt x="262" y="633" on="0"/>
        <pt x="275" y="663" on="0"/>
        <pt x="294" y="698" on="0"/>
        <pt x="317" y="716" on="0"/>
        <pt x="343" y="716" on="0"/>
        <pt x="356" y="708" on="1"/>
        <pt x="328" y="653" on="0"/>
        <pt x="300" y="579" on="1"/>
        <pt x="392" y="571" on="0"/>
        <pt x="529" y="470" on="0"/>
        <pt x="529" y="387" on="1"/>
        <pt x="529" y="341" on="0"/>
        <pt x="489" y="266" on="0"/>
        <pt x="422" y="218" on="0"/>
        <pt x="346" y="184" on="0"/>
        <pt x="259" y="165" on="0"/>
        <pt x="196" y="157" on="0"/>
        <pt x="168" y="156" on="1"/>
        <pt x="135" y="38" on="1"/>
        <pt x="100" y="-87" on="1"/>
        <pt x="73" y="-87" on="0"/>
        <pt x="31" y="-58" on="0"/>
      </contour>
      <contour>
        <pt x="173" y="175" on="1"/>
        <pt x="228" y="181" on="0"/>
        <pt x="327" y="215" on="0"/>
        <pt x="412" y="269" on="0"/>
        <pt x="462" y="353" on="0"/>
        <pt x="462" y="404" on="1"/>
        <pt x="462" y="478" on="0"/>
        <pt x="365" y="555" on="0"/>
        <pt x="292" y="558" on="1"/>
        <pt x="244" y="427" on="0"/>
      </contour>
    </TTGlyph>
    <TTGlyph name="U" xMin="25" yMin="-99" xMax="711" yMax="720">
      <contour>
        <pt x="25" y="539" on="1"/>
        <pt x="25" y="604" on="0"/>
        <pt x="141" y="720" on="0"/>
        <pt x="216" y="720" on="1"/>
        <pt x="319" y="720" on="0"/>
        <pt x="319" y="599" on="1"/>
        <pt x="319" y="524" on="0"/>
        <pt x="196" y="134" on="0"/>
        <pt x="196" y="65" on="1"/>
        <pt x="196" y="15" on="0"/>
        <pt x="237" y="-47" on="0"/>
        <pt x="280" y="-47" on="1"/>
        <pt x="319" y="-47" on="0"/>
        <pt x="390" y="6" on="0"/>
        <pt x="441" y="92" on="0"/>
        <pt x="476" y="180" on="0"/>
        <pt x="487" y="224" on="1"/>
        <pt x="528" y="391" on="1"/>
        <pt x="544" y="453" on="0"/>
        <pt x="596" y="631" on="0"/>
        <pt x="642" y="720" on="0"/>
        <pt x="661" y="720" on="1"/>
        <pt x="681" y="720" on="0"/>
        <pt x="711" y="688" on="1"/>
        <pt x="681" y="667" on="0"/>
        <pt x="527" y="170" on="0"/>
        <pt x="527" y="42" on="1"/>
        <pt x="527" y="-25" on="0"/>
        <pt x="563" y="-75" on="0"/>
        <pt x="607" y="-75" on="1"/>
        <pt x="572" y="-99" on="0"/>
        <pt x="541" y="-99" on="1"/>
        <pt x="505" y="-99" on="0"/>
        <pt x="460" y="-37" on="0"/>
        <pt x="460" y="7" on="1"/>
        <pt x="460" y="38" on="0"/>
        <pt x="469" y="98" on="1"/>
        <pt x="384" y="-87" on="0"/>
        <pt x="253" y="-87" on="1"/>
        <pt x="191" y="-87" on="0"/>
        <pt x="123" y="-11" on="0"/>
        <pt x="123" y="49" on="1"/>
        <pt x="123" y="111" on="0"/>
        <pt x="248" y="526" on="0"/>
        <pt x="248" y="604" on="1"/>
        <pt x="248" y="692" on="0"/>
        <pt x="192" y="692" on="1"/>
        <pt x="143" y="692" on="0"/>
        <pt x="86" y="578" on="0"/>
        <pt x="86" y="519" on="1"/>
        <pt x="86" y="489" on="0"/>
        <pt x="94" y="470" on="1"/>
        <pt x="25" y="470" on="0"/>
      </contour>
    </TTGlyph>
    <TTGlyph name="U.salt" xMin="25" yMin="-87" xMax="718" yMax="720">
      <contour>
        <pt x="25" y="539" on="1"/>
        <pt x="25" y="604" on="0"/>
        <pt x="141" y="720" on="0"/>
        <pt x="216" y="720" on="1"/>
        <pt x="319" y="720" on="0"/>
        <pt x="319" y="599" on="1"/>
        <pt x="319" y="524" on="0"/>
        <pt x="196" y="134" on="0"/>
        <pt x="196" y="65" on="1"/>
        <pt x="196" y="15" on="0"/>
        <pt x="237" y="-47" on="0"/>
        <pt x="280" y="-47" on="1"/>
        <pt x="319" y="-47" on="0"/>
        <pt x="390" y="6" on="0"/>
        <pt x="441" y="92" on="0"/>
        <pt x="476" y="180" on="0"/>
        <pt x="487" y="224" on="1"/>
        <pt x="528" y="391" on="1"/>
        <pt x="544" y="453" on="0"/>
        <pt x="596" y="631" on="0"/>
        <pt x="642" y="720" on="0"/>
        <pt x="661" y="720" on="1"/>
        <pt x="681" y="720" on="0"/>
        <pt x="711" y="688" on="1"/>
        <pt x="681" y="667" on="0"/>
        <pt x="527" y="170" on="0"/>
        <pt x="527" y="42" on="1"/>
        <pt x="527" y="-40" on="0"/>
        <pt x="558" y="-40" on="1"/>
        <pt x="604" y="-40" on="0"/>
        <pt x="705" y="157" on="1"/>
        <pt x="718" y="147" on="1"/>
        <pt x="694" y="90" on="0"/>
        <pt x="636" y="-9" on="0"/>
        <pt x="557" y="-87" on="0"/>
        <pt x="522" y="-87" on="1"/>
        <pt x="489" y="-87" on="0"/>
        <pt x="460" y="-29" on="0"/>
        <pt x="460" y="7" on="1"/>
        <pt x="460" y="38" on="0"/>
        <pt x="469" y="98" on="1"/>
        <pt x="384" y="-87" on="0"/>
        <pt x="253" y="-87" on="1"/>
        <pt x="191" y="-87" on="0"/>
        <pt x="123" y="-11" on="0"/>
        <pt x="123" y="49" on="1"/>
        <pt x="123" y="111" on="0"/>
        <pt x="248" y="526" on="0"/>
        <pt x="248" y="604" on="1"/>
        <pt x="248" y="692" on="0"/>
        <pt x="192" y="692" on="1"/>
        <pt x="143" y="692" on="0"/>
        <pt x="86" y="578" on="0"/>
        <pt x="86" y="519" on="1"/>
        <pt x="86" y="489" on="0"/>
        <pt x="94" y="470" on="1"/>
        <pt x="25" y="470" on="0"/>
      </contour>
    </TTGlyph>
    <TTGlyph name="Uacute" xMin="25" yMin="-99" xMax="711" yMax="895">
      <contour>
        <pt x="25" y="539" on="1"/>
        <pt x="25" y="604" on="0"/>
        <pt x="141" y="720" on="0"/>
        <pt x="216" y="720" on="1"/>
        <pt x="319" y="720" on="0"/>
        <pt x="319" y="599" on="1"/>
        <pt x="319" y="524" on="0"/>
        <pt x="196" y="134" on="0"/>
        <pt x="196" y="65" on="1"/>
        <pt x="196" y="15" on="0"/>
        <pt x="237" y="-47" on="0"/>
        <pt x="280" y="-47" on="1"/>
        <pt x="319" y="-47" on="0"/>
        <pt x="390" y="6" on="0"/>
        <pt x="441" y="92" on="0"/>
        <pt x="476" y="180" on="0"/>
        <pt x="487" y="224" on="1"/>
        <pt x="528" y="391" on="1"/>
        <pt x="544" y="453" on="0"/>
        <pt x="596" y="631" on="0"/>
        <pt x="642" y="720" on="0"/>
        <pt x="661" y="720" on="1"/>
        <pt x="681" y="720" on="0"/>
        <pt x="711" y="688" on="1"/>
        <pt x="681" y="667" on="0"/>
        <pt x="527" y="170" on="0"/>
        <pt x="527" y="42" on="1"/>
        <pt x="527" y="-25" on="0"/>
        <pt x="563" y="-75" on="0"/>
        <pt x="607" y="-75" on="1"/>
        <pt x="572" y="-99" on="0"/>
        <pt x="541" y="-99" on="1"/>
        <pt x="505" y="-99" on="0"/>
        <pt x="460" y="-37" on="0"/>
        <pt x="460" y="7" on="1"/>
        <pt x="460" y="38" on="0"/>
        <pt x="469" y="98" on="1"/>
        <pt x="384" y="-87" on="0"/>
        <pt x="253" y="-87" on="1"/>
        <pt x="191" y="-87" on="0"/>
        <pt x="123" y="-11" on="0"/>
        <pt x="123" y="49" on="1"/>
        <pt x="123" y="111" on="0"/>
        <pt x="248" y="526" on="0"/>
        <pt x="248" y="604" on="1"/>
        <pt x="248" y="692" on="0"/>
        <pt x="192" y="692" on="1"/>
        <pt x="143" y="692" on="0"/>
        <pt x="86" y="578" on="0"/>
        <pt x="86" y="519" on="1"/>
        <pt x="86" y="489" on="0"/>
        <pt x="94" y="470" on="1"/>
        <pt x="25" y="470" on="0"/>
      </contour>
      <contour>
        <pt x="463" y="774" on="1"/>
        <pt x="463" y="795" on="0"/>
        <pt x="540" y="895" on="0"/>
        <pt x="567" y="895" on="1"/>
        <pt x="586" y="895" on="0"/>
        <pt x="589" y="864" on="1"/>
        <pt x="515" y="800" on="0"/>
        <pt x="477" y="748" on="1"/>
        <pt x="463" y="755" on="0"/>
      </contour>
    </TTGlyph>
    <TTGlyph name="Ucircumflex" xMin="25" yMin="-99" xMax="711" yMax="886">
      <contour>
        <pt x="25" y="539" on="1"/>
        <pt x="25" y="604" on="0"/>
        <pt x="141" y="720" on="0"/>
        <pt x="216" y="720" on="1"/>
        <pt x="319" y="720" on="0"/>
        <pt x="319" y="599" on="1"/>
        <pt x="319" y="524" on="0"/>
        <pt x="196" y="134" on="0"/>
        <pt x="196" y="65" on="1"/>
        <pt x="196" y="15" on="0"/>
        <pt x="237" y="-47" on="0"/>
        <pt x="280" y="-47" on="1"/>
        <pt x="319" y="-47" on="0"/>
        <pt x="390" y="6" on="0"/>
        <pt x="441" y="92" on="0"/>
        <pt x="476" y="180" on="0"/>
        <pt x="487" y="224" on="1"/>
        <pt x="528" y="391" on="1"/>
        <pt x="544" y="453" on="0"/>
        <pt x="596" y="631" on="0"/>
        <pt x="642" y="720" on="0"/>
        <pt x="661" y="720" on="1"/>
        <pt x="681" y="720" on="0"/>
        <pt x="711" y="688" on="1"/>
        <pt x="681" y="667" on="0"/>
        <pt x="527" y="170" on="0"/>
        <pt x="527" y="42" on="1"/>
        <pt x="527" y="-25" on="0"/>
        <pt x="563" y="-75" on="0"/>
        <pt x="607" y="-75" on="1"/>
        <pt x="572" y="-99" on="0"/>
        <pt x="541" y="-99" on="1"/>
        <pt x="505" y="-99" on="0"/>
        <pt x="460" y="-37" on="0"/>
        <pt x="460" y="7" on="1"/>
        <pt x="460" y="38" on="0"/>
        <pt x="469" y="98" on="1"/>
        <pt x="384" y="-87" on="0"/>
        <pt x="253" y="-87" on="1"/>
        <pt x="191" y="-87" on="0"/>
        <pt x="123" y="-11" on="0"/>
        <pt x="123" y="49" on="1"/>
        <pt x="123" y="111" on="0"/>
        <pt x="248" y="526" on="0"/>
        <pt x="248" y="604" on="1"/>
        <pt x="248" y="692" on="0"/>
        <pt x="192" y="692" on="1"/>
        <pt x="143" y="692" on="0"/>
        <pt x="86" y="578" on="0"/>
        <pt x="86" y="519" on="1"/>
        <pt x="86" y="489" on="0"/>
        <pt x="94" y="470" on="1"/>
        <pt x="25" y="470" on="0"/>
      </contour>
      <contour>
        <pt x="385" y="798" on="1"/>
        <pt x="385" y="825" on="0"/>
        <pt x="475" y="886" on="0"/>
        <pt x="523" y="886" on="0"/>
        <pt x="589" y="807" on="0"/>
        <pt x="589" y="775" on="1"/>
        <pt x="589" y="752" on="0"/>
        <pt x="572" y="744" on="1"/>
        <pt x="551" y="787" on="0"/>
        <pt x="498" y="836" on="1"/>
        <pt x="431" y="812" on="0"/>
        <pt x="395" y="779" on="1"/>
        <pt x="385" y="785" on="0"/>
      </contour>
    </TTGlyph>
    <TTGlyph name="Udieresis" xMin="25" yMin="-99" xMax="711" yMax="851">
      <contour>
        <pt x="25" y="539" on="1"/>
        <pt x="25" y="604" on="0"/>
        <pt x="141" y="720" on="0"/>
        <pt x="216" y="720" on="1"/>
        <pt x="319" y="720" on="0"/>
        <pt x="319" y="599" on="1"/>
        <pt x="319" y="524" on="0"/>
        <pt x="196" y="134" on="0"/>
        <pt x="196" y="65" on="1"/>
        <pt x="196" y="15" on="0"/>
        <pt x="237" y="-47" on="0"/>
        <pt x="280" y="-47" on="1"/>
        <pt x="319" y="-47" on="0"/>
        <pt x="390" y="6" on="0"/>
        <pt x="441" y="92" on="0"/>
        <pt x="476" y="180" on="0"/>
        <pt x="487" y="224" on="1"/>
        <pt x="528" y="391" on="1"/>
        <pt x="544" y="453" on="0"/>
        <pt x="596" y="631" on="0"/>
        <pt x="642" y="720" on="0"/>
        <pt x="661" y="720" on="1"/>
        <pt x="681" y="720" on="0"/>
        <pt x="711" y="688" on="1"/>
        <pt x="681" y="667" on="0"/>
        <pt x="527" y="170" on="0"/>
        <pt x="527" y="42" on="1"/>
        <pt x="527" y="-25" on="0"/>
        <pt x="563" y="-75" on="0"/>
        <pt x="607" y="-75" on="1"/>
        <pt x="572" y="-99" on="0"/>
        <pt x="541" y="-99" on="1"/>
        <pt x="505" y="-99" on="0"/>
        <pt x="460" y="-37" on="0"/>
        <pt x="460" y="7" on="1"/>
        <pt x="460" y="38" on="0"/>
        <pt x="469" y="98" on="1"/>
        <pt x="384" y="-87" on="0"/>
        <pt x="253" y="-87" on="1"/>
        <pt x="191" y="-87" on="0"/>
        <pt x="123" y="-11" on="0"/>
        <pt x="123" y="49" on="1"/>
        <pt x="123" y="111" on="0"/>
        <pt x="248" y="526" on="0"/>
        <pt x="248" y="604" on="1"/>
        <pt x="248" y="692" on="0"/>
        <pt x="192" y="692" on="1"/>
        <pt x="143" y="692" on="0"/>
        <pt x="86" y="578" on="0"/>
        <pt x="86" y="519" on="1"/>
        <pt x="86" y="489" on="0"/>
        <pt x="94" y="470" on="1"/>
        <pt x="25" y="470" on="0"/>
      </contour>
      <contour>
        <pt x="383" y="804" on="1"/>
        <pt x="383" y="822" on="0"/>
        <pt x="426" y="851" on="0"/>
        <pt x="449" y="851" on="1"/>
        <pt x="479" y="851" on="0"/>
        <pt x="479" y="823" on="1"/>
        <pt x="479" y="806" on="0"/>
        <pt x="442" y="774" on="0"/>
        <pt x="420" y="774" on="1"/>
        <pt x="383" y="774" on="0"/>
      </contour>
      <contour>
        <pt x="527" y="783" on="1"/>
        <pt x="527" y="801" on="0"/>
        <pt x="570" y="830" on="0"/>
        <pt x="593" y="830" on="1"/>
        <pt x="623" y="830" on="0"/>
        <pt x="623" y="802" on="1"/>
        <pt x="623" y="785" on="0"/>
        <pt x="586" y="753" on="0"/>
        <pt x="564" y="753" on="1"/>
        <pt x="527" y="753" on="0"/>
      </contour>
    </TTGlyph>
    <TTGlyph name="Ugrave" xMin="25" yMin="-99" xMax="711" yMax="895">
      <contour>
        <pt x="25" y="539" on="1"/>
        <pt x="25" y="604" on="0"/>
        <pt x="141" y="720" on="0"/>
        <pt x="216" y="720" on="1"/>
        <pt x="319" y="720" on="0"/>
        <pt x="319" y="599" on="1"/>
        <pt x="319" y="524" on="0"/>
        <pt x="196" y="134" on="0"/>
        <pt x="196" y="65" on="1"/>
        <pt x="196" y="15" on="0"/>
        <pt x="237" y="-47" on="0"/>
        <pt x="280" y="-47" on="1"/>
        <pt x="319" y="-47" on="0"/>
        <pt x="390" y="6" on="0"/>
        <pt x="441" y="92" on="0"/>
        <pt x="476" y="180" on="0"/>
        <pt x="487" y="224" on="1"/>
        <pt x="528" y="391" on="1"/>
        <pt x="544" y="453" on="0"/>
        <pt x="596" y="631" on="0"/>
        <pt x="642" y="720" on="0"/>
        <pt x="661" y="720" on="1"/>
        <pt x="681" y="720" on="0"/>
        <pt x="711" y="688" on="1"/>
        <pt x="681" y="667" on="0"/>
        <pt x="527" y="170" on="0"/>
        <pt x="527" y="42" on="1"/>
        <pt x="527" y="-25" on="0"/>
        <pt x="563" y="-75" on="0"/>
        <pt x="607" y="-75" on="1"/>
        <pt x="572" y="-99" on="0"/>
        <pt x="541" y="-99" on="1"/>
        <pt x="505" y="-99" on="0"/>
        <pt x="460" y="-37" on="0"/>
        <pt x="460" y="7" on="1"/>
        <pt x="460" y="38" on="0"/>
        <pt x="469" y="98" on="1"/>
        <pt x="384" y="-87" on="0"/>
        <pt x="253" y="-87" on="1"/>
        <pt x="191" y="-87" on="0"/>
        <pt x="123" y="-11" on="0"/>
        <pt x="123" y="49" on="1"/>
        <pt x="123" y="111" on="0"/>
        <pt x="248" y="526" on="0"/>
        <pt x="248" y="604" on="1"/>
        <pt x="248" y="692" on="0"/>
        <pt x="192" y="692" on="1"/>
        <pt x="143" y="692" on="0"/>
        <pt x="86" y="578" on="0"/>
        <pt x="86" y="519" on="1"/>
        <pt x="86" y="489" on="0"/>
        <pt x="94" y="470" on="1"/>
        <pt x="25" y="470" on="0"/>
      </contour>
      <contour>
        <pt x="421" y="864" on="1"/>
        <pt x="424" y="895" on="0"/>
        <pt x="443" y="895" on="1"/>
        <pt x="470" y="895" on="0"/>
        <pt x="547" y="795" on="0"/>
        <pt x="547" y="774" on="1"/>
        <pt x="547" y="755" on="0"/>
        <pt x="533" y="748" on="1"/>
        <pt x="495" y="800" on="0"/>
      </contour>
    </TTGlyph>
    <TTGlyph name="V" xMin="25" yMin="-87" xMax="646" yMax="720">
      <contour>
        <pt x="25" y="542" on="1"/>
        <pt x="25" y="606" on="0"/>
        <pt x="137" y="720" on="0"/>
        <pt x="208" y="720" on="1"/>
        <pt x="269" y="720" on="0"/>
        <pt x="331" y="625" on="0"/>
        <pt x="331" y="459" on="0"/>
        <pt x="266" y="228" on="0"/>
        <pt x="202" y="28" on="0"/>
        <pt x="202" y="-17" on="1"/>
        <pt x="202" y="-56" on="0"/>
        <pt x="230" y="-56" on="1"/>
        <pt x="285" y="-56" on="0"/>
        <pt x="454" y="150" on="0"/>
        <pt x="582" y="440" on="0"/>
        <pt x="582" y="544" on="1"/>
        <pt x="582" y="631" on="0"/>
        <pt x="527" y="648" on="1"/>
        <pt x="554" y="694" on="0"/>
        <pt x="585" y="694" on="1"/>
        <pt x="609" y="694" on="0"/>
        <pt x="646" y="636" on="0"/>
        <pt x="646" y="583" on="1"/>
        <pt x="646" y="476" on="0"/>
        <pt x="499" y="156" on="0"/>
        <pt x="289" y="-87" on="0"/>
        <pt x="210" y="-87" on="1"/>
        <pt x="179" y="-87" on="0"/>
        <pt x="124" y="-51" on="0"/>
        <pt x="124" y="-7" on="1"/>
        <pt x="124" y="31" on="0"/>
        <pt x="187" y="229" on="0"/>
        <pt x="250" y="466" on="0"/>
        <pt x="250" y="552" on="1"/>
        <pt x="250" y="580" on="0"/>
        <pt x="249" y="611" on="0"/>
        <pt x="243" y="654" on="0"/>
        <pt x="231" y="676" on="0"/>
        <pt x="207" y="692" on="0"/>
        <pt x="190" y="692" on="1"/>
        <pt x="140" y="692" on="0"/>
        <pt x="87" y="584" on="0"/>
        <pt x="87" y="524" on="1"/>
        <pt x="87" y="491" on="0"/>
        <pt x="96" y="470" on="1"/>
        <pt x="59" y="470" on="0"/>
        <pt x="25" y="510" on="0"/>
      </contour>
    </TTGlyph>
    <TTGlyph name="W" xMin="25" yMin="-87" xMax="919" yMax="720">
      <contour>
        <pt x="25" y="542" on="1"/>
        <pt x="25" y="606" on="0"/>
        <pt x="137" y="720" on="0"/>
        <pt x="208" y="720" on="1"/>
        <pt x="269" y="720" on="0"/>
        <pt x="331" y="625" on="0"/>
        <pt x="331" y="459" on="0"/>
        <pt x="266" y="228" on="0"/>
        <pt x="202" y="29" on="0"/>
        <pt x="202" y="-17" on="1"/>
        <pt x="202" y="-56" on="0"/>
        <pt x="232" y="-56" on="1"/>
        <pt x="279" y="-56" on="0"/>
        <pt x="416" y="114" on="0"/>
        <pt x="517" y="328" on="0"/>
        <pt x="526" y="395" on="1"/>
        <pt x="556" y="395" on="0"/>
        <pt x="586" y="364" on="0"/>
        <pt x="586" y="346" on="1"/>
        <pt x="586" y="329" on="0"/>
        <pt x="568" y="286" on="1"/>
        <pt x="530" y="196" on="1"/>
        <pt x="509" y="149" on="0"/>
        <pt x="475" y="30" on="0"/>
        <pt x="475" y="-14" on="1"/>
        <pt x="475" y="-35" on="0"/>
        <pt x="486" y="-56" on="0"/>
        <pt x="503" y="-56" on="1"/>
        <pt x="558" y="-56" on="0"/>
        <pt x="727" y="150" on="0"/>
        <pt x="855" y="440" on="0"/>
        <pt x="855" y="544" on="1"/>
        <pt x="855" y="631" on="0"/>
        <pt x="800" y="648" on="1"/>
        <pt x="827" y="694" on="0"/>
        <pt x="858" y="694" on="1"/>
        <pt x="882" y="694" on="0"/>
        <pt x="919" y="636" on="0"/>
        <pt x="919" y="583" on="1"/>
        <pt x="919" y="476" on="0"/>
        <pt x="772" y="156" on="0"/>
        <pt x="562" y="-87" on="0"/>
        <pt x="483" y="-87" on="1"/>
        <pt x="450" y="-87" on="0"/>
        <pt x="397" y="-48" on="0"/>
        <pt x="397" y="-12" on="1"/>
        <pt x="397" y="15" on="0"/>
        <pt x="417" y="78" on="1"/>
        <pt x="300" y="-87" on="0"/>
        <pt x="210" y="-87" on="1"/>
        <pt x="179" y="-87" on="0"/>
        <pt x="124" y="-51" on="0"/>
        <pt x="124" y="-7" on="1"/>
        <pt x="124" y="31" on="0"/>
        <pt x="187" y="229" on="0"/>
        <pt x="250" y="466" on="0"/>
        <pt x="250" y="552" on="1"/>
        <pt x="250" y="580" on="0"/>
        <pt x="249" y="611" on="0"/>
        <pt x="243" y="654" on="0"/>
        <pt x="231" y="676" on="0"/>
        <pt x="207" y="692" on="0"/>
        <pt x="190" y="692" on="1"/>
        <pt x="140" y="692" on="0"/>
        <pt x="87" y="584" on="0"/>
        <pt x="87" y="524" on="1"/>
        <pt x="87" y="491" on="0"/>
        <pt x="96" y="470" on="1"/>
        <pt x="59" y="470" on="0"/>
        <pt x="25" y="510" on="0"/>
      </contour>
    </TTGlyph>
    <TTGlyph name="X" xMin="25" yMin="-112" xMax="652" yMax="722">
      <contour>
        <pt x="25" y="-112" on="1"/>
        <pt x="28" y="-82" on="0"/>
        <pt x="48" y="-48" on="0"/>
        <pt x="74" y="-21" on="1"/>
        <pt x="187" y="101" on="0"/>
        <pt x="301" y="246" on="1"/>
        <pt x="293" y="370" on="0"/>
        <pt x="291" y="468" on="1"/>
        <pt x="289" y="601" on="0"/>
        <pt x="271" y="692" on="0"/>
        <pt x="232" y="692" on="1"/>
        <pt x="186" y="692" on="0"/>
        <pt x="128" y="579" on="0"/>
        <pt x="128" y="519" on="1"/>
        <pt x="128" y="489" on="0"/>
        <pt x="136" y="470" on="1"/>
        <pt x="67" y="470" on="0"/>
        <pt x="67" y="539" on="1"/>
        <pt x="67" y="603" on="0"/>
        <pt x="183" y="720" on="0"/>
        <pt x="255" y="720" on="1"/>
        <pt x="335" y="720" on="0"/>
        <pt x="359" y="625" on="1"/>
        <pt x="373" y="569" on="0"/>
        <pt x="374" y="398" on="1"/>
        <pt x="375" y="364" on="0"/>
        <pt x="375" y="344" on="1"/>
        <pt x="533" y="563" on="0"/>
        <pt x="597" y="722" on="1"/>
        <pt x="605" y="716" on="0"/>
        <pt x="620" y="687" on="0"/>
        <pt x="620" y="674" on="1"/>
        <pt x="620" y="601" on="0"/>
        <pt x="376" y="289" on="1"/>
        <pt x="386" y="-50" on="0"/>
        <pt x="470" y="-50" on="1"/>
        <pt x="521" y="-50" on="0"/>
        <pt x="640" y="162" on="1"/>
        <pt x="652" y="152" on="1"/>
        <pt x="590" y="25" on="0"/>
        <pt x="499" y="-87" on="0"/>
        <pt x="443" y="-87" on="1"/>
        <pt x="404" y="-87" on="0"/>
        <pt x="349" y="-36" on="0"/>
        <pt x="320" y="59" on="0"/>
        <pt x="308" y="142" on="0"/>
        <pt x="304" y="198" on="1"/>
        <pt x="217" y="91" on="0"/>
        <pt x="59" y="-85" on="0"/>
      </contour>
    </TTGlyph>
    <TTGlyph name="Y" xMin="23" yMin="-187" xMax="709" yMax="720">
      <contour>
        <pt x="23" y="539" on="1"/>
        <pt x="23" y="604" on="0"/>
        <pt x="139" y="720" on="0"/>
        <pt x="214" y="720" on="1"/>
        <pt x="267" y="720" on="0"/>
        <pt x="318" y="660" on="0"/>
        <pt x="318" y="619" on="1"/>
        <pt x="318" y="586" on="0"/>
        <pt x="251" y="344" on="0"/>
        <pt x="251" y="287" on="1"/>
        <pt x="251" y="191" on="0"/>
        <pt x="321" y="191" on="1"/>
        <pt x="384" y="191" on="0"/>
        <pt x="492" y="335" on="0"/>
        <pt x="533" y="440" on="1"/>
        <pt x="601" y="720" on="0"/>
        <pt x="653" y="720" on="1"/>
        <pt x="679" y="720" on="0"/>
        <pt x="709" y="688" on="1"/>
        <pt x="659" y="608" on="0"/>
        <pt x="607" y="450" on="0"/>
        <pt x="544" y="194" on="1"/>
        <pt x="524" y="118" on="1"/>
        <pt x="517" y="90" on="0"/>
        <pt x="487" y="-1" on="0"/>
        <pt x="459" y="-56" on="0"/>
        <pt x="414" y="-124" on="0"/>
        <pt x="364" y="-161" on="0"/>
        <pt x="295" y="-187" on="0"/>
        <pt x="255" y="-187" on="1"/>
        <pt x="195" y="-187" on="0"/>
        <pt x="117" y="-137" on="0"/>
        <pt x="117" y="-92" on="1"/>
        <pt x="117" y="-38" on="0"/>
        <pt x="177" y="-18" on="1"/>
        <pt x="169" y="-45" on="0"/>
        <pt x="169" y="-72" on="1"/>
        <pt x="169" y="-114" on="0"/>
        <pt x="213" y="-162" on="0"/>
        <pt x="256" y="-162" on="1"/>
        <pt x="402" y="-162" on="0"/>
        <pt x="465" y="121" on="1"/>
        <pt x="483" y="211" on="1"/>
        <pt x="507" y="326" on="1"/>
        <pt x="416" y="151" on="0"/>
        <pt x="290" y="151" on="1"/>
        <pt x="181" y="151" on="0"/>
        <pt x="181" y="270" on="1"/>
        <pt x="181" y="324" on="0"/>
        <pt x="249" y="570" on="0"/>
        <pt x="249" y="614" on="1"/>
        <pt x="249" y="692" on="0"/>
        <pt x="192" y="692" on="1"/>
        <pt x="142" y="692" on="0"/>
        <pt x="84" y="578" on="0"/>
        <pt x="84" y="519" on="1"/>
        <pt x="84" y="489" on="0"/>
        <pt x="92" y="470" on="1"/>
        <pt x="23" y="470" on="0"/>
      </contour>
    </TTGlyph>
    <TTGlyph name="Yacute" xMin="23" yMin="-187" xMax="709" yMax="895">
      <contour>
        <pt x="23" y="539" on="1"/>
        <pt x="23" y="604" on="0"/>
        <pt x="139" y="720" on="0"/>
        <pt x="214" y="720" on="1"/>
        <pt x="267" y="720" on="0"/>
        <pt x="318" y="660" on="0"/>
        <pt x="318" y="619" on="1"/>
        <pt x="318" y="586" on="0"/>
        <pt x="251" y="344" on="0"/>
        <pt x="251" y="287" on="1"/>
        <pt x="251" y="191" on="0"/>
        <pt x="321" y="191" on="1"/>
        <pt x="384" y="191" on="0"/>
        <pt x="492" y="335" on="0"/>
        <pt x="533" y="440" on="1"/>
        <pt x="601" y="720" on="0"/>
        <pt x="653" y="720" on="1"/>
        <pt x="679" y="720" on="0"/>
        <pt x="709" y="688" on="1"/>
        <pt x="659" y="608" on="0"/>
        <pt x="607" y="450" on="0"/>
        <pt x="544" y="194" on="1"/>
        <pt x="524" y="118" on="1"/>
        <pt x="517" y="90" on="0"/>
        <pt x="487" y="-1" on="0"/>
        <pt x="459" y="-56" on="0"/>
        <pt x="414" y="-124" on="0"/>
        <pt x="364" y="-161" on="0"/>
        <pt x="295" y="-187" on="0"/>
        <pt x="255" y="-187" on="1"/>
        <pt x="195" y="-187" on="0"/>
        <pt x="117" y="-137" on="0"/>
        <pt x="117" y="-93" on="1"/>
        <pt x="117" y="-38" on="0"/>
        <pt x="177" y="-18" on="1"/>
        <pt x="169" y="-45" on="0"/>
        <pt x="169" y="-72" on="1"/>
        <pt x="169" y="-114" on="0"/>
        <pt x="213" y="-162" on="0"/>
        <pt x="256" y="-162" on="1"/>
        <pt x="402" y="-162" on="0"/>
        <pt x="465" y="121" on="1"/>
        <pt x="483" y="211" on="1"/>
        <pt x="507" y="326" on="1"/>
        <pt x="416" y="151" on="0"/>
        <pt x="290" y="151" on="1"/>
        <pt x="181" y="151" on="0"/>
        <pt x="181" y="270" on="1"/>
        <pt x="181" y="324" on="0"/>
        <pt x="249" y="570" on="0"/>
        <pt x="249" y="614" on="1"/>
        <pt x="249" y="692" on="0"/>
        <pt x="192" y="692" on="1"/>
        <pt x="142" y="692" on="0"/>
        <pt x="84" y="578" on="0"/>
        <pt x="84" y="519" on="1"/>
        <pt x="84" y="489" on="0"/>
        <pt x="92" y="470" on="1"/>
        <pt x="23" y="470" on="0"/>
      </contour>
      <contour>
        <pt x="472" y="774" on="1"/>
        <pt x="472" y="795" on="0"/>
        <pt x="549" y="895" on="0"/>
        <pt x="576" y="895" on="1"/>
        <pt x="595" y="895" on="0"/>
        <pt x="598" y="864" on="1"/>
        <pt x="524" y="800" on="0"/>
        <pt x="486" y="748" on="1"/>
        <pt x="472" y="755" on="0"/>
      </contour>
    </TTGlyph>
    <TTGlyph name="Ydieresis" xMin="23" yMin="-187" xMax="709" yMax="851">
      <contour>
        <pt x="23" y="539" on="1"/>
        <pt x="23" y="604" on="0"/>
        <pt x="139" y="720" on="0"/>
        <pt x="214" y="720" on="1"/>
        <pt x="267" y="720" on="0"/>
        <pt x="318" y="660" on="0"/>
        <pt x="318" y="619" on="1"/>
        <pt x="318" y="586" on="0"/>
        <pt x="251" y="344" on="0"/>
        <pt x="251" y="287" on="1"/>
        <pt x="251" y="191" on="0"/>
        <pt x="321" y="191" on="1"/>
        <pt x="384" y="191" on="0"/>
        <pt x="492" y="335" on="0"/>
        <pt x="533" y="440" on="1"/>
        <pt x="601" y="720" on="0"/>
        <pt x="653" y="720" on="1"/>
        <pt x="679" y="720" on="0"/>
        <pt x="709" y="688" on="1"/>
        <pt x="659" y="608" on="0"/>
        <pt x="607" y="450" on="0"/>
        <pt x="544" y="194" on="1"/>
        <pt x="524" y="118" on="1"/>
        <pt x="517" y="90" on="0"/>
        <pt x="487" y="-1" on="0"/>
        <pt x="459" y="-56" on="0"/>
        <pt x="414" y="-124" on="0"/>
        <pt x="364" y="-161" on="0"/>
        <pt x="295" y="-187" on="0"/>
        <pt x="255" y="-187" on="1"/>
        <pt x="195" y="-187" on="0"/>
        <pt x="117" y="-137" on="0"/>
        <pt x="117" y="-93" on="1"/>
        <pt x="117" y="-38" on="0"/>
        <pt x="177" y="-18" on="1"/>
        <pt x="169" y="-45" on="0"/>
        <pt x="169" y="-72" on="1"/>
        <pt x="169" y="-114" on="0"/>
        <pt x="213" y="-162" on="0"/>
        <pt x="256" y="-162" on="1"/>
        <pt x="402" y="-162" on="0"/>
        <pt x="465" y="121" on="1"/>
        <pt x="483" y="211" on="1"/>
        <pt x="507" y="326" on="1"/>
        <pt x="416" y="151" on="0"/>
        <pt x="290" y="151" on="1"/>
        <pt x="181" y="151" on="0"/>
        <pt x="181" y="270" on="1"/>
        <pt x="181" y="324" on="0"/>
        <pt x="249" y="570" on="0"/>
        <pt x="249" y="614" on="1"/>
        <pt x="249" y="692" on="0"/>
        <pt x="192" y="692" on="1"/>
        <pt x="142" y="692" on="0"/>
        <pt x="84" y="578" on="0"/>
        <pt x="84" y="519" on="1"/>
        <pt x="84" y="489" on="0"/>
        <pt x="92" y="470" on="1"/>
        <pt x="23" y="470" on="0"/>
      </contour>
      <contour>
        <pt x="377" y="804" on="1"/>
        <pt x="377" y="822" on="0"/>
        <pt x="420" y="851" on="0"/>
        <pt x="443" y="851" on="1"/>
        <pt x="473" y="851" on="0"/>
        <pt x="473" y="823" on="1"/>
        <pt x="473" y="806" on="0"/>
        <pt x="436" y="774" on="0"/>
        <pt x="414" y="774" on="1"/>
        <pt x="377" y="774" on="0"/>
      </contour>
      <contour>
        <pt x="521" y="783" on="1"/>
        <pt x="521" y="801" on="0"/>
        <pt x="564" y="830" on="0"/>
        <pt x="587" y="830" on="1"/>
        <pt x="617" y="830" on="0"/>
        <pt x="617" y="802" on="1"/>
        <pt x="617" y="785" on="0"/>
        <pt x="580" y="753" on="0"/>
        <pt x="558" y="753" on="1"/>
        <pt x="521" y="753" on="0"/>
      </contour>
    </TTGlyph>
    <TTGlyph name="Z" xMin="-25" yMin="-87" xMax="660" yMax="720">
      <contour>
        <pt x="-25" y="26" on="1"/>
        <pt x="-25" y="78" on="0"/>
        <pt x="52" y="78" on="1"/>
        <pt x="100" y="78" on="0"/>
        <pt x="188" y="52" on="1"/>
        <pt x="276" y="145" on="0"/>
        <pt x="383" y="321" on="1"/>
        <pt x="323" y="320" on="0"/>
        <pt x="253" y="310" on="1"/>
        <pt x="219" y="305" on="1"/>
        <pt x="223" y="375" on="0"/>
        <pt x="368" y="375" on="1"/>
        <pt x="383" y="375" on="0"/>
        <pt x="413" y="373" on="1"/>
        <pt x="495" y="519" on="0"/>
        <pt x="530" y="610" on="1"/>
        <pt x="507" y="616" on="0"/>
        <pt x="397" y="659" on="0"/>
        <pt x="291" y="692" on="0"/>
        <pt x="252" y="692" on="1"/>
        <pt x="139" y="692" on="0"/>
        <pt x="139" y="548" on="1"/>
        <pt x="139" y="526" on="0"/>
        <pt x="143" y="513" on="1"/>
        <pt x="89" y="523" on="0"/>
        <pt x="89" y="585" on="1"/>
        <pt x="89" y="651" on="0"/>
        <pt x="191" y="720" on="0"/>
        <pt x="282" y="720" on="1"/>
        <pt x="356" y="720" on="0"/>
        <pt x="580" y="656" on="0"/>
        <pt x="628" y="656" on="1"/>
        <pt x="650" y="656" on="0"/>
        <pt x="660" y="658" on="1"/>
        <pt x="633" y="635" on="0"/>
        <pt x="610" y="623" on="1"/>
        <pt x="562" y="508" on="0"/>
        <pt x="480" y="367" on="1"/>
        <pt x="570" y="358" on="0"/>
        <pt x="586" y="358" on="1"/>
        <pt x="570" y="335" on="0"/>
        <pt x="526" y="325" on="0"/>
        <pt x="454" y="323" on="1"/>
        <pt x="342" y="140" on="0"/>
        <pt x="236" y="38" on="1"/>
        <pt x="414" y="-18" on="0"/>
        <pt x="481" y="-18" on="1"/>
        <pt x="521" y="-18" on="0"/>
        <pt x="552" y="-2" on="1"/>
        <pt x="522" y="-87" on="0"/>
        <pt x="447" y="-87" on="1"/>
        <pt x="430" y="-87" on="0"/>
        <pt x="387" y="-78" on="0"/>
        <pt x="356" y="-69" on="0"/>
        <pt x="296" y="-45" on="0"/>
        <pt x="284" y="-40" on="1"/>
        <pt x="238" y="-18" on="1"/>
        <pt x="203" y="-1" on="0"/>
        <pt x="195" y="2" on="1"/>
        <pt x="123" y="-54" on="0"/>
        <pt x="67" y="-54" on="1"/>
        <pt x="26" y="-54" on="0"/>
        <pt x="-25" y="-4" on="0"/>
      </contour>
      <contour>
        <pt x="1" y="28" on="1"/>
        <pt x="1" y="9" on="0"/>
        <pt x="36" y="-27" on="0"/>
        <pt x="62" y="-27" on="1"/>
        <pt x="99" y="-27" on="0"/>
        <pt x="154" y="20" on="1"/>
        <pt x="77" y="52" on="0"/>
        <pt x="39" y="52" on="1"/>
        <pt x="38" y="52" on="1"/>
        <pt x="1" y="52" on="0"/>
      </contour>
    </TTGlyph>
    <TTGlyph name="Zcaron" xMin="-25" yMin="-87" xMax="660" yMax="886">
      <contour>
        <pt x="-25" y="26" on="1"/>
        <pt x="-25" y="78" on="0"/>
        <pt x="52" y="78" on="1"/>
        <pt x="100" y="78" on="0"/>
        <pt x="188" y="52" on="1"/>
        <pt x="276" y="145" on="0"/>
        <pt x="383" y="321" on="1"/>
        <pt x="323" y="320" on="0"/>
        <pt x="253" y="310" on="1"/>
        <pt x="219" y="305" on="1"/>
        <pt x="223" y="375" on="0"/>
        <pt x="368" y="375" on="1"/>
        <pt x="383" y="375" on="0"/>
        <pt x="413" y="373" on="1"/>
        <pt x="495" y="519" on="0"/>
        <pt x="530" y="610" on="1"/>
        <pt x="507" y="616" on="0"/>
        <pt x="397" y="659" on="0"/>
        <pt x="291" y="692" on="0"/>
        <pt x="252" y="692" on="1"/>
        <pt x="139" y="692" on="0"/>
        <pt x="139" y="548" on="1"/>
        <pt x="139" y="526" on="0"/>
        <pt x="143" y="513" on="1"/>
        <pt x="89" y="523" on="0"/>
        <pt x="89" y="585" on="1"/>
        <pt x="89" y="651" on="0"/>
        <pt x="191" y="720" on="0"/>
        <pt x="282" y="720" on="1"/>
        <pt x="356" y="720" on="0"/>
        <pt x="580" y="656" on="0"/>
        <pt x="628" y="656" on="1"/>
        <pt x="650" y="656" on="0"/>
        <pt x="660" y="658" on="1"/>
        <pt x="633" y="635" on="0"/>
        <pt x="610" y="623" on="1"/>
        <pt x="562" y="508" on="0"/>
        <pt x="480" y="367" on="1"/>
        <pt x="570" y="358" on="0"/>
        <pt x="586" y="358" on="1"/>
        <pt x="570" y="336" on="0"/>
        <pt x="525" y="325" on="0"/>
        <pt x="454" y="323" on="1"/>
        <pt x="342" y="140" on="0"/>
        <pt x="236" y="38" on="1"/>
        <pt x="414" y="-18" on="0"/>
        <pt x="481" y="-18" on="1"/>
        <pt x="521" y="-18" on="0"/>
        <pt x="552" y="-2" on="1"/>
        <pt x="522" y="-87" on="0"/>
        <pt x="447" y="-87" on="1"/>
        <pt x="430" y="-87" on="0"/>
        <pt x="387" y="-78" on="0"/>
        <pt x="356" y="-69" on="0"/>
        <pt x="296" y="-45" on="0"/>
        <pt x="284" y="-40" on="1"/>
        <pt x="238" y="-18" on="1"/>
        <pt x="203" y="-1" on="0"/>
        <pt x="195" y="2" on="1"/>
        <pt x="123" y="-54" on="0"/>
        <pt x="67" y="-54" on="1"/>
        <pt x="26" y="-54" on="0"/>
        <pt x="-25" y="-4" on="0"/>
      </contour>
      <contour>
        <pt x="1" y="28" on="1"/>
        <pt x="1" y="9" on="0"/>
        <pt x="36" y="-27" on="0"/>
        <pt x="62" y="-27" on="1"/>
        <pt x="99" y="-27" on="0"/>
        <pt x="154" y="20" on="1"/>
        <pt x="76" y="52" on="0"/>
        <pt x="38" y="52" on="1"/>
        <pt x="1" y="52" on="0"/>
      </contour>
      <contour>
        <pt x="416" y="855" on="1"/>
        <pt x="416" y="878" on="0"/>
        <pt x="433" y="886" on="1"/>
        <pt x="454" y="843" on="0"/>
        <pt x="507" y="794" on="1"/>
        <pt x="574" y="818" on="0"/>
        <pt x="610" y="851" on="1"/>
        <pt x="620" y="845" on="0"/>
        <pt x="620" y="832" on="1"/>
        <pt x="620" y="805" on="0"/>
        <pt x="530" y="744" on="0"/>
        <pt x="482" y="744" on="0"/>
        <pt x="416" y="823" on="0"/>
      </contour>
    </TTGlyph>
    <TTGlyph name="a" xMin="-26" yMin="-47" xMax="466" yMax="343">
      <contour>
        <pt x="-26" y="36" on="1"/>
        <pt x="-26" y="95" on="0"/>
        <pt x="57" y="239" on="0"/>
        <pt x="189" y="343" on="0"/>
        <pt x="251" y="343" on="1"/>
        <pt x="290" y="343" on="0"/>
        <pt x="342" y="301" on="0"/>
        <pt x="342" y="268" on="1"/>
        <pt x="342" y="225" on="0"/>
        <pt x="293" y="225" on="1"/>
        <pt x="298" y="243" on="0"/>
        <pt x="298" y="260" on="1"/>
        <pt x="298" y="316" on="0"/>
        <pt x="249" y="316" on="1"/>
        <pt x="205" y="316" on="0"/>
        <pt x="106" y="215" on="0"/>
        <pt x="43" y="82" on="0"/>
        <pt x="43" y="33" on="1"/>
        <pt x="43" y="-6" on="0"/>
        <pt x="70" y="-6" on="1"/>
        <pt x="88" y="-6" on="0"/>
        <pt x="136" y="28" on="0"/>
        <pt x="176" y="70" on="0"/>
        <pt x="231" y="141" on="0"/>
        <pt x="244" y="160" on="1"/>
        <pt x="280" y="212" on="1"/>
        <pt x="320" y="205" on="0"/>
        <pt x="320" y="187" on="1"/>
        <pt x="320" y="179" on="0"/>
        <pt x="262" y="75" on="0"/>
        <pt x="262" y="48" on="1"/>
        <pt x="262" y="31" on="0"/>
        <pt x="279" y="4" on="0"/>
        <pt x="296" y="4" on="1"/>
        <pt x="325" y="4" on="0"/>
        <pt x="413" y="87" on="0"/>
        <pt x="456" y="162" on="1"/>
        <pt x="466" y="152" on="1"/>
        <pt x="435" y="72" on="0"/>
        <pt x="322" y="-30" on="0"/>
        <pt x="268" y="-30" on="1"/>
        <pt x="233" y="-30" on="0"/>
        <pt x="196" y="11" on="0"/>
        <pt x="196" y="40" on="1"/>
        <pt x="196" y="52" on="0"/>
        <pt x="199" y="69" on="1"/>
        <pt x="154" y="9" on="0"/>
        <pt x="83" y="-47" on="0"/>
        <pt x="48" y="-47" on="1"/>
        <pt x="15" y="-47" on="0"/>
        <pt x="-26" y="-4" on="0"/>
      </contour>
    </TTGlyph>
    <TTGlyph name="aacute" xMin="-26" yMin="-47" xMax="466" yMax="564">
      <contour>
        <pt x="-26" y="36" on="1"/>
        <pt x="-26" y="95" on="0"/>
        <pt x="57" y="239" on="0"/>
        <pt x="189" y="343" on="0"/>
        <pt x="251" y="343" on="1"/>
        <pt x="290" y="343" on="0"/>
        <pt x="342" y="301" on="0"/>
        <pt x="342" y="268" on="1"/>
        <pt x="342" y="225" on="0"/>
        <pt x="293" y="225" on="1"/>
        <pt x="298" y="243" on="0"/>
        <pt x="298" y="260" on="1"/>
        <pt x="298" y="316" on="0"/>
        <pt x="249" y="316" on="1"/>
        <pt x="205" y="316" on="0"/>
        <pt x="106" y="215" on="0"/>
        <pt x="43" y="82" on="0"/>
        <pt x="43" y="33" on="1"/>
        <pt x="43" y="-6" on="0"/>
        <pt x="70" y="-6" on="1"/>
        <pt x="88" y="-6" on="0"/>
        <pt x="136" y="28" on="0"/>
        <pt x="176" y="70" on="0"/>
        <pt x="231" y="141" on="0"/>
        <pt x="244" y="160" on="1"/>
        <pt x="280" y="212" on="1"/>
        <pt x="320" y="205" on="0"/>
        <pt x="320" y="187" on="1"/>
        <pt x="320" y="179" on="0"/>
        <pt x="262" y="75" on="0"/>
        <pt x="262" y="48" on="1"/>
        <pt x="262" y="31" on="0"/>
        <pt x="279" y="4" on="0"/>
        <pt x="296" y="4" on="1"/>
        <pt x="325" y="4" on="0"/>
        <pt x="413" y="87" on="0"/>
        <pt x="456" y="162" on="1"/>
        <pt x="466" y="152" on="1"/>
        <pt x="435" y="72" on="0"/>
        <pt x="322" y="-30" on="0"/>
        <pt x="268" y="-30" on="1"/>
        <pt x="233" y="-30" on="0"/>
        <pt x="196" y="11" on="0"/>
        <pt x="196" y="40" on="1"/>
        <pt x="196" y="52" on="0"/>
        <pt x="199" y="69" on="1"/>
        <pt x="154" y="9" on="0"/>
        <pt x="83" y="-47" on="0"/>
        <pt x="48" y="-47" on="1"/>
        <pt x="15" y="-47" on="0"/>
        <pt x="-26" y="-4" on="0"/>
      </contour>
      <contour>
        <pt x="284" y="443" on="1"/>
        <pt x="284" y="464" on="0"/>
        <pt x="361" y="564" on="0"/>
        <pt x="388" y="564" on="1"/>
        <pt x="407" y="564" on="0"/>
        <pt x="410" y="533" on="1"/>
        <pt x="336" y="469" on="0"/>
        <pt x="298" y="417" on="1"/>
        <pt x="284" y="424" on="0"/>
      </contour>
    </TTGlyph>
    <TTGlyph name="acircumflex" xMin="-26" yMin="-47" xMax="466" yMax="548">
      <contour>
        <pt x="-26" y="36" on="1"/>
        <pt x="-26" y="95" on="0"/>
        <pt x="57" y="239" on="0"/>
        <pt x="189" y="343" on="0"/>
        <pt x="251" y="343" on="1"/>
        <pt x="290" y="343" on="0"/>
        <pt x="342" y="301" on="0"/>
        <pt x="342" y="268" on="1"/>
        <pt x="342" y="225" on="0"/>
        <pt x="293" y="225" on="1"/>
        <pt x="298" y="243" on="0"/>
        <pt x="298" y="260" on="1"/>
        <pt x="298" y="316" on="0"/>
        <pt x="249" y="316" on="1"/>
        <pt x="205" y="316" on="0"/>
        <pt x="106" y="215" on="0"/>
        <pt x="43" y="82" on="0"/>
        <pt x="43" y="33" on="1"/>
        <pt x="43" y="-6" on="0"/>
        <pt x="70" y="-6" on="1"/>
        <pt x="88" y="-6" on="0"/>
        <pt x="136" y="28" on="0"/>
        <pt x="176" y="70" on="0"/>
        <pt x="231" y="141" on="0"/>
        <pt x="244" y="160" on="1"/>
        <pt x="280" y="212" on="1"/>
        <pt x="320" y="205" on="0"/>
        <pt x="320" y="187" on="1"/>
        <pt x="320" y="179" on="0"/>
        <pt x="262" y="75" on="0"/>
        <pt x="262" y="48" on="1"/>
        <pt x="262" y="31" on="0"/>
        <pt x="279" y="4" on="0"/>
        <pt x="296" y="4" on="1"/>
        <pt x="325" y="4" on="0"/>
        <pt x="413" y="87" on="0"/>
        <pt x="456" y="162" on="1"/>
        <pt x="466" y="152" on="1"/>
        <pt x="435" y="72" on="0"/>
        <pt x="322" y="-30" on="0"/>
        <pt x="268" y="-30" on="1"/>
        <pt x="233" y="-30" on="0"/>
        <pt x="196" y="11" on="0"/>
        <pt x="196" y="40" on="1"/>
        <pt x="196" y="52" on="0"/>
        <pt x="199" y="69" on="1"/>
        <pt x="154" y="9" on="0"/>
        <pt x="83" y="-47" on="0"/>
        <pt x="48" y="-47" on="1"/>
        <pt x="15" y="-47" on="0"/>
        <pt x="-26" y="-4" on="0"/>
      </contour>
      <contour>
        <pt x="222" y="460" on="1"/>
        <pt x="222" y="487" on="0"/>
        <pt x="312" y="548" on="0"/>
        <pt x="360" y="548" on="0"/>
        <pt x="426" y="469" on="0"/>
        <pt x="426" y="437" on="1"/>
        <pt x="426" y="414" on="0"/>
        <pt x="409" y="406" on="1"/>
        <pt x="388" y="449" on="0"/>
        <pt x="335" y="498" on="1"/>
        <pt x="268" y="474" on="0"/>
        <pt x="232" y="441" on="1"/>
        <pt x="222" y="447" on="0"/>
      </contour>
    </TTGlyph>
    <TTGlyph name="acute" xMin="88" yMin="410" xMax="214" yMax="557">
      <contour>
        <pt x="88" y="436" on="1"/>
        <pt x="88" y="457" on="0"/>
        <pt x="165" y="557" on="0"/>
        <pt x="192" y="557" on="1"/>
        <pt x="211" y="557" on="0"/>
        <pt x="214" y="526" on="1"/>
        <pt x="140" y="462" on="0"/>
        <pt x="102" y="410" on="1"/>
        <pt x="88" y="417" on="0"/>
      </contour>
    </TTGlyph>
    <TTGlyph name="adieresis" xMin="-26" yMin="-47" xMax="466" yMax="513">
      <contour>
        <pt x="-26" y="36" on="1"/>
        <pt x="-26" y="95" on="0"/>
        <pt x="57" y="239" on="0"/>
        <pt x="189" y="343" on="0"/>
        <pt x="251" y="343" on="1"/>
        <pt x="290" y="343" on="0"/>
        <pt x="342" y="301" on="0"/>
        <pt x="342" y="268" on="1"/>
        <pt x="342" y="225" on="0"/>
        <pt x="293" y="225" on="1"/>
        <pt x="298" y="243" on="0"/>
        <pt x="298" y="260" on="1"/>
        <pt x="298" y="316" on="0"/>
        <pt x="249" y="316" on="1"/>
        <pt x="205" y="316" on="0"/>
        <pt x="106" y="215" on="0"/>
        <pt x="43" y="82" on="0"/>
        <pt x="43" y="33" on="1"/>
        <pt x="43" y="-6" on="0"/>
        <pt x="70" y="-6" on="1"/>
        <pt x="88" y="-6" on="0"/>
        <pt x="136" y="28" on="0"/>
        <pt x="176" y="70" on="0"/>
        <pt x="231" y="141" on="0"/>
        <pt x="244" y="160" on="1"/>
        <pt x="280" y="212" on="1"/>
        <pt x="320" y="205" on="0"/>
        <pt x="320" y="187" on="1"/>
        <pt x="320" y="179" on="0"/>
        <pt x="262" y="75" on="0"/>
        <pt x="262" y="48" on="1"/>
        <pt x="262" y="31" on="0"/>
        <pt x="279" y="4" on="0"/>
        <pt x="296" y="4" on="1"/>
        <pt x="325" y="4" on="0"/>
        <pt x="413" y="87" on="0"/>
        <pt x="456" y="162" on="1"/>
        <pt x="466" y="152" on="1"/>
        <pt x="435" y="72" on="0"/>
        <pt x="322" y="-30" on="0"/>
        <pt x="268" y="-30" on="1"/>
        <pt x="233" y="-30" on="0"/>
        <pt x="196" y="11" on="0"/>
        <pt x="196" y="40" on="1"/>
        <pt x="196" y="52" on="0"/>
        <pt x="199" y="69" on="1"/>
        <pt x="154" y="9" on="0"/>
        <pt x="83" y="-47" on="0"/>
        <pt x="48" y="-47" on="1"/>
        <pt x="15" y="-47" on="0"/>
        <pt x="-26" y="-4" on="0"/>
      </contour>
      <contour>
        <pt x="154" y="466" on="1"/>
        <pt x="154" y="484" on="0"/>
        <pt x="197" y="513" on="0"/>
        <pt x="220" y="513" on="1"/>
        <pt x="250" y="513" on="0"/>
        <pt x="250" y="485" on="1"/>
        <pt x="250" y="468" on="0"/>
        <pt x="213" y="436" on="0"/>
        <pt x="191" y="436" on="1"/>
        <pt x="154" y="436" on="0"/>
      </contour>
      <contour>
        <pt x="298" y="445" on="1"/>
        <pt x="298" y="463" on="0"/>
        <pt x="341" y="492" on="0"/>
        <pt x="364" y="492" on="1"/>
        <pt x="394" y="492" on="0"/>
        <pt x="394" y="464" on="1"/>
        <pt x="394" y="447" on="0"/>
        <pt x="357" y="415" on="0"/>
        <pt x="335" y="415" on="1"/>
        <pt x="298" y="415" on="0"/>
      </contour>
    </TTGlyph>
    <TTGlyph name="ae" xMin="-26" yMin="-47" xMax="576" yMax="360">
      <contour>
        <pt x="-26" y="36" on="1"/>
        <pt x="-26" y="95" on="0"/>
        <pt x="57" y="239" on="0"/>
        <pt x="189" y="343" on="0"/>
        <pt x="251" y="343" on="1"/>
        <pt x="305" y="343" on="0"/>
        <pt x="320" y="301" on="1"/>
        <pt x="387" y="360" on="0"/>
        <pt x="451" y="360" on="1"/>
        <pt x="513" y="360" on="0"/>
        <pt x="513" y="299" on="1"/>
        <pt x="513" y="226" on="0"/>
        <pt x="357" y="114" on="0"/>
        <pt x="265" y="105" on="1"/>
        <pt x="261" y="88" on="0"/>
        <pt x="261" y="69" on="1"/>
        <pt x="261" y="-15" on="0"/>
        <pt x="340" y="-15" on="1"/>
        <pt x="401" y="-15" on="0"/>
        <pt x="525" y="87" on="0"/>
        <pt x="564" y="162" on="1"/>
        <pt x="576" y="153" on="1"/>
        <pt x="536" y="64" on="0"/>
        <pt x="394" y="-44" on="0"/>
        <pt x="319" y="-44" on="1"/>
        <pt x="262" y="-44" on="0"/>
        <pt x="199" y="17" on="0"/>
        <pt x="197" y="66" on="1"/>
        <pt x="153" y="8" on="0"/>
        <pt x="83" y="-47" on="0"/>
        <pt x="48" y="-47" on="1"/>
        <pt x="15" y="-47" on="0"/>
        <pt x="-26" y="-4" on="0"/>
      </contour>
      <contour>
        <pt x="43" y="33" on="1"/>
        <pt x="43" y="-6" on="0"/>
        <pt x="70" y="-6" on="1"/>
        <pt x="116" y="-6" on="0"/>
        <pt x="199" y="99" on="1"/>
        <pt x="206" y="143" on="0"/>
        <pt x="258" y="239" on="0"/>
        <pt x="296" y="278" on="1"/>
        <pt x="287" y="316" on="0"/>
        <pt x="249" y="316" on="1"/>
        <pt x="205" y="316" on="0"/>
        <pt x="106" y="215" on="0"/>
        <pt x="43" y="82" on="0"/>
      </contour>
      <contour>
        <pt x="270" y="124" on="1"/>
        <pt x="340" y="149" on="0"/>
        <pt x="469" y="249" on="0"/>
        <pt x="469" y="306" on="1"/>
        <pt x="469" y="329" on="0"/>
        <pt x="448" y="329" on="1"/>
        <pt x="401" y="329" on="0"/>
        <pt x="291" y="198" on="0"/>
      </contour>
    </TTGlyph>
    <TTGlyph name="agrave" xMin="-26" yMin="-47" xMax="466" yMax="557">
      <contour>
        <pt x="-26" y="36" on="1"/>
        <pt x="-26" y="95" on="0"/>
        <pt x="57" y="239" on="0"/>
        <pt x="189" y="343" on="0"/>
        <pt x="251" y="343" on="1"/>
        <pt x="290" y="343" on="0"/>
        <pt x="342" y="301" on="0"/>
        <pt x="342" y="268" on="1"/>
        <pt x="342" y="225" on="0"/>
        <pt x="293" y="225" on="1"/>
        <pt x="298" y="243" on="0"/>
        <pt x="298" y="260" on="1"/>
        <pt x="298" y="316" on="0"/>
        <pt x="249" y="316" on="1"/>
        <pt x="205" y="316" on="0"/>
        <pt x="106" y="215" on="0"/>
        <pt x="43" y="82" on="0"/>
        <pt x="43" y="33" on="1"/>
        <pt x="43" y="-6" on="0"/>
        <pt x="70" y="-6" on="1"/>
        <pt x="88" y="-6" on="0"/>
        <pt x="136" y="28" on="0"/>
        <pt x="176" y="70" on="0"/>
        <pt x="231" y="141" on="0"/>
        <pt x="244" y="160" on="1"/>
        <pt x="280" y="212" on="1"/>
        <pt x="320" y="205" on="0"/>
        <pt x="320" y="187" on="1"/>
        <pt x="320" y="179" on="0"/>
        <pt x="262" y="75" on="0"/>
        <pt x="262" y="48" on="1"/>
        <pt x="262" y="31" on="0"/>
        <pt x="279" y="4" on="0"/>
        <pt x="296" y="4" on="1"/>
        <pt x="325" y="4" on="0"/>
        <pt x="413" y="87" on="0"/>
        <pt x="456" y="162" on="1"/>
        <pt x="466" y="152" on="1"/>
        <pt x="435" y="72" on="0"/>
        <pt x="322" y="-30" on="0"/>
        <pt x="268" y="-30" on="1"/>
        <pt x="233" y="-30" on="0"/>
        <pt x="196" y="11" on="0"/>
        <pt x="196" y="40" on="1"/>
        <pt x="196" y="52" on="0"/>
        <pt x="199" y="69" on="1"/>
        <pt x="154" y="9" on="0"/>
        <pt x="83" y="-47" on="0"/>
        <pt x="48" y="-47" on="1"/>
        <pt x="15" y="-47" on="0"/>
        <pt x="-26" y="-4" on="0"/>
      </contour>
      <contour>
        <pt x="213" y="526" on="1"/>
        <pt x="216" y="557" on="0"/>
        <pt x="235" y="557" on="1"/>
        <pt x="262" y="557" on="0"/>
        <pt x="339" y="457" on="0"/>
        <pt x="339" y="436" on="1"/>
        <pt x="339" y="417" on="0"/>
        <pt x="325" y="410" on="1"/>
        <pt x="287" y="462" on="0"/>
      </contour>
    </TTGlyph>
    <TTGlyph name="ampersand" xMin="-3" yMin="-87" xMax="636" yMax="719">
      <contour>
        <pt x="-3" y="95" on="1"/>
        <pt x="-3" y="188" on="0"/>
        <pt x="149" y="344" on="0"/>
        <pt x="256" y="354" on="1"/>
        <pt x="180" y="417" on="0"/>
        <pt x="180" y="512" on="1"/>
        <pt x="180" y="594" on="0"/>
        <pt x="299" y="719" on="0"/>
        <pt x="387" y="719" on="1"/>
        <pt x="496" y="719" on="0"/>
        <pt x="496" y="613" on="1"/>
        <pt x="496" y="558" on="0"/>
        <pt x="445" y="460" on="0"/>
        <pt x="420" y="460" on="1"/>
        <pt x="398" y="460" on="0"/>
        <pt x="383" y="492" on="1"/>
        <pt x="465" y="564" on="0"/>
        <pt x="465" y="629" on="1"/>
        <pt x="465" y="661" on="0"/>
        <pt x="431" y="699" on="0"/>
        <pt x="397" y="699" on="1"/>
        <pt x="330" y="699" on="0"/>
        <pt x="253" y="580" on="0"/>
        <pt x="253" y="495" on="1"/>
        <pt x="253" y="394" on="0"/>
        <pt x="311" y="344" on="1"/>
        <pt x="215" y="328" on="0"/>
        <pt x="90" y="176" on="0"/>
        <pt x="90" y="92" on="1"/>
        <pt x="90" y="35" on="0"/>
        <pt x="153" y="-53" on="0"/>
        <pt x="218" y="-53" on="1"/>
        <pt x="322" y="-53" on="0"/>
        <pt x="496" y="142" on="0"/>
        <pt x="510" y="264" on="1"/>
        <pt x="465" y="262" on="0"/>
        <pt x="403" y="250" on="1"/>
        <pt x="379" y="245" on="1"/>
        <pt x="382" y="315" on="0"/>
        <pt x="483" y="315" on="1"/>
        <pt x="516" y="315" on="0"/>
        <pt x="619" y="298" on="0"/>
        <pt x="636" y="298" on="1"/>
        <pt x="621" y="266" on="0"/>
        <pt x="594" y="266" on="1"/>
        <pt x="571" y="265" on="0"/>
        <pt x="536" y="265" on="1"/>
        <pt x="522" y="126" on="0"/>
        <pt x="318" y="-87" on="0"/>
        <pt x="192" y="-87" on="1"/>
        <pt x="104" y="-87" on="0"/>
        <pt x="-3" y="18" on="0"/>
      </contour>
    </TTGlyph>
    <TTGlyph name="aring" xMin="-26" yMin="-47" xMax="466" yMax="563">
      <contour>
        <pt x="-26" y="36" on="1"/>
        <pt x="-26" y="95" on="0"/>
        <pt x="57" y="239" on="0"/>
        <pt x="189" y="343" on="0"/>
        <pt x="251" y="343" on="1"/>
        <pt x="290" y="343" on="0"/>
        <pt x="342" y="301" on="0"/>
        <pt x="342" y="268" on="1"/>
        <pt x="342" y="225" on="0"/>
        <pt x="293" y="225" on="1"/>
        <pt x="298" y="243" on="0"/>
        <pt x="298" y="260" on="1"/>
        <pt x="298" y="316" on="0"/>
        <pt x="249" y="316" on="1"/>
        <pt x="205" y="316" on="0"/>
        <pt x="106" y="215" on="0"/>
        <pt x="43" y="82" on="0"/>
        <pt x="43" y="33" on="1"/>
        <pt x="43" y="-6" on="0"/>
        <pt x="70" y="-6" on="1"/>
        <pt x="88" y="-6" on="0"/>
        <pt x="136" y="28" on="0"/>
        <pt x="176" y="70" on="0"/>
        <pt x="231" y="141" on="0"/>
        <pt x="244" y="160" on="1"/>
        <pt x="280" y="212" on="1"/>
        <pt x="320" y="205" on="0"/>
        <pt x="320" y="187" on="1"/>
        <pt x="320" y="179" on="0"/>
        <pt x="262" y="75" on="0"/>
        <pt x="262" y="48" on="1"/>
        <pt x="262" y="31" on="0"/>
        <pt x="279" y="4" on="0"/>
        <pt x="296" y="4" on="1"/>
        <pt x="325" y="4" on="0"/>
        <pt x="413" y="87" on="0"/>
        <pt x="456" y="162" on="1"/>
        <pt x="466" y="152" on="1"/>
        <pt x="435" y="72" on="0"/>
        <pt x="322" y="-30" on="0"/>
        <pt x="268" y="-30" on="1"/>
        <pt x="233" y="-30" on="0"/>
        <pt x="196" y="11" on="0"/>
        <pt x="196" y="40" on="1"/>
        <pt x="196" y="52" on="0"/>
        <pt x="199" y="69" on="1"/>
        <pt x="154" y="9" on="0"/>
        <pt x="83" y="-47" on="0"/>
        <pt x="48" y="-47" on="1"/>
        <pt x="15" y="-47" on="0"/>
        <pt x="-26" y="-4" on="0"/>
      </contour>
      <contour>
        <pt x="216" y="451" on="1"/>
        <pt x="216" y="490" on="0"/>
        <pt x="290" y="563" on="0"/>
        <pt x="338" y="563" on="1"/>
        <pt x="414" y="563" on="0"/>
        <pt x="414" y="509" on="1"/>
        <pt x="414" y="471" on="0"/>
        <pt x="337" y="397" on="0"/>
        <pt x="288" y="397" on="1"/>
        <pt x="216" y="397" on="0"/>
      </contour>
      <contour>
        <pt x="255" y="458" on="1"/>
        <pt x="255" y="443" on="0"/>
        <pt x="277" y="417" on="0"/>
        <pt x="297" y="417" on="1"/>
        <pt x="325" y="417" on="0"/>
        <pt x="377" y="476" on="0"/>
        <pt x="377" y="503" on="1"/>
        <pt x="377" y="518" on="0"/>
        <pt x="354" y="540" on="0"/>
        <pt x="333" y="540" on="1"/>
        <pt x="304" y="540" on="0"/>
        <pt x="255" y="486" on="0"/>
      </contour>
    </TTGlyph>
    <TTGlyph name="asciicircum" xMin="0" yMin="406" xMax="204" yMax="548">
      <contour>
        <pt x="0" y="460" on="1"/>
        <pt x="0" y="487" on="0"/>
        <pt x="90" y="548" on="0"/>
        <pt x="138" y="548" on="0"/>
        <pt x="204" y="469" on="0"/>
        <pt x="204" y="437" on="1"/>
        <pt x="204" y="414" on="0"/>
        <pt x="187" y="406" on="1"/>
        <pt x="166" y="449" on="0"/>
        <pt x="113" y="498" on="1"/>
        <pt x="46" y="474" on="0"/>
        <pt x="10" y="441" on="1"/>
        <pt x="0" y="447" on="0"/>
      </contour>
    </TTGlyph>
    <TTGlyph name="asciitilde" xMin="40" yMin="129" xMax="347" yMax="206">
      <contour>
        <pt x="40" y="160" on="1"/>
        <pt x="75" y="206" on="0"/>
        <pt x="123" y="206" on="1"/>
        <pt x="149" y="206" on="0"/>
        <pt x="278" y="162" on="0"/>
        <pt x="317" y="162" on="1"/>
        <pt x="332" y="162" on="0"/>
        <pt x="347" y="165" on="1"/>
        <pt x="315" y="129" on="0"/>
        <pt x="269" y="129" on="1"/>
        <pt x="241" y="129" on="0"/>
        <pt x="118" y="168" on="0"/>
        <pt x="86" y="168" on="1"/>
        <pt x="60" y="168" on="0"/>
      </contour>
    </TTGlyph>
    <TTGlyph name="asterisk" xMin="116" yMin="404" xMax="433" yMax="718">
      <contour>
        <pt x="116" y="572" on="1"/>
        <pt x="135" y="573" on="0"/>
        <pt x="233" y="577" on="1"/>
        <pt x="185" y="656" on="0"/>
        <pt x="185" y="692" on="1"/>
        <pt x="185" y="702" on="0"/>
        <pt x="199" y="718" on="1"/>
        <pt x="242" y="626" on="0"/>
        <pt x="267" y="588" on="1"/>
        <pt x="270" y="594" on="0"/>
        <pt x="277" y="608" on="1"/>
        <pt x="286" y="630" on="1"/>
        <pt x="289" y="637" on="0"/>
        <pt x="301" y="660" on="0"/>
        <pt x="308" y="671" on="0"/>
        <pt x="319" y="689" on="0"/>
        <pt x="324" y="694" on="1"/>
        <pt x="335" y="705" on="1"/>
        <pt x="341" y="710" on="0"/>
        <pt x="355" y="716" on="0"/>
        <pt x="362" y="718" on="1"/>
        <pt x="355" y="699" on="0"/>
        <pt x="303" y="595" on="0"/>
        <pt x="295" y="577" on="1"/>
        <pt x="340" y="580" on="0"/>
        <pt x="347" y="580" on="1"/>
        <pt x="407" y="580" on="0"/>
        <pt x="433" y="551" on="1"/>
        <pt x="303" y="539" on="1"/>
        <pt x="306" y="534" on="0"/>
        <pt x="327" y="503" on="0"/>
        <pt x="336" y="487" on="0"/>
        <pt x="350" y="457" on="0"/>
        <pt x="355" y="424" on="0"/>
        <pt x="355" y="404" on="1"/>
        <pt x="338" y="424" on="0"/>
        <pt x="266" y="532" on="1"/>
        <pt x="235" y="472" on="0"/>
        <pt x="187" y="408" on="0"/>
        <pt x="163" y="408" on="1"/>
        <pt x="175" y="425" on="0"/>
        <pt x="195" y="460" on="0"/>
        <pt x="206" y="483" on="0"/>
        <pt x="224" y="525" on="0"/>
        <pt x="231" y="539" on="1"/>
        <pt x="205" y="539" on="1"/>
        <pt x="124" y="539" on="0"/>
      </contour>
    </TTGlyph>
    <TTGlyph name="at" xMin="3" yMin="-121" xMax="533" yMax="395">
      <contour>
        <pt x="3" y="88" on="1"/>
        <pt x="3" y="208" on="0"/>
        <pt x="185" y="395" on="0"/>
        <pt x="322" y="395" on="1"/>
        <pt x="425" y="395" on="0"/>
        <pt x="533" y="288" on="0"/>
        <pt x="533" y="214" on="1"/>
        <pt x="533" y="138" on="0"/>
        <pt x="428" y="9" on="0"/>
        <pt x="359" y="9" on="1"/>
        <pt x="295" y="9" on="0"/>
        <pt x="295" y="68" on="1"/>
        <pt x="295" y="74" on="0"/>
        <pt x="297" y="88" on="1"/>
        <pt x="228" y="-5" on="0"/>
        <pt x="166" y="-5" on="1"/>
        <pt x="140" y="-5" on="0"/>
        <pt x="107" y="29" on="0"/>
        <pt x="107" y="61" on="1"/>
        <pt x="107" y="136" on="0"/>
        <pt x="254" y="307" on="0"/>
        <pt x="329" y="307" on="1"/>
        <pt x="360" y="307" on="0"/>
        <pt x="402" y="274" on="0"/>
        <pt x="402" y="247" on="1"/>
        <pt x="402" y="213" on="0"/>
        <pt x="362" y="213" on="1"/>
        <pt x="366" y="224" on="0"/>
        <pt x="366" y="240" on="1"/>
        <pt x="366" y="285" on="0"/>
        <pt x="328" y="285" on="1"/>
        <pt x="274" y="285" on="0"/>
        <pt x="162" y="122" on="0"/>
        <pt x="162" y="60" on="1"/>
        <pt x="162" y="28" on="0"/>
        <pt x="184" y="28" on="1"/>
        <pt x="202" y="28" on="0"/>
        <pt x="247" y="62" on="0"/>
        <pt x="301" y="129" on="0"/>
        <pt x="315" y="148" on="1"/>
        <pt x="352" y="202" on="1"/>
        <pt x="362" y="201" on="0"/>
        <pt x="384" y="190" on="0"/>
        <pt x="384" y="182" on="1"/>
        <pt x="384" y="175" on="0"/>
        <pt x="338" y="93" on="0"/>
        <pt x="338" y="69" on="1"/>
        <pt x="338" y="36" on="0"/>
        <pt x="372" y="36" on="1"/>
        <pt x="419" y="36" on="0"/>
        <pt x="501" y="144" on="0"/>
        <pt x="501" y="272" on="0"/>
        <pt x="411" y="365" on="0"/>
        <pt x="322" y="365" on="1"/>
        <pt x="200" y="365" on="0"/>
        <pt x="39" y="191" on="0"/>
        <pt x="39" y="84" on="1"/>
        <pt x="39" y="8" on="0"/>
        <pt x="129" y="-96" on="0"/>
        <pt x="222" y="-96" on="1"/>
        <pt x="339" y="-96" on="0"/>
        <pt x="436" y="-11" on="1"/>
        <pt x="442" y="-19" on="1"/>
        <pt x="352" y="-121" on="0"/>
        <pt x="216" y="-121" on="1"/>
        <pt x="110" y="-121" on="0"/>
        <pt x="3" y="0" on="0"/>
      </contour>
    </TTGlyph>
    <TTGlyph name="atilde" xMin="-26" yMin="-47" xMax="466" yMax="474">
      <contour>
        <pt x="-26" y="36" on="1"/>
        <pt x="-26" y="95" on="0"/>
        <pt x="57" y="239" on="0"/>
        <pt x="189" y="343" on="0"/>
        <pt x="251" y="343" on="1"/>
        <pt x="290" y="343" on="0"/>
        <pt x="342" y="301" on="0"/>
        <pt x="342" y="268" on="1"/>
        <pt x="342" y="225" on="0"/>
        <pt x="293" y="225" on="1"/>
        <pt x="298" y="243" on="0"/>
        <pt x="298" y="260" on="1"/>
        <pt x="298" y="316" on="0"/>
        <pt x="249" y="316" on="1"/>
        <pt x="205" y="316" on="0"/>
        <pt x="106" y="215" on="0"/>
        <pt x="43" y="82" on="0"/>
        <pt x="43" y="33" on="1"/>
        <pt x="43" y="-6" on="0"/>
        <pt x="70" y="-6" on="1"/>
        <pt x="88" y="-6" on="0"/>
        <pt x="136" y="28" on="0"/>
        <pt x="176" y="70" on="0"/>
        <pt x="231" y="141" on="0"/>
        <pt x="244" y="160" on="1"/>
        <pt x="280" y="212" on="1"/>
        <pt x="320" y="205" on="0"/>
        <pt x="320" y="187" on="1"/>
        <pt x="320" y="179" on="0"/>
        <pt x="262" y="75" on="0"/>
        <pt x="262" y="48" on="1"/>
        <pt x="262" y="31" on="0"/>
        <pt x="279" y="4" on="0"/>
        <pt x="296" y="4" on="1"/>
        <pt x="325" y="4" on="0"/>
        <pt x="413" y="87" on="0"/>
        <pt x="456" y="162" on="1"/>
        <pt x="466" y="152" on="1"/>
        <pt x="435" y="72" on="0"/>
        <pt x="322" y="-30" on="0"/>
        <pt x="268" y="-30" on="1"/>
        <pt x="233" y="-30" on="0"/>
        <pt x="196" y="11" on="0"/>
        <pt x="196" y="40" on="1"/>
        <pt x="196" y="52" on="0"/>
        <pt x="199" y="69" on="1"/>
        <pt x="154" y="9" on="0"/>
        <pt x="83" y="-47" on="0"/>
        <pt x="48" y="-47" on="1"/>
        <pt x="15" y="-47" on="0"/>
        <pt x="-26" y="-4" on="0"/>
      </contour>
      <contour>
        <pt x="140" y="428" on="1"/>
        <pt x="175" y="474" on="0"/>
        <pt x="223" y="474" on="1"/>
        <pt x="249" y="474" on="0"/>
        <pt x="378" y="430" on="0"/>
        <pt x="417" y="430" on="1"/>
        <pt x="432" y="430" on="0"/>
        <pt x="447" y="433" on="1"/>
        <pt x="415" y="397" on="0"/>
        <pt x="369" y="397" on="1"/>
        <pt x="341" y="397" on="0"/>
        <pt x="218" y="436" on="0"/>
        <pt x="186" y="436" on="1"/>
        <pt x="160" y="436" on="0"/>
      </contour>
    </TTGlyph>
    <TTGlyph name="b" xMin="-10" yMin="-73" xMax="427" yMax="714">
      <contour>
        <pt x="-10" y="53" on="1"/>
        <pt x="-10" y="148" on="0"/>
        <pt x="111" y="470" on="0"/>
        <pt x="261" y="714" on="0"/>
        <pt x="301" y="714" on="1"/>
        <pt x="316" y="714" on="0"/>
        <pt x="333" y="675" on="0"/>
        <pt x="333" y="651" on="1"/>
        <pt x="333" y="604" on="0"/>
        <pt x="270" y="453" on="0"/>
        <pt x="161" y="304" on="0"/>
        <pt x="105" y="270" on="1"/>
        <pt x="92" y="246" on="0"/>
        <pt x="57" y="114" on="0"/>
        <pt x="57" y="59" on="1"/>
        <pt x="57" y="-35" on="0"/>
        <pt x="112" y="-35" on="1"/>
        <pt x="141" y="-35" on="0"/>
        <pt x="203" y="12" on="0"/>
        <pt x="222" y="49" on="1"/>
        <pt x="187" y="67" on="0"/>
        <pt x="149" y="138" on="0"/>
        <pt x="149" y="178" on="1"/>
        <pt x="149" y="225" on="0"/>
        <pt x="198" y="284" on="0"/>
        <pt x="233" y="284" on="1"/>
        <pt x="262" y="284" on="0"/>
        <pt x="296" y="236" on="0"/>
        <pt x="296" y="192" on="1"/>
        <pt x="296" y="126" on="0"/>
        <pt x="261" y="56" on="1"/>
        <pt x="273" y="53" on="0"/>
        <pt x="287" y="53" on="1"/>
        <pt x="312" y="53" on="0"/>
        <pt x="354" y="72" on="0"/>
        <pt x="385" y="110" on="0"/>
        <pt x="404" y="139" on="0"/>
        <pt x="415" y="162" on="1"/>
        <pt x="427" y="149" on="1"/>
        <pt x="380" y="35" on="0"/>
        <pt x="284" y="35" on="1"/>
        <pt x="267" y="35" on="0"/>
        <pt x="252" y="38" on="1"/>
        <pt x="186" y="-73" on="0"/>
        <pt x="93" y="-73" on="1"/>
        <pt x="42" y="-73" on="0"/>
        <pt x="-10" y="-6" on="0"/>
      </contour>
      <contour>
        <pt x="116" y="309" on="1"/>
        <pt x="180" y="360" on="0"/>
        <pt x="299" y="581" on="0"/>
        <pt x="299" y="625" on="1"/>
        <pt x="299" y="633" on="0"/>
        <pt x="295" y="633" on="1"/>
        <pt x="284" y="633" on="0"/>
        <pt x="217" y="537" on="0"/>
        <pt x="137" y="380" on="0"/>
      </contour>
      <contour>
        <pt x="184" y="173" on="1"/>
        <pt x="184" y="101" on="0"/>
        <pt x="232" y="69" on="1"/>
        <pt x="255" y="118" on="0"/>
        <pt x="255" y="170" on="1"/>
        <pt x="255" y="204" on="0"/>
        <pt x="236" y="245" on="0"/>
        <pt x="222" y="245" on="1"/>
        <pt x="207" y="245" on="0"/>
        <pt x="184" y="203" on="0"/>
      </contour>
    </TTGlyph>
    <TTGlyph name="b_r" xMin="-10" yMin="-73" xMax="777" yMax="714">
      <contour>
        <pt x="-10" y="53" on="1"/>
        <pt x="-10" y="148" on="0"/>
        <pt x="111" y="470" on="0"/>
        <pt x="261" y="714" on="0"/>
        <pt x="301" y="714" on="1"/>
        <pt x="316" y="714" on="0"/>
        <pt x="333" y="675" on="0"/>
        <pt x="333" y="651" on="1"/>
        <pt x="333" y="604" on="0"/>
        <pt x="270" y="453" on="0"/>
        <pt x="161" y="304" on="0"/>
        <pt x="105" y="270" on="1"/>
        <pt x="92" y="246" on="0"/>
        <pt x="57" y="114" on="0"/>
        <pt x="57" y="59" on="1"/>
        <pt x="57" y="-35" on="0"/>
        <pt x="112" y="-35" on="1"/>
        <pt x="141" y="-35" on="0"/>
        <pt x="203" y="12" on="0"/>
        <pt x="222" y="49" on="1"/>
        <pt x="187" y="67" on="0"/>
        <pt x="149" y="138" on="0"/>
        <pt x="149" y="178" on="1"/>
        <pt x="149" y="225" on="0"/>
        <pt x="198" y="284" on="0"/>
        <pt x="233" y="284" on="1"/>
        <pt x="262" y="284" on="0"/>
        <pt x="296" y="236" on="0"/>
        <pt x="296" y="192" on="1"/>
        <pt x="296" y="125" on="0"/>
        <pt x="263" y="59" on="1"/>
        <pt x="270" y="57" on="0"/>
        <pt x="284" y="57" on="1"/>
        <pt x="315" y="57" on="0"/>
        <pt x="371" y="97" on="0"/>
        <pt x="407" y="144" on="0"/>
        <pt x="447" y="231" on="0"/>
        <pt x="463" y="275" on="0"/>
        <pt x="477" y="317" on="1"/>
        <pt x="467" y="327" on="0"/>
        <pt x="467" y="343" on="1"/>
        <pt x="467" y="367" on="0"/>
        <pt x="498" y="409" on="0"/>
        <pt x="511" y="409" on="1"/>
        <pt x="523" y="409" on="0"/>
        <pt x="523" y="386" on="1"/>
        <pt x="523" y="380" on="0"/>
        <pt x="512" y="351" on="0"/>
        <pt x="512" y="346" on="1"/>
        <pt x="512" y="336" on="0"/>
        <pt x="544" y="310" on="0"/>
        <pt x="582" y="285" on="0"/>
        <pt x="614" y="237" on="0"/>
        <pt x="614" y="208" on="1"/>
        <pt x="614" y="176" on="0"/>
        <pt x="564" y="59" on="0"/>
        <pt x="564" y="39" on="1"/>
        <pt x="564" y="10" on="0"/>
        <pt x="594" y="10" on="1"/>
        <pt x="638" y="10" on="0"/>
        <pt x="743" y="110" on="0"/>
        <pt x="764" y="159" on="1"/>
        <pt x="777" y="149" on="1"/>
        <pt x="746" y="80" on="0"/>
        <pt x="628" y="-26" on="0"/>
        <pt x="568" y="-26" on="1"/>
        <pt x="534" y="-26" on="0"/>
        <pt x="495" y="9" on="0"/>
        <pt x="495" y="40" on="1"/>
        <pt x="495" y="69" on="0"/>
        <pt x="550" y="200" on="0"/>
        <pt x="550" y="227" on="1"/>
        <pt x="550" y="237" on="0"/>
        <pt x="544" y="255" on="0"/>
        <pt x="539" y="266" on="0"/>
        <pt x="523" y="281" on="0"/>
        <pt x="518" y="286" on="0"/>
        <pt x="495" y="301" on="0"/>
        <pt x="494" y="302" on="1"/>
        <pt x="476" y="246" on="1"/>
        <pt x="470" y="227" on="0"/>
        <pt x="439" y="151" on="0"/>
        <pt x="409" y="108" on="0"/>
        <pt x="366" y="58" on="0"/>
        <pt x="312" y="35" on="0"/>
        <pt x="281" y="35" on="1"/>
        <pt x="267" y="35" on="0"/>
        <pt x="252" y="38" on="1"/>
        <pt x="186" y="-73" on="0"/>
        <pt x="93" y="-73" on="1"/>
        <pt x="42" y="-73" on="0"/>
        <pt x="-10" y="-6" on="0"/>
      </contour>
      <contour>
        <pt x="116" y="309" on="1"/>
        <pt x="180" y="360" on="0"/>
        <pt x="299" y="581" on="0"/>
        <pt x="299" y="625" on="1"/>
        <pt x="299" y="633" on="0"/>
        <pt x="295" y="633" on="1"/>
        <pt x="284" y="633" on="0"/>
        <pt x="217" y="537" on="0"/>
        <pt x="137" y="380" on="0"/>
      </contour>
      <contour>
        <pt x="184" y="173" on="1"/>
        <pt x="184" y="101" on="0"/>
        <pt x="232" y="69" on="1"/>
        <pt x="255" y="118" on="0"/>
        <pt x="255" y="170" on="1"/>
        <pt x="255" y="204" on="0"/>
        <pt x="236" y="245" on="0"/>
        <pt x="222" y="245" on="1"/>
        <pt x="207" y="245" on="0"/>
        <pt x="184" y="203" on="0"/>
      </contour>
    </TTGlyph>
    <TTGlyph name="backslash" xMin="164" yMin="-162" xMax="435" yMax="720">
      <contour>
        <pt x="164" y="720" on="1"/>
        <pt x="186" y="720" on="0"/>
        <pt x="219" y="692" on="0"/>
        <pt x="225" y="675" on="1"/>
        <pt x="254" y="600" on="0"/>
        <pt x="296" y="393" on="1"/>
        <pt x="375" y="19" on="1"/>
        <pt x="412" y="-148" on="0"/>
        <pt x="435" y="-162" on="1"/>
        <pt x="392" y="-154" on="0"/>
        <pt x="333" y="-70" on="0"/>
        <pt x="308" y="22" on="1"/>
        <pt x="289" y="92" on="0"/>
        <pt x="175" y="692" on="0"/>
      </contour>
    </TTGlyph>
    <TTGlyph name="bar" xMin="55" yMin="-132" xMax="187" yMax="697">
      <contour>
        <pt x="55" y="-132" on="1"/>
        <pt x="87" y="-45" on="0"/>
        <pt x="149" y="663" on="0"/>
        <pt x="159" y="697" on="1"/>
        <pt x="187" y="685" on="0"/>
        <pt x="187" y="640" on="1"/>
        <pt x="187" y="554" on="0"/>
        <pt x="164" y="145" on="0"/>
        <pt x="154" y="52" on="1"/>
        <pt x="135" y="-132" on="0"/>
      </contour>
    </TTGlyph>
    <TTGlyph name="braceleft" xMin="37" yMin="-87" xMax="310" yMax="720">
      <contour>
        <pt x="37" y="-21" on="1"/>
        <pt x="37" y="12" on="0"/>
        <pt x="111" y="192" on="0"/>
        <pt x="111" y="233" on="1"/>
        <pt x="111" y="302" on="0"/>
        <pt x="75" y="331" on="1"/>
        <pt x="115" y="335" on="0"/>
        <pt x="154" y="418" on="0"/>
        <pt x="158" y="474" on="1"/>
        <pt x="167" y="587" on="1"/>
        <pt x="171" y="643" on="0"/>
        <pt x="213" y="720" on="0"/>
        <pt x="255" y="720" on="1"/>
        <pt x="305" y="720" on="0"/>
        <pt x="310" y="667" on="1"/>
        <pt x="284" y="681" on="0"/>
        <pt x="277" y="681" on="1"/>
        <pt x="253" y="681" on="0"/>
        <pt x="226" y="610" on="0"/>
        <pt x="220" y="558" on="1"/>
        <pt x="208" y="455" on="1"/>
        <pt x="202" y="403" on="0"/>
        <pt x="168" y="328" on="0"/>
        <pt x="141" y="325" on="1"/>
        <pt x="167" y="298" on="0"/>
        <pt x="167" y="256" on="1"/>
        <pt x="167" y="203" on="0"/>
        <pt x="129" y="94" on="0"/>
        <pt x="91" y="2" on="0"/>
        <pt x="91" y="-62" on="0"/>
        <pt x="124" y="-62" on="1"/>
        <pt x="139" y="-62" on="0"/>
        <pt x="149" y="-54" on="1"/>
        <pt x="146" y="-87" on="0"/>
        <pt x="102" y="-87" on="1"/>
        <pt x="37" y="-87" on="0"/>
      </contour>
    </TTGlyph>
    <TTGlyph name="braceright" xMin="-21" yMin="-87" xMax="262" yMax="720">
      <contour>
        <pt x="-21" y="-34" on="1"/>
        <pt x="-3" y="-46" on="0"/>
        <pt x="13" y="-46" on="1"/>
        <pt x="40" y="-46" on="0"/>
        <pt x="67" y="45" on="0"/>
        <pt x="78" y="129" on="1"/>
        <pt x="85" y="186" on="0"/>
        <pt x="97" y="256" on="0"/>
        <pt x="131" y="334" on="0"/>
        <pt x="156" y="347" on="1"/>
        <pt x="131" y="375" on="0"/>
        <pt x="131" y="419" on="1"/>
        <pt x="131" y="466" on="0"/>
        <pt x="202" y="648" on="0"/>
        <pt x="202" y="672" on="1"/>
        <pt x="202" y="687" on="0"/>
        <pt x="195" y="687" on="1"/>
        <pt x="176" y="687" on="0"/>
        <pt x="154" y="670" on="1"/>
        <pt x="158" y="691" on="0"/>
        <pt x="202" y="720" on="0"/>
        <pt x="222" y="720" on="1"/>
        <pt x="240" y="720" on="0"/>
        <pt x="262" y="700" on="0"/>
        <pt x="262" y="686" on="1"/>
        <pt x="262" y="669" on="0"/>
        <pt x="188" y="485" on="0"/>
        <pt x="188" y="434" on="1"/>
        <pt x="188" y="363" on="0"/>
        <pt x="223" y="339" on="1"/>
        <pt x="181" y="329" on="0"/>
        <pt x="139" y="233" on="0"/>
        <pt x="130" y="112" on="0"/>
        <pt x="119" y="-7" on="0"/>
        <pt x="78" y="-87" on="0"/>
        <pt x="36" y="-87" on="1"/>
        <pt x="-16" y="-87" on="0"/>
      </contour>
    </TTGlyph>
    <TTGlyph name="bracketleft" xMin="29" yMin="-87" xMax="443" yMax="720">
      <contour>
        <pt x="29" y="-67" on="1"/>
        <pt x="34" y="-58" on="0"/>
        <pt x="47" y="-6" on="0"/>
        <pt x="69" y="114" on="1"/>
        <pt x="141" y="498" on="1"/>
        <pt x="162" y="612" on="0"/>
        <pt x="233" y="703" on="0"/>
        <pt x="271" y="703" on="1"/>
        <pt x="278" y="703" on="0"/>
        <pt x="328" y="700" on="0"/>
        <pt x="343" y="700" on="1"/>
        <pt x="408" y="700" on="0"/>
        <pt x="443" y="720" on="1"/>
        <pt x="440" y="670" on="0"/>
        <pt x="387" y="640" on="0"/>
        <pt x="338" y="640" on="1"/>
        <pt x="322" y="640" on="0"/>
        <pt x="287" y="645" on="0"/>
        <pt x="265" y="650" on="1"/>
        <pt x="231" y="657" on="1"/>
        <pt x="198" y="561" on="0"/>
        <pt x="96" y="4" on="0"/>
        <pt x="86" y="-32" on="1"/>
        <pt x="199" y="-31" on="0"/>
        <pt x="280" y="-25" on="0"/>
        <pt x="326" y="-11" on="1"/>
        <pt x="319" y="-87" on="0"/>
        <pt x="196" y="-87" on="1"/>
        <pt x="112" y="-87" on="0"/>
      </contour>
    </TTGlyph>
    <TTGlyph name="bracketright" xMin="-14" yMin="-88" xMax="401" yMax="720">
      <contour>
        <pt x="-14" y="-88" on="1"/>
        <pt x="-9" y="-18" on="0"/>
        <pt x="91" y="-18" on="1"/>
        <pt x="103" y="-18" on="0"/>
        <pt x="215" y="-26" on="1"/>
        <pt x="248" y="69" on="0"/>
        <pt x="361" y="649" on="0"/>
        <pt x="367" y="674" on="1"/>
        <pt x="304" y="674" on="1"/>
        <pt x="179" y="674" on="0"/>
        <pt x="105" y="653" on="1"/>
        <pt x="105" y="693" on="0"/>
        <pt x="168" y="720" on="0"/>
        <pt x="234" y="720" on="1"/>
        <pt x="306" y="720" on="0"/>
        <pt x="401" y="699" on="1"/>
        <pt x="398" y="684" on="0"/>
        <pt x="379" y="565" on="1"/>
        <pt x="339" y="319" on="1"/>
        <pt x="318" y="193" on="0"/>
        <pt x="306" y="132" on="1"/>
        <pt x="300" y="102" on="0"/>
        <pt x="293" y="70" on="0"/>
        <pt x="271" y="1" on="0"/>
        <pt x="246" y="-38" on="0"/>
        <pt x="204" y="-71" on="0"/>
        <pt x="178" y="-71" on="1"/>
        <pt x="38" y="-71" on="0"/>
      </contour>
    </TTGlyph>
    <TTGlyph name="brokenbar" xMin="55" yMin="-132" xMax="187" yMax="697">
      <contour>
        <pt x="55" y="-132" on="1"/>
        <pt x="82" y="-60" on="0"/>
        <pt x="108" y="197" on="1"/>
        <pt x="128" y="217" on="0"/>
        <pt x="154" y="217" on="1"/>
        <pt x="166" y="217" on="0"/>
        <pt x="166" y="194" on="1"/>
        <pt x="154" y="17" on="0"/>
        <pt x="112" y="-132" on="0"/>
      </contour>
      <contour>
        <pt x="117" y="296" on="1"/>
        <pt x="120" y="334" on="0"/>
        <pt x="126" y="399" on="1"/>
        <pt x="135" y="502" on="1"/>
        <pt x="138" y="539" on="0"/>
        <pt x="147" y="628" on="0"/>
        <pt x="155" y="683" on="0"/>
        <pt x="159" y="697" on="1"/>
        <pt x="187" y="685" on="0"/>
        <pt x="187" y="640" on="1"/>
        <pt x="187" y="621" on="0"/>
        <pt x="177" y="441" on="0"/>
        <pt x="177" y="382" on="1"/>
        <pt x="177" y="368" on="0"/>
        <pt x="162" y="328" on="0"/>
        <pt x="145" y="316" on="1"/>
      </contour>
    </TTGlyph>
    <TTGlyph name="bullet" xMin="40" yMin="118" xMax="158" yMax="224">
      <contour>
        <pt x="40" y="156" on="1"/>
        <pt x="40" y="180" on="0"/>
        <pt x="84" y="224" on="0"/>
        <pt x="110" y="224" on="1"/>
        <pt x="128" y="224" on="0"/>
        <pt x="158" y="198" on="0"/>
        <pt x="158" y="180" on="1"/>
        <pt x="158" y="159" on="0"/>
        <pt x="112" y="118" on="0"/>
        <pt x="85" y="118" on="1"/>
        <pt x="66" y="118" on="0"/>
        <pt x="40" y="137" on="0"/>
      </contour>
    </TTGlyph>
    <TTGlyph name="c" xMin="-5" yMin="-56" xMax="355" yMax="338">
      <contour>
        <pt x="-5" y="72" on="1"/>
        <pt x="-5" y="171" on="0"/>
        <pt x="136" y="338" on="0"/>
        <pt x="214" y="338" on="1"/>
        <pt x="252" y="338" on="0"/>
        <pt x="285" y="295" on="0"/>
        <pt x="285" y="264" on="1"/>
        <pt x="285" y="234" on="0"/>
        <pt x="258" y="191" on="0"/>
        <pt x="235" y="191" on="1"/>
        <pt x="218" y="191" on="0"/>
        <pt x="206" y="206" on="1"/>
        <pt x="221" y="213" on="0"/>
        <pt x="243" y="262" on="0"/>
        <pt x="243" y="285" on="1"/>
        <pt x="243" y="310" on="0"/>
        <pt x="221" y="310" on="1"/>
        <pt x="169" y="310" on="0"/>
        <pt x="57" y="140" on="0"/>
        <pt x="57" y="65" on="1"/>
        <pt x="57" y="-18" on="0"/>
        <pt x="130" y="-18" on="1"/>
        <pt x="191" y="-18" on="0"/>
        <pt x="310" y="82" on="0"/>
        <pt x="342" y="163" on="1"/>
        <pt x="355" y="153" on="1"/>
        <pt x="321" y="62" on="0"/>
        <pt x="180" y="-56" on="0"/>
        <pt x="107" y="-56" on="1"/>
        <pt x="57" y="-56" on="0"/>
        <pt x="-5" y="10" on="0"/>
      </contour>
    </TTGlyph>
    <TTGlyph name="caron" xMin="0" yMin="406" xMax="204" yMax="548">
      <contour>
        <pt x="0" y="517" on="1"/>
        <pt x="0" y="540" on="0"/>
        <pt x="17" y="548" on="1"/>
        <pt x="38" y="505" on="0"/>
        <pt x="91" y="456" on="1"/>
        <pt x="158" y="480" on="0"/>
        <pt x="194" y="513" on="1"/>
        <pt x="204" y="507" on="0"/>
        <pt x="204" y="494" on="1"/>
        <pt x="204" y="467" on="0"/>
        <pt x="114" y="406" on="0"/>
        <pt x="66" y="406" on="0"/>
        <pt x="0" y="485" on="0"/>
      </contour>
    </TTGlyph>
    <TTGlyph name="ccedilla" xMin="-5" yMin="-173" xMax="355" yMax="338">
      <contour>
        <pt x="-5" y="72" on="1"/>
        <pt x="-5" y="171" on="0"/>
        <pt x="136" y="338" on="0"/>
        <pt x="214" y="338" on="1"/>
        <pt x="252" y="338" on="0"/>
        <pt x="285" y="295" on="0"/>
        <pt x="285" y="264" on="1"/>
        <pt x="285" y="234" on="0"/>
        <pt x="258" y="191" on="0"/>
        <pt x="235" y="191" on="1"/>
        <pt x="218" y="191" on="0"/>
        <pt x="206" y="206" on="1"/>
        <pt x="221" y="213" on="0"/>
        <pt x="243" y="262" on="0"/>
        <pt x="243" y="285" on="1"/>
        <pt x="243" y="310" on="0"/>
        <pt x="221" y="310" on="1"/>
        <pt x="169" y="310" on="0"/>
        <pt x="57" y="140" on="0"/>
        <pt x="57" y="65" on="1"/>
        <pt x="57" y="-18" on="0"/>
        <pt x="130" y="-18" on="1"/>
        <pt x="191" y="-18" on="0"/>
        <pt x="310" y="82" on="0"/>
        <pt x="342" y="163" on="1"/>
        <pt x="355" y="153" on="1"/>
        <pt x="322" y="68" on="0"/>
        <pt x="257" y="9" on="1"/>
        <pt x="223" y="-43" on="1"/>
        <pt x="257" y="-19" on="0"/>
        <pt x="290" y="-19" on="1"/>
        <pt x="335" y="-19" on="0"/>
        <pt x="335" y="-61" on="1"/>
        <pt x="335" y="-104" on="0"/>
        <pt x="264" y="-173" on="0"/>
        <pt x="218" y="-173" on="1"/>
        <pt x="190" y="-173" on="0"/>
        <pt x="157" y="-152" on="0"/>
        <pt x="157" y="-137" on="1"/>
        <pt x="157" y="-120" on="0"/>
        <pt x="179" y="-104" on="1"/>
        <pt x="189" y="-149" on="0"/>
        <pt x="221" y="-149" on="1"/>
        <pt x="249" y="-149" on="0"/>
        <pt x="304" y="-89" on="0"/>
        <pt x="304" y="-62" on="1"/>
        <pt x="304" y="-37" on="0"/>
        <pt x="287" y="-37" on="1"/>
        <pt x="272" y="-37" on="0"/>
        <pt x="206" y="-78" on="0"/>
        <pt x="202" y="-78" on="1"/>
        <pt x="196" y="-78" on="0"/>
        <pt x="188" y="-66" on="0"/>
        <pt x="188" y="-60" on="1"/>
        <pt x="188" y="-57" on="0"/>
        <pt x="211" y="-24" on="1"/>
        <pt x="157" y="-56" on="0"/>
        <pt x="57" y="-56" on="0"/>
        <pt x="-5" y="10" on="0"/>
      </contour>
    </TTGlyph>
    <TTGlyph name="cedilla" xMin="20" yMin="-173" xMax="198" yMax="38">
      <contour>
        <pt x="20" y="-137" on="1"/>
        <pt x="20" y="-120" on="0"/>
        <pt x="42" y="-104" on="1"/>
        <pt x="52" y="-149" on="0"/>
        <pt x="84" y="-149" on="1"/>
        <pt x="112" y="-149" on="0"/>
        <pt x="167" y="-89" on="0"/>
        <pt x="167" y="-62" on="1"/>
        <pt x="167" y="-37" on="0"/>
        <pt x="150" y="-37" on="1"/>
        <pt x="135" y="-37" on="0"/>
        <pt x="69" y="-78" on="0"/>
        <pt x="65" y="-78" on="1"/>
        <pt x="59" y="-78" on="0"/>
        <pt x="51" y="-66" on="0"/>
        <pt x="51" y="-60" on="1"/>
        <pt x="51" y="-57" on="0"/>
        <pt x="93" y="1" on="0"/>
        <pt x="104" y="11" on="1"/>
        <pt x="139" y="38" on="1"/>
        <pt x="86" y="-43" on="1"/>
        <pt x="120" y="-19" on="0"/>
        <pt x="153" y="-19" on="1"/>
        <pt x="198" y="-19" on="0"/>
        <pt x="198" y="-61" on="1"/>
        <pt x="198" y="-104" on="0"/>
        <pt x="127" y="-173" on="0"/>
        <pt x="81" y="-173" on="1"/>
        <pt x="53" y="-173" on="0"/>
        <pt x="20" y="-152" on="0"/>
      </contour>
    </TTGlyph>
    <TTGlyph name="cent" xMin="52" yMin="-162" xMax="362" yMax="720">
      <contour>
        <pt x="52" y="242" on="1"/>
        <pt x="52" y="327" on="0"/>
        <pt x="177" y="482" on="0"/>
        <pt x="252" y="502" on="1"/>
        <pt x="274" y="605" on="0"/>
        <pt x="284" y="675" on="1"/>
        <pt x="289" y="712" on="0"/>
        <pt x="329" y="720" on="1"/>
        <pt x="289" y="508" on="1"/>
        <pt x="328" y="508" on="0"/>
        <pt x="362" y="465" on="0"/>
        <pt x="362" y="434" on="1"/>
        <pt x="362" y="404" on="0"/>
        <pt x="335" y="361" on="0"/>
        <pt x="312" y="361" on="1"/>
        <pt x="295" y="361" on="0"/>
        <pt x="283" y="376" on="1"/>
        <pt x="298" y="383" on="0"/>
        <pt x="320" y="432" on="0"/>
        <pt x="320" y="455" on="1"/>
        <pt x="320" y="480" on="0"/>
        <pt x="298" y="480" on="1"/>
        <pt x="288" y="480" on="0"/>
        <pt x="283" y="479" on="1"/>
        <pt x="244" y="269" on="0"/>
        <pt x="220" y="155" on="1"/>
        <pt x="288" y="167" on="0"/>
        <pt x="341" y="214" on="1"/>
        <pt x="358" y="198" on="1"/>
        <pt x="297" y="140" on="0"/>
        <pt x="213" y="120" on="1"/>
        <pt x="190" y="22" on="1"/>
        <pt x="181" y="-15" on="0"/>
        <pt x="154" y="-93" on="0"/>
        <pt x="128" y="-135" on="0"/>
        <pt x="91" y="-162" on="0"/>
        <pt x="68" y="-162" on="1"/>
        <pt x="102" y="-124" on="0"/>
        <pt x="163" y="114" on="1"/>
        <pt x="113" y="114" on="0"/>
        <pt x="52" y="180" on="0"/>
      </contour>
      <contour>
        <pt x="114" y="235" on="1"/>
        <pt x="114" y="160" on="0"/>
        <pt x="173" y="152" on="1"/>
        <pt x="206" y="281" on="0"/>
        <pt x="245" y="465" on="1"/>
        <pt x="192" y="436" on="0"/>
        <pt x="114" y="296" on="0"/>
      </contour>
    </TTGlyph>
    <TTGlyph name="circumflex" xMin="0" yMin="406" xMax="204" yMax="548">
      <contour>
        <pt x="0" y="460" on="1"/>
        <pt x="0" y="487" on="0"/>
        <pt x="90" y="548" on="0"/>
        <pt x="138" y="548" on="0"/>
        <pt x="204" y="469" on="0"/>
        <pt x="204" y="437" on="1"/>
        <pt x="204" y="414" on="0"/>
        <pt x="187" y="406" on="1"/>
        <pt x="166" y="449" on="0"/>
        <pt x="113" y="498" on="1"/>
        <pt x="46" y="474" on="0"/>
        <pt x="10" y="441" on="1"/>
        <pt x="0" y="447" on="0"/>
      </contour>
    </TTGlyph>
    <TTGlyph name="colon" xMin="10" yMin="-10" xMax="154" yMax="308">
      <contour>
        <pt x="10" y="17" on="1"/>
        <pt x="10" y="33" on="0"/>
        <pt x="48" y="58" on="0"/>
        <pt x="68" y="58" on="1"/>
        <pt x="94" y="58" on="0"/>
        <pt x="94" y="34" on="1"/>
        <pt x="94" y="19" on="0"/>
        <pt x="61" y="-10" on="0"/>
        <pt x="42" y="-10" on="1"/>
        <pt x="10" y="-10" on="0"/>
      </contour>
      <contour>
        <pt x="70" y="267" on="1"/>
        <pt x="70" y="283" on="0"/>
        <pt x="108" y="308" on="0"/>
        <pt x="128" y="308" on="1"/>
        <pt x="154" y="308" on="0"/>
        <pt x="154" y="284" on="1"/>
        <pt x="154" y="269" on="0"/>
        <pt x="121" y="240" on="0"/>
        <pt x="102" y="240" on="1"/>
        <pt x="70" y="240" on="0"/>
      </contour>
    </TTGlyph>
    <TTGlyph name="comma" xMin="-10" yMin="-88" xMax="76" yMax="56">
      <contour>
        <pt x="-10" y="-51" on="1"/>
        <pt x="-10" y="-18" on="0"/>
        <pt x="30" y="56" on="0"/>
        <pt x="51" y="56" on="1"/>
        <pt x="61" y="56" on="0"/>
        <pt x="76" y="39" on="0"/>
        <pt x="76" y="28" on="1"/>
        <pt x="67" y="19" on="0"/>
        <pt x="51" y="-2" on="0"/>
        <pt x="41" y="-18" on="0"/>
        <pt x="28" y="-43" on="0"/>
        <pt x="25" y="-49" on="1"/>
        <pt x="15" y="-69" on="1"/>
        <pt x="8" y="-83" on="0"/>
        <pt x="7" y="-88" on="1"/>
        <pt x="-10" y="-78" on="0"/>
      </contour>
    </TTGlyph>
    <TTGlyph name="copyright" xMin="79" yMin="100" xMax="571" yMax="620">
      <contour>
        <pt x="79" y="358" on="1"/>
        <pt x="79" y="482" on="0"/>
        <pt x="233" y="620" on="0"/>
        <pt x="421" y="620" on="0"/>
        <pt x="571" y="483" on="0"/>
        <pt x="571" y="362" on="1"/>
        <pt x="571" y="238" on="0"/>
        <pt x="417" y="100" on="0"/>
        <pt x="229" y="100" on="0"/>
        <pt x="79" y="237" on="0"/>
      </contour>
      <contour>
        <pt x="107" y="358" on="1"/>
        <pt x="107" y="257" on="0"/>
        <pt x="227" y="128" on="0"/>
        <pt x="419" y="128" on="0"/>
        <pt x="543" y="258" on="0"/>
        <pt x="543" y="362" on="1"/>
        <pt x="543" y="463" on="0"/>
        <pt x="423" y="592" on="0"/>
        <pt x="231" y="592" on="0"/>
        <pt x="107" y="462" on="0"/>
      </contour>
      <contour>
        <pt x="245" y="299" on="1"/>
        <pt x="245" y="431" on="1"/>
        <pt x="245" y="478" on="0"/>
        <pt x="290" y="522" on="0"/>
        <pt x="326" y="522" on="1"/>
        <pt x="367" y="522" on="0"/>
        <pt x="408" y="474" on="0"/>
        <pt x="408" y="451" on="1"/>
        <pt x="408" y="434" on="0"/>
        <pt x="393" y="434" on="1"/>
        <pt x="380" y="434" on="0"/>
        <pt x="378" y="446" on="1"/>
        <pt x="370" y="495" on="0"/>
        <pt x="327" y="495" on="1"/>
        <pt x="275" y="495" on="0"/>
        <pt x="275" y="431" on="1"/>
        <pt x="275" y="299" on="1"/>
        <pt x="275" y="235" on="0"/>
        <pt x="329" y="235" on="1"/>
        <pt x="354" y="235" on="0"/>
        <pt x="378" y="270" on="0"/>
        <pt x="378" y="284" on="1"/>
        <pt x="378" y="296" on="0"/>
        <pt x="391" y="296" on="1"/>
        <pt x="408" y="296" on="0"/>
        <pt x="408" y="282" on="1"/>
        <pt x="406" y="250" on="0"/>
        <pt x="363" y="209" on="0"/>
        <pt x="326" y="209" on="1"/>
        <pt x="245" y="209" on="0"/>
      </contour>
    </TTGlyph>
    <TTGlyph name="currency" xMin="83" yMin="24" xMax="694" yMax="638">
      <contour>
        <pt x="83" y="43" on="1"/>
        <pt x="93" y="53" on="0"/>
        <pt x="146" y="91" on="0"/>
        <pt x="204" y="144" on="0"/>
        <pt x="229" y="180" on="1"/>
        <pt x="220" y="207" on="0"/>
        <pt x="220" y="247" on="1"/>
        <pt x="220" y="338" on="0"/>
        <pt x="266" y="424" on="1"/>
        <pt x="193" y="503" on="0"/>
        <pt x="148" y="544" on="1"/>
        <pt x="130" y="560" on="0"/>
        <pt x="130" y="604" on="1"/>
        <pt x="130" y="623" on="0"/>
        <pt x="136" y="638" on="1"/>
        <pt x="164" y="611" on="0"/>
        <pt x="293" y="469" on="1"/>
        <pt x="351" y="546" on="0"/>
        <pt x="495" y="546" on="0"/>
        <pt x="526" y="478" on="1"/>
        <pt x="540" y="494" on="0"/>
        <pt x="580" y="552" on="0"/>
        <pt x="602" y="578" on="0"/>
        <pt x="647" y="601" on="0"/>
        <pt x="676" y="601" on="1"/>
        <pt x="682" y="601" on="0"/>
        <pt x="694" y="599" on="1"/>
        <pt x="682" y="582" on="0"/>
        <pt x="540" y="417" on="1"/>
        <pt x="540" y="414" on="0"/>
        <pt x="541" y="404" on="0"/>
        <pt x="541" y="401" on="1"/>
        <pt x="541" y="307" on="0"/>
        <pt x="487" y="212" on="1"/>
        <pt x="601" y="105" on="0"/>
        <pt x="601" y="42" on="1"/>
        <pt x="601" y="30" on="0"/>
        <pt x="599" y="24" on="1"/>
        <pt x="591" y="39" on="0"/>
        <pt x="571" y="59" on="1"/>
        <pt x="517" y="112" on="1"/>
        <pt x="459" y="169" on="1"/>
        <pt x="401" y="96" on="0"/>
        <pt x="335" y="96" on="1"/>
        <pt x="281" y="96" on="0"/>
        <pt x="252" y="136" on="1"/>
        <pt x="169" y="43" on="0"/>
      </contour>
      <contour>
        <pt x="277" y="237" on="1"/>
        <pt x="277" y="200" on="0"/>
        <pt x="319" y="149" on="0"/>
        <pt x="343" y="149" on="1"/>
        <pt x="376" y="149" on="0"/>
        <pt x="445" y="236" on="0"/>
        <pt x="488" y="360" on="0"/>
        <pt x="488" y="412" on="1"/>
        <pt x="488" y="447" on="0"/>
        <pt x="448" y="496" on="0"/>
        <pt x="423" y="496" on="1"/>
        <pt x="385" y="496" on="0"/>
        <pt x="314" y="402" on="0"/>
        <pt x="277" y="283" on="0"/>
      </contour>
    </TTGlyph>
    <TTGlyph name="d" xMin="-16" yMin="-30" xMax="545" yMax="720">
      <contour>
        <pt x="-16" y="54" on="1"/>
        <pt x="-16" y="109" on="0"/>
        <pt x="65" y="253" on="0"/>
        <pt x="194" y="360" on="0"/>
        <pt x="253" y="360" on="1"/>
        <pt x="297" y="360" on="0"/>
        <pt x="297" y="329" on="1"/>
        <pt x="297" y="325" on="0"/>
        <pt x="295" y="315" on="1"/>
        <pt x="284" y="330" on="0"/>
        <pt x="257" y="330" on="1"/>
        <pt x="207" y="330" on="0"/>
        <pt x="109" y="229" on="0"/>
        <pt x="54" y="107" on="0"/>
        <pt x="54" y="66" on="1"/>
        <pt x="54" y="44" on="0"/>
        <pt x="73" y="18" on="0"/>
        <pt x="90" y="18" on="1"/>
        <pt x="133" y="18" on="0"/>
        <pt x="260" y="173" on="0"/>
        <pt x="306" y="293" on="1"/>
        <pt x="345" y="394" on="1"/>
        <pt x="383" y="488" on="1"/>
        <pt x="407" y="547" on="0"/>
        <pt x="424" y="580" on="1"/>
        <pt x="459" y="650" on="1"/>
        <pt x="479" y="687" on="0"/>
        <pt x="512" y="720" on="0"/>
        <pt x="525" y="720" on="1"/>
        <pt x="533" y="720" on="0"/>
        <pt x="545" y="707" on="0"/>
        <pt x="545" y="697" on="1"/>
        <pt x="545" y="677" on="0"/>
        <pt x="509" y="599" on="1"/>
        <pt x="430" y="435" on="1"/>
        <pt x="387" y="348" on="0"/>
        <pt x="315" y="137" on="0"/>
        <pt x="315" y="70" on="1"/>
        <pt x="315" y="47" on="0"/>
        <pt x="317" y="28" on="0"/>
        <pt x="327" y="14" on="0"/>
        <pt x="338" y="14" on="1"/>
        <pt x="371" y="14" on="0"/>
        <pt x="462" y="97" on="0"/>
        <pt x="492" y="162" on="1"/>
        <pt x="504" y="153" on="1"/>
        <pt x="475" y="77" on="0"/>
        <pt x="362" y="-26" on="0"/>
        <pt x="310" y="-26" on="1"/>
        <pt x="276" y="-26" on="0"/>
        <pt x="244" y="18" on="0"/>
        <pt x="244" y="49" on="1"/>
        <pt x="244" y="83" on="0"/>
        <pt x="263" y="156" on="1"/>
        <pt x="212" y="72" on="0"/>
        <pt x="103" y="-30" on="0"/>
        <pt x="59" y="-30" on="1"/>
        <pt x="30" y="-30" on="0"/>
        <pt x="-16" y="13" on="0"/>
      </contour>
    </TTGlyph>
</ttFont>
